CalistogaOne.ufo
<glyph name="exclam" format="1">
  <advance width="406"/>
  <unicode hex="0021"/>
  <outline>
    <contour>
      <point x="319" y="93" type="curve" name="hr00" smooth="yes"/>
      <point x="319" y="158"/>
      <point x="276" y="200"/>
      <point x="209" y="200" type="curve" smooth="yes"/>
      <point x="143" y="200"/>
      <point x="100" y="158"/>
      <point x="100" y="93" type="curve" smooth="yes"/>
      <point x="100" y="28"/>
      <point x="143" y="-15"/>
      <point x="209" y="-15" type="curve" smooth="yes"/>
      <point x="276" y="-15"/>
      <point x="319" y="28"/>
    </contour>
    <contour>
      <point x="254" y="333" type="line"/>
      <point x="308" y="758" type="line" smooth="yes"/>
      <point x="317" y="826"/>
      <point x="289" y="854"/>
      <point x="233" y="854" type="curve" smooth="yes"/>
      <point x="186" y="854" type="line" smooth="yes"/>
      <point x="130" y="854"/>
      <point x="102" y="826"/>
      <point x="111" y="758" type="curve" smooth="yes"/>
      <point x="165" y="333" type="line"/>
    </contour>
  </outline>
</glyph>
<glyph name="numbersign" format="1">
  <advance width="838"/>
  <unicode hex="0023"/>
  <outline>
    <contour>
      <point x="202" y="-16" type="line" name="hr00"/>
      <point x="233" y="-16"/>
      <point x="268" y="-10"/>
      <point x="293" y="0" type="curve"/>
      <point x="401" y="759" type="line"/>
      <point x="369" y="759"/>
      <point x="335" y="753"/>
      <point x="310" y="743" type="curve"/>
    </contour>
    <contour>
      <point x="426" y="-16" type="line"/>
      <point x="458" y="-16"/>
      <point x="492" y="-10"/>
      <point x="518" y="0" type="curve"/>
      <point x="625" y="759" type="line"/>
      <point x="594" y="759"/>
      <point x="560" y="753"/>
      <point x="535" y="743" type="curve"/>
    </contour>
    <contour>
      <point x="681" y="208" type="line"/>
      <point x="694" y="230"/>
      <point x="705" y="264"/>
      <point x="709" y="295" type="curve"/>
      <point x="126" y="296" type="line"/>
      <point x="113" y="271"/>
      <point x="102" y="239"/>
      <point x="98" y="207" type="curve"/>
    </contour>
    <contour>
      <point x="712" y="444" type="line"/>
      <point x="726" y="468"/>
      <point x="736" y="500"/>
      <point x="741" y="532" type="curve"/>
      <point x="158" y="533" type="line"/>
      <point x="145" y="509"/>
      <point x="134" y="476"/>
      <point x="129" y="444" type="curve"/>
    </contour>
  </outline>
</glyph>
<glyph name="dollar" format="1">
  <advance width="1313"/>
  <unicode hex="0024"/>
  <outline>
    <contour>
      <point x="104" y="521" type="line" name="hr01"/>
      <point x="104" y="346"/>
      <point x="151" y="87"/>
      <point x="208" y="-27" type="curve"/>
      <point x="377" y="47" type="line"/>
      <point x="507" y="-8"/>
      <point x="644" y="-27"/>
      <point x="742" y="-27" type="curve" smooth="yes"/>
      <point x="1046" y="-27"/>
      <point x="1206" y="156"/>
      <point x="1206" y="414" type="curve" smooth="yes"/>
      <point x="1206" y="700"/>
      <point x="979" y="821"/>
      <point x="784" y="919" type="curve" smooth="yes"/>
      <point x="651" y="986"/>
      <point x="485" y="1076"/>
      <point x="485" y="1219" type="curve" smooth="yes"/>
      <point x="485" y="1323"/>
      <point x="547" y="1391"/>
      <point x="684" y="1391" type="curve" smooth="yes" name="hr02"/>
      <point x="814" y="1391"/>
      <point x="928" y="1289"/>
      <point x="990" y="1076" type="curve"/>
      <point x="1186" y="1076" type="line"/>
      <point x="1186" y="1215"/>
      <point x="1189" y="1467"/>
      <point x="1123" y="1580" type="curve" name="hr03"/>
      <point x="888" y="1522" type="line"/>
      <point x="812" y="1562"/>
      <point x="702" y="1580"/>
      <point x="613" y="1580" type="curve" smooth="yes"/>
      <point x="361" y="1580"/>
      <point x="171" y="1434"/>
      <point x="171" y="1151" type="curve" smooth="yes"/>
      <point x="171" y="909"/>
      <point x="316" y="792"/>
      <point x="566" y="661" type="curve" smooth="yes"/>
      <point x="717" y="582"/>
      <point x="908" y="457"/>
      <point x="908" y="312" type="curve" smooth="yes"/>
      <point x="908" y="240"/>
      <point x="873" y="160"/>
      <point x="719" y="160" type="curve" smooth="yes"/>
      <point x="540" y="160"/>
      <point x="398" y="304"/>
      <point x="333" y="521" type="curve"/>
    </contour>
    <contour>
      <point x="756" y="1805" type="line"/>
      <point x="710" y="1827"/>
      <point x="632" y="1832"/>
      <point x="592" y="1814" type="curve"/>
      <point x="592" y="1458" type="line" name="hr04"/>
      <point x="638" y="1437"/>
      <point x="716" y="1432"/>
      <point x="756" y="1449" type="curve" name="hr05"/>
    </contour>
    <contour>
      <point x="736" y="70" type="line" name="hr06"/>
      <point x="690" y="92"/>
      <point x="612" y="97"/>
      <point x="572" y="79" type="curve"/>
      <point x="572" y="-287" type="line"/>
      <point x="618" y="-308"/>
      <point x="696" y="-313"/>
      <point x="736" y="-296" type="curve"/>
    </contour>
  </outline>
</glyph>
<glyph name="percent" format="1">
  <advance width="1034"/>
  <unicode hex="0025"/>
  <outline>
    <contour>
      <point x="228" y="368" type="curve" name="hr00" smooth="yes"/>
      <point x="198" y="368"/>
      <point x="174" y="400"/>
      <point x="174" y="550" type="curve" smooth="yes"/>
      <point x="174" y="703"/>
      <point x="199" y="730"/>
      <point x="229" y="730" type="curve" smooth="yes"/>
      <point x="258" y="730"/>
      <point x="283" y="703"/>
      <point x="283" y="552" type="curve" smooth="yes"/>
      <point x="283" y="400"/>
      <point x="258" y="368"/>
    </contour>
    <contour>
      <point x="228" y="305" type="curve" smooth="yes"/>
      <point x="351" y="305"/>
      <point x="433" y="375"/>
      <point x="433" y="549" type="curve" smooth="yes"/>
      <point x="433" y="722"/>
      <point x="353" y="793"/>
      <point x="229" y="793" type="curve" smooth="yes"/>
      <point x="105" y="793"/>
      <point x="23" y="724"/>
      <point x="23" y="549" type="curve" smooth="yes"/>
      <point x="23" y="376"/>
      <point x="104" y="305"/>
    </contour>
    <contour>
      <point x="262" y="-37" type="line"/>
      <point x="283" y="-57"/>
      <point x="315" y="-71"/>
      <point x="342" y="-73" type="curve"/>
      <point x="774" y="809" type="line"/>
      <point x="753" y="829"/>
      <point x="721" y="843"/>
      <point x="694" y="845" type="curve"/>
    </contour>
    <contour>
      <point x="806" y="48" type="curve" smooth="yes"/>
      <point x="776" y="48"/>
      <point x="752" y="80"/>
      <point x="752" y="230" type="curve" smooth="yes"/>
      <point x="752" y="383"/>
      <point x="777" y="410"/>
      <point x="807" y="410" type="curve" smooth="yes"/>
      <point x="836" y="410"/>
      <point x="861" y="383"/>
      <point x="861" y="232" type="curve" smooth="yes"/>
      <point x="861" y="80"/>
      <point x="836" y="48"/>
    </contour>
    <contour>
      <point x="806" y="-15" type="curve" smooth="yes"/>
      <point x="929" y="-15"/>
      <point x="1011" y="55"/>
      <point x="1011" y="229" type="curve" smooth="yes"/>
      <point x="1011" y="402"/>
      <point x="931" y="474"/>
      <point x="807" y="474" type="curve" smooth="yes"/>
      <point x="684" y="474"/>
      <point x="602" y="404"/>
      <point x="602" y="229" type="curve" smooth="yes"/>
      <point x="602" y="57"/>
      <point x="682" y="-15"/>
    </contour>
  </outline>
</glyph>
<glyph name="ampersand" format="1">
  <advance width="888"/>
  <unicode hex="0026"/>
  <outline>
    <contour>
      <point x="118" y="673" type="curve" name="hr00" smooth="yes"/>
      <point x="118" y="599"/>
      <point x="173" y="519"/>
      <point x="284" y="473" type="curve"/>
      <point x="107" y="437"/>
      <point x="49" y="335"/>
      <point x="49" y="244" type="curve" smooth="yes"/>
      <point x="49" y="103"/>
      <point x="190" y="-15"/>
      <point x="417" y="-15" type="curve" smooth="yes"/>
      <point x="633" y="-15"/>
      <point x="738" y="93"/>
      <point x="738" y="216" type="curve" smooth="yes"/>
      <point x="738" y="299"/>
      <point x="690" y="369"/>
      <point x="614" y="413" type="curve"/>
      <point x="673" y="479"/>
      <point x="754" y="487"/>
      <point x="849" y="487" type="curve"/>
      <point x="854" y="496"/>
      <point x="854" y="509"/>
      <point x="854" y="519" type="curve" smooth="yes"/>
      <point x="854" y="541"/>
      <point x="837" y="590"/>
      <point x="763" y="590" type="curve" smooth="yes"/>
      <point x="629" y="590"/>
      <point x="588" y="430"/>
      <point x="428" y="430" type="curve"/>
      <point x="412" y="411"/>
      <point x="401" y="368"/>
      <point x="404" y="341" type="curve"/>
      <point x="488" y="341"/>
      <point x="548" y="293"/>
      <point x="548" y="210" type="curve" smooth="yes"/>
      <point x="548" y="122"/>
      <point x="480" y="74"/>
      <point x="404" y="74" type="curve" smooth="yes"/>
      <point x="303" y="74"/>
      <point x="251" y="159"/>
      <point x="251" y="253" type="curve" smooth="yes"/>
      <point x="251" y="349"/>
      <point x="306" y="463"/>
      <point x="435" y="463" type="curve"/>
      <point x="434" y="519" type="line"/>
      <point x="365" y="554"/>
      <point x="301" y="617"/>
      <point x="301" y="687" type="curve" smooth="yes"/>
      <point x="301" y="748"/>
      <point x="351" y="792"/>
      <point x="426" y="792" type="curve" smooth="yes"/>
      <point x="469" y="792"/>
      <point x="506" y="778"/>
      <point x="534" y="753" type="curve"/>
      <point x="502" y="742"/>
      <point x="485" y="716"/>
      <point x="485" y="686" type="curve" smooth="yes"/>
      <point x="485" y="645"/>
      <point x="518" y="609"/>
      <point x="569" y="609" type="curve" smooth="yes"/>
      <point x="618" y="609"/>
      <point x="661" y="641"/>
      <point x="661" y="701" type="curve" smooth="yes"/>
      <point x="661" y="786"/>
      <point x="576" y="869"/>
      <point x="404" y="869" type="curve" smooth="yes"/>
      <point x="223" y="869"/>
      <point x="118" y="776"/>
    </contour>
  </outline>
</glyph>
<glyph name="quotesingle" format="1">
  <advance width="674"/>
  <unicode hex="0027"/>
  <outline>
    <contour>
      <point x="484" y="1774" type="line" name="hr00"/>
      <point x="426" y="1796"/>
      <point x="242" y="1793"/>
      <point x="190" y="1775" type="curve"/>
      <point x="235" y="954" type="line"/>
      <point x="293" y="933"/>
      <point x="397" y="928"/>
      <point x="449" y="945" type="curve"/>
    </contour>
  </outline>
</glyph>
<glyph name="parenleft" format="1">
  <advance width="545"/>
  <unicode hex="0028"/>
  <outline>
    <contour>
      <point x="287" y="410" type="curve" name="hr00" smooth="yes"/>
      <point x="287" y="605"/>
      <point x="371" y="824"/>
      <point x="501" y="860" type="curve"/>
      <point x="501" y="904" type="line"/>
      <point x="258" y="896"/>
      <point x="107" y="658"/>
      <point x="107" y="410" type="curve" smooth="yes"/>
      <point x="107" y="163"/>
      <point x="258" y="-75"/>
      <point x="501" y="-83" type="curve"/>
      <point x="501" y="-40" type="line"/>
      <point x="371" y="-3"/>
      <point x="287" y="215"/>
    </contour>
  </outline>
</glyph>
<glyph name="asterisk" format="1">
  <advance width="1493"/>
  <unicode hex="002A"/>
  <outline>
    <contour>
      <point x="727" y="1782" type="line" smooth="yes" name="hr01"/>
      <point x="579" y="1782"/>
      <point x="537" y="1661"/>
      <point x="581" y="1546" type="curve" smooth="yes"/>
      <point x="715" y="1208" type="line"/>
      <point x="815" y="1208" type="line"/>
      <point x="815" y="1782" type="line"/>
    </contour>
    <contour>
      <point x="215" y="1377" type="line" smooth="yes"/>
      <point x="170" y="1236"/>
      <point x="272" y="1158"/>
      <point x="395" y="1165" type="curve" smooth="yes"/>
      <point x="758" y="1187" type="line"/>
      <point x="788" y="1282" type="line"/>
      <point x="243" y="1460" type="line"/>
    </contour>
    <contour>
      <point x="450" y="760" type="line" smooth="yes"/>
      <point x="568" y="671"/>
      <point x="676" y="747"/>
      <point x="707" y="865" type="curve" smooth="yes"/>
      <point x="799" y="1218" type="line"/>
      <point x="717" y="1276" type="line"/>
      <point x="380" y="812" type="line"/>
    </contour>
    <contour>
      <point x="1117" y="806" type="line" smooth="yes"/>
      <point x="1237" y="891"/>
      <point x="1200" y="1017"/>
      <point x="1096" y="1082" type="curve" smooth="yes"/>
      <point x="789" y="1279" type="line" name="hr02"/>
      <point x="709" y="1219" type="line"/>
      <point x="1047" y="756" type="line"/>
    </contour>
    <contour>
      <point x="1264" y="1442" type="line" smooth="yes"/>
      <point x="1220" y="1584"/>
      <point x="1088" y="1586"/>
      <point x="994" y="1509" type="curve" smooth="yes"/>
      <point x="712" y="1277" type="line"/>
      <point x="745" y="1182" type="line"/>
      <point x="1289" y="1360" type="line"/>
    </contour>
  </outline>
</glyph>
<glyph name="plus" format="1">
  <advance width="1252"/>
  <unicode hex="002B"/>
  <outline>
    <contour>
      <point x="180" y="885" type="line" name="hr00"/>
      <point x="160" y="843"/>
      <point x="158" y="737"/>
      <point x="178" y="685" type="curve"/>
      <point x="1074" y="685" type="line"/>
      <point x="1092" y="728"/>
      <point x="1093" y="833"/>
      <point x="1073" y="885" type="curve"/>
    </contour>
    <contour>
      <point x="525" y="340" type="line"/>
      <point x="568" y="320"/>
      <point x="673" y="317"/>
      <point x="725" y="338" type="curve"/>
      <point x="725" y="1233" type="line"/>
      <point x="682" y="1252"/>
      <point x="577" y="1254"/>
      <point x="525" y="1233" type="curve"/>
    </contour>
  </outline>
</glyph>
<glyph name="comma" format="1">
  <advance width="816"/>
  <unicode hex="002C"/>
  <outline>
    <contour>
      <point x="255" y="-490" type="curve" name="hr00"/>
      <point x="449" y="-436"/>
      <point x="645" y="-223"/>
      <point x="645" y="65" type="curve" smooth="yes"/>
      <point x="645" y="283"/>
      <point x="533" y="392"/>
      <point x="386" y="392" type="curve" smooth="yes"/>
      <point x="257" y="392"/>
      <point x="165" y="307"/>
      <point x="165" y="172" type="curve" smooth="yes"/>
      <point x="165" y="58"/>
      <point x="250" y="-50"/>
      <point x="407" y="-31" type="curve"/>
      <point x="423" y="-158"/>
      <point x="331" y="-303"/>
      <point x="184" y="-385" type="curve"/>
      <point x="184" y="-432"/>
      <point x="219" y="-479"/>
    </contour>
  </outline>
</glyph>
<glyph name="hyphen" format="1">
  <advance width="1137"/>
  <unicode hex="002D"/>
  <outline>
    <contour>
      <point x="176" y="794" type="line" name="hr00"/>
      <point x="157" y="752"/>
      <point x="155" y="644"/>
      <point x="175" y="593" type="curve"/>
      <point x="963" y="593" type="line"/>
      <point x="981" y="635"/>
      <point x="982" y="743"/>
      <point x="962" y="794" type="curve"/>
    </contour>
  </outline>
</glyph>
<glyph name="period" format="1">
  <advance width="393"/>
  <unicode hex="002E"/>
  <outline>
    <contour>
      <point x="306" y="93" type="curve" name="hr00" smooth="yes"/>
      <point x="306" y="158"/>
      <point x="263" y="200"/>
      <point x="196" y="200" type="curve" smooth="yes"/>
      <point x="130" y="200"/>
      <point x="87" y="158"/>
      <point x="87" y="93" type="curve" smooth="yes"/>
      <point x="87" y="28"/>
      <point x="130" y="-15"/>
      <point x="196" y="-15" type="curve" smooth="yes"/>
      <point x="263" y="-15"/>
      <point x="306" y="28"/>
    </contour>
  </outline>
</glyph>
<glyph name="slash" format="1">
  <advance width="1343"/>
  <unicode hex="002F"/>
  <outline>
    <contour>
      <point x="240" y="-187" type="line" name="hr00"/>
      <point x="284" y="-227"/>
      <point x="381" y="-258"/>
      <point x="437" y="-261" type="curve"/>
      <point x="1103" y="1795" type="line"/>
      <point x="1059" y="1836"/>
      <point x="962" y="1867"/>
      <point x="906" y="1870" type="curve"/>
    </contour>
  </outline>
</glyph>
<glyph name="zero" format="1">
  <advance width="1473"/>
  <unicode hex="0030"/>
  <outline>
    <contour>
      <point x="735" y="128" type="curve" smooth="yes" name="hr00"/>
      <point x="606" y="128"/>
      <point x="503" y="245"/>
      <point x="503" y="772" type="curve" smooth="yes"/>
      <point x="503" y="1322"/>
      <point x="609" y="1424"/>
      <point x="738" y="1424" type="curve" smooth="yes"/>
      <point x="867" y="1424"/>
      <point x="970" y="1322"/>
      <point x="970" y="779" type="curve" smooth="yes"/>
      <point x="970" y="245"/>
      <point x="864" y="128"/>
    </contour>
    <contour>
      <point x="735" y="-27" type="curve" smooth="yes"/>
      <point x="1118" y="-27"/>
      <point x="1373" y="203"/>
      <point x="1373" y="775" type="curve" smooth="yes"/>
      <point x="1373" y="1343"/>
      <point x="1125" y="1579"/>
      <point x="738" y="1579" type="curve" smooth="yes"/>
      <point x="355" y="1579"/>
      <point x="100" y="1348"/>
      <point x="100" y="776" type="curve" smooth="yes"/>
      <point x="100" y="209"/>
      <point x="348" y="-27"/>
    </contour>
  </outline>
</glyph>
<glyph name="one" format="1">
  <advance width="476"/>
  <unicode hex="0031"/>
  <outline>
    <contour>
      <point x="346" y="712" type="line" name="hr00" smooth="yes"/>
      <point x="346" y="737"/>
      <point x="329" y="771"/>
      <point x="282" y="771" type="curve" smooth="yes"/>
      <point x="263" y="771"/>
      <point x="238" y="765"/>
      <point x="189" y="737" type="curve" smooth="yes"/>
      <point x="20" y="638" type="line"/>
      <point x="49" y="584" type="line"/>
      <point x="69" y="593"/>
      <point x="97" y="598"/>
      <point x="118" y="598" type="curve" smooth="yes"/>
      <point x="151" y="598"/>
      <point x="166" y="585"/>
      <point x="166" y="563" type="curve" smooth="yes"/>
      <point x="166" y="168" type="line" smooth="yes"/>
      <point x="166" y="91"/>
      <point x="119" y="60"/>
      <point x="48" y="60" type="curve"/>
      <point x="48" y="38"/>
      <point x="57" y="15"/>
      <point x="73" y="0" type="curve"/>
      <point x="434" y="0" type="line"/>
      <point x="450" y="15"/>
      <point x="459" y="38"/>
      <point x="459" y="60" type="curve"/>
      <point x="384" y="60"/>
      <point x="346" y="91"/>
      <point x="346" y="167" type="curve" smooth="yes"/>
    </contour>
  </outline>
</glyph>
<glyph name="two" format="1">
  <advance width="1304"/>
  <unicode hex="0032"/>
  <outline>
    <contour>
      <point x="125" y="-27" type="line" name="hr01"/>
      <point x="250" y="70" type="line"/>
      <point x="317" y="519"/>
      <point x="1155" y="575"/>
      <point x="1155" y="1133" type="curve" smooth="yes"/>
      <point x="1155" y="1435"/>
      <point x="910" y="1579"/>
      <point x="606" y="1579" type="curve" smooth="yes"/>
      <point x="267" y="1579"/>
      <point x="53" y="1399"/>
      <point x="53" y="1197" type="curve" smooth="yes"/>
      <point x="53" y="1061"/>
      <point x="149" y="983"/>
      <point x="257" y="983" type="curve" smooth="yes"/>
      <point x="358" y="983"/>
      <point x="455" y="1051"/>
      <point x="455" y="1154" type="curve" smooth="yes"/>
      <point x="455" y="1225"/>
      <point x="409" y="1298"/>
      <point x="335" y="1320" type="curve"/>
      <point x="383" y="1386"/>
      <point x="450" y="1424"/>
      <point x="537" y="1424" type="curve" smooth="yes"/>
      <point x="659" y="1424"/>
      <point x="758" y="1350"/>
      <point x="758" y="1171" type="curve" smooth="yes"/>
      <point x="758" y="729"/>
      <point x="153" y="551"/>
      <point x="54" y="27" type="curve"/>
    </contour>
    <contour>
      <point x="126" y="-27" type="line"/>
      <point x="207" y="6"/>
      <point x="303" y="20"/>
      <point x="401" y="20" type="curve" smooth="yes"/>
      <point x="578" y="20"/>
      <point x="674" y="-26"/>
      <point x="828" y="-26" type="curve" smooth="yes" name="hr02"/>
      <point x="1125" y="-26"/>
      <point x="1213" y="145"/>
      <point x="1213" y="284" type="curve" smooth="yes"/>
      <point x="1213" y="371"/>
      <point x="1178" y="454"/>
      <point x="1133" y="494" type="curve"/>
      <point x="1080" y="494" type="line"/>
      <point x="1047" y="374"/>
      <point x="925" y="306"/>
      <point x="780" y="306" type="curve" smooth="yes" name="hr03"/>
      <point x="629" y="306" type="line" smooth="yes"/>
      <point x="502" y="306"/>
      <point x="389" y="277"/>
      <point x="269" y="216" type="curve"/>
    </contour>
  </outline>
</glyph>
<glyph name="three" format="1">
  <advance width="673"/>
  <unicode hex="0033"/>
  <outline>
    <contour>
      <point x="575" y="598" type="curve" name="hr00" smooth="yes"/>
      <point x="575" y="707"/>
      <point x="466" y="771"/>
      <point x="317" y="771" type="curve" smooth="yes"/>
      <point x="176" y="771"/>
      <point x="62" y="714"/>
      <point x="62" y="616" type="curve" smooth="yes"/>
      <point x="62" y="565"/>
      <point x="92" y="528"/>
      <point x="146" y="528" type="curve" smooth="yes"/>
      <point x="200" y="528"/>
      <point x="227" y="564"/>
      <point x="227" y="596" type="curve" smooth="yes"/>
      <point x="227" y="624"/>
      <point x="207" y="648"/>
      <point x="188" y="656" type="curve"/>
      <point x="210" y="683"/>
      <point x="243" y="695"/>
      <point x="278" y="695" type="curve" smooth="yes"/>
      <point x="345" y="695"/>
      <point x="382" y="651"/>
      <point x="382" y="580" type="curve" smooth="yes"/>
      <point x="382" y="513"/>
      <point x="351" y="435"/>
      <point x="213" y="398" type="curve"/>
      <point x="316" y="366" type="line"/>
      <point x="460" y="405"/>
      <point x="575" y="487"/>
    </contour>
    <contour>
      <point x="629" y="212" type="curve" smooth="yes"/>
      <point x="629" y="325"/>
      <point x="533" y="405"/>
      <point x="396" y="414" type="curve"/>
      <point x="213" y="398" type="line"/>
      <point x="233" y="344" type="line"/>
      <point x="279" y="344" type="line" smooth="yes"/>
      <point x="374" y="344"/>
      <point x="431" y="281"/>
      <point x="431" y="206" type="curve" smooth="yes"/>
      <point x="431" y="130"/>
      <point x="372" y="81"/>
      <point x="288" y="81" type="curve" smooth="yes"/>
      <point x="245" y="81"/>
      <point x="202" y="94"/>
      <point x="186" y="109" type="curve"/>
      <point x="207" y="128"/>
      <point x="214" y="149"/>
      <point x="214" y="168" type="curve" smooth="yes"/>
      <point x="214" y="207"/>
      <point x="182" y="238"/>
      <point x="134" y="238" type="curve" smooth="yes"/>
      <point x="85" y="238"/>
      <point x="47" y="208"/>
      <point x="47" y="148" type="curve" smooth="yes"/>
      <point x="47" y="46"/>
      <point x="157" y="-15"/>
      <point x="308" y="-15" type="curve" smooth="yes"/>
      <point x="495" y="-15"/>
      <point x="629" y="78"/>
    </contour>
  </outline>
</glyph>
<glyph name="four" format="1">
  <advance width="726"/>
  <unicode hex="0034"/>
  <outline>
    <contour>
      <point x="649" y="378" type="line" name="hr00"/>
      <point x="631" y="327"/>
      <point x="590" y="297"/>
      <point x="532" y="297" type="curve" smooth="yes"/>
      <point x="173" y="297" type="line"/>
      <point x="416" y="695" type="line"/>
      <point x="477" y="771" type="line"/>
      <point x="371" y="771" type="line"/>
      <point x="21" y="260" type="line"/>
      <point x="49" y="208" type="line"/>
      <point x="504" y="208" type="line" smooth="yes"/>
      <point x="669" y="208"/>
      <point x="718" y="251"/>
      <point x="718" y="312" type="curve" smooth="yes"/>
      <point x="718" y="343"/>
      <point x="699" y="370"/>
      <point x="675" y="378" type="curve"/>
    </contour>
    <contour>
      <point x="353" y="123" type="line" smooth="yes"/>
      <point x="353" y="78"/>
      <point x="304" y="63"/>
      <point x="234" y="63" type="curve"/>
      <point x="234" y="42"/>
      <point x="243" y="15"/>
      <point x="260" y="0" type="curve"/>
      <point x="620" y="0" type="line"/>
      <point x="636" y="15"/>
      <point x="646" y="42"/>
      <point x="646" y="63" type="curve"/>
      <point x="570" y="63"/>
      <point x="532" y="77"/>
      <point x="532" y="123" type="curve" smooth="yes"/>
      <point x="532" y="771" type="line"/>
      <point x="477" y="771" type="line"/>
      <point x="353" y="688" type="line"/>
    </contour>
  </outline>
</glyph>
<glyph name="five" format="1">
  <advance width="1327"/>
  <unicode hex="0035"/>
  <outline>
    <contour>
      <point x="312" y="162" type="line" name="hr00"/>
      <point x="418" y="207"/>
      <point x="455" y="256"/>
      <point x="455" y="322" type="curve" smooth="yes"/>
      <point x="455" y="417"/>
      <point x="378" y="488"/>
      <point x="278" y="488" type="curve" smooth="yes"/>
      <point x="174" y="488"/>
      <point x="87" y="412"/>
      <point x="87" y="290" type="curve" smooth="yes"/>
      <point x="87" y="102"/>
      <point x="292" y="-31"/>
      <point x="606" y="-31" type="curve" smooth="yes"/>
      <point x="1026" y="-31"/>
      <point x="1249" y="206"/>
      <point x="1249" y="480" type="curve" smooth="yes"/>
      <point x="1249" y="751"/>
      <point x="1030" y="936"/>
      <point x="705" y="936" type="curve" smooth="yes"/>
      <point x="550" y="936"/>
      <point x="440" y="894"/>
      <point x="363" y="850" type="curve"/>
      <point x="414" y="775" type="line"/>
      <point x="484" y="1434" type="line"/>
      <point x="222" y="1299" type="line"/>
      <point x="247" y="1282"/>
      <point x="413" y="1355"/>
      <point x="443" y="1355" type="curve" smooth="yes"/>
      <point x="626" y="1355"/>
      <point x="671" y="1218"/>
      <point x="882" y="1218" type="curve" smooth="yes"/>
      <point x="1067" y="1218"/>
      <point x="1178" y="1324"/>
      <point x="1178" y="1460" type="curve" smooth="yes"/>
      <point x="1178" y="1528"/>
      <point x="1150" y="1590"/>
      <point x="1112" y="1619" type="curve"/>
      <point x="1059" y="1619" type="line"/>
      <point x="989" y="1573"/>
      <point x="884" y="1551"/>
      <point x="719" y="1551" type="curve" smooth="yes"/>
      <point x="209" y="1551" type="line"/>
      <point x="179" y="790" type="line"/>
      <point x="266" y="690" type="line"/>
      <point x="333" y="720"/>
      <point x="435" y="739"/>
      <point x="517" y="739" type="curve" smooth="yes"/>
      <point x="703" y="739"/>
      <point x="844" y="640"/>
      <point x="844" y="450" type="curve" smooth="yes"/>
      <point x="844" y="279"/>
      <point x="729" y="155"/>
      <point x="526" y="155" type="curve" smooth="yes"/>
      <point x="437" y="155"/>
      <point x="361" y="179"/>
      <point x="340" y="200" type="curve"/>
    </contour>
  </outline>
</glyph>
<glyph name="six" format="1">
  <advance width="1399"/>
  <unicode hex="0036"/>
  <outline>
    <contour>
      <point x="795" y="1423" type="curve" smooth="yes" name="hr00"/>
      <point x="865" y="1423"/>
      <point x="929" y="1397"/>
      <point x="967" y="1354" type="curve"/>
      <point x="912" y="1326"/>
      <point x="881" y="1267"/>
      <point x="884" y="1207" type="curve" smooth="yes"/>
      <point x="888" y="1118"/>
      <point x="964" y="1051"/>
      <point x="1067" y="1051" type="curve" smooth="yes"/>
      <point x="1186" y="1051"/>
      <point x="1255" y="1142"/>
      <point x="1252" y="1257" type="curve" smooth="yes"/>
      <point x="1248" y="1454"/>
      <point x="1042" y="1579"/>
      <point x="784" y="1579" type="curve" smooth="yes"/>
      <point x="405" y="1579"/>
      <point x="94" y="1310"/>
      <point x="100" y="731" type="curve" smooth="yes"/>
      <point x="106" y="213"/>
      <point x="359" y="-31"/>
      <point x="721" y="-31" type="curve" smooth="yes"/>
      <point x="1081" y="-31"/>
      <point x="1305" y="210"/>
      <point x="1305" y="504" type="curve" smooth="yes"/>
      <point x="1305" y="787"/>
      <point x="1099" y="963"/>
      <point x="824" y="963" type="curve" smooth="yes"/>
      <point x="566" y="963"/>
      <point x="385" y="809"/>
      <point x="369" y="578" type="curve"/>
      <point x="464" y="541" type="line"/>
      <point x="464" y="697"/>
      <point x="571" y="781"/>
      <point x="708" y="781" type="curve" smooth="yes"/>
      <point x="837" y="781"/>
      <point x="930" y="707"/>
      <point x="930" y="469" type="curve" smooth="yes"/>
      <point x="930" y="236"/>
      <point x="841" y="136"/>
      <point x="727" y="136" type="curve" smooth="yes"/>
      <point x="589" y="136"/>
      <point x="456" y="283"/>
      <point x="499" y="733" type="curve"/>
      <point x="495" y="823" type="line"/>
      <point x="484" y="1267"/>
      <point x="625" y="1423"/>
    </contour>
  </outline>
</glyph>
<glyph name="seven" format="1">
  <advance width="629"/>
  <unicode hex="0037"/>
  <outline>
    <contour>
      <point x="584" y="771" type="line" name="hr01"/>
      <point x="544" y="742"/>
      <point x="490" y="731"/>
      <point x="440" y="731" type="curve" smooth="yes"/>
      <point x="345" y="731"/>
      <point x="278" y="771"/>
      <point x="177" y="771" type="curve" name="hr02" smooth="yes"/>
      <point x="60" y="771"/>
      <point x="15" y="717"/>
      <point x="15" y="645" type="curve" smooth="yes"/>
      <point x="15" y="589"/>
      <point x="42" y="551"/>
      <point x="70" y="530" type="curve"/>
      <point x="101" y="530" type="line"/>
      <point x="128" y="577"/>
      <point x="177" y="605"/>
      <point x="252" y="605" type="curve" smooth="yes"/>
      <point x="298" y="605" type="line" smooth="yes"/>
      <point x="399" y="605"/>
      <point x="473" y="624"/>
      <point x="523" y="652" type="curve"/>
    </contour>
    <contour>
      <point x="187" y="0" type="curve"/>
      <point x="211" y="-17"/>
      <point x="255" y="-20"/>
      <point x="285" y="-20" type="curve" smooth="yes"/>
      <point x="396" y="-20"/>
      <point x="401" y="28"/>
      <point x="404" y="65" type="curve" smooth="yes"/>
      <point x="419" y="257"/>
      <point x="404" y="441"/>
      <point x="623" y="718" type="curve"/>
      <point x="584" y="771" type="line"/>
      <point x="554" y="727" type="line"/>
      <point x="311" y="454"/>
      <point x="217" y="242"/>
    </contour>
  </outline>
</glyph>
<glyph name="eight" format="1">
  <advance width="673"/>
  <unicode hex="0038"/>
  <outline>
    <contour>
      <point x="438" y="453" type="line" name="hr00"/>
      <point x="297" y="510"/>
      <point x="262" y="558"/>
      <point x="262" y="607" type="curve" smooth="yes"/>
      <point x="262" y="660"/>
      <point x="301" y="695"/>
      <point x="362" y="695" type="curve" smooth="yes"/>
      <point x="432" y="695"/>
      <point x="463" y="649"/>
      <point x="463" y="596" type="curve" smooth="yes"/>
      <point x="463" y="538"/>
      <point x="426" y="490"/>
      <point x="357" y="453" type="curve"/>
      <point x="303" y="404" type="line"/>
      <point x="168" y="393"/>
      <point x="64" y="302"/>
      <point x="64" y="188" type="curve" smooth="yes"/>
      <point x="64" y="86"/>
      <point x="148" y="-15"/>
      <point x="335" y="-15" type="curve" smooth="yes"/>
      <point x="521" y="-15"/>
      <point x="634" y="84"/>
      <point x="634" y="212" type="curve" smooth="yes"/>
      <point x="634" y="303"/>
      <point x="577" y="378"/>
      <point x="458" y="442" type="curve"/>
    </contour>
    <contour>
      <point x="586" y="601" type="curve" smooth="yes"/>
      <point x="586" y="680"/>
      <point x="524" y="771"/>
      <point x="354" y="771" type="curve" smooth="yes"/>
      <point x="183" y="771"/>
      <point x="90" y="680"/>
      <point x="90" y="566" type="curve" smooth="yes"/>
      <point x="90" y="481"/>
      <point x="143" y="423"/>
      <point x="212" y="374" type="curve"/>
      <point x="232" y="349" type="line"/>
      <point x="401" y="294"/>
      <point x="450" y="240"/>
      <point x="450" y="174" type="curve" smooth="yes"/>
      <point x="450" y="113"/>
      <point x="407" y="65"/>
      <point x="335" y="65" type="curve" smooth="yes"/>
      <point x="252" y="65"/>
      <point x="201" y="128"/>
      <point x="201" y="203" type="curve" smooth="yes"/>
      <point x="201" y="277"/>
      <point x="250" y="337"/>
      <point x="336" y="354" type="curve"/>
      <point x="397" y="404" type="line"/>
      <point x="503" y="437"/>
      <point x="586" y="509"/>
    </contour>
  </outline>
</glyph>
<glyph name="nine" format="1">
  <advance width="664"/>
  <unicode hex="0039"/>
  <outline>
    <contour>
      <point x="281" y="68" type="curve" name="hr00" smooth="yes"/>
      <point x="245" y="68"/>
      <point x="219" y="79"/>
      <point x="197" y="106" type="curve"/>
      <point x="232" y="119"/>
      <point x="245" y="145"/>
      <point x="245" y="173" type="curve" smooth="yes"/>
      <point x="245" y="225"/>
      <point x="204" y="250"/>
      <point x="159" y="250" type="curve" smooth="yes"/>
      <point x="102" y="250"/>
      <point x="64" y="208"/>
      <point x="65" y="149" type="curve" smooth="yes"/>
      <point x="67" y="52"/>
      <point x="172" y="-15"/>
      <point x="301" y="-15" type="curve" smooth="yes"/>
      <point x="480" y="-15"/>
      <point x="627" y="121"/>
      <point x="621" y="406" type="curve" smooth="yes"/>
      <point x="615" y="659"/>
      <point x="495" y="771"/>
      <point x="312" y="771" type="curve" smooth="yes"/>
      <point x="130" y="771"/>
      <point x="33" y="655"/>
      <point x="33" y="514" type="curve" smooth="yes"/>
      <point x="33" y="371"/>
      <point x="133" y="288"/>
      <point x="271" y="288" type="curve" smooth="yes"/>
      <point x="393" y="288"/>
      <point x="483" y="353"/>
      <point x="490" y="446" type="curve"/>
      <point x="443" y="464" type="line"/>
      <point x="443" y="407"/>
      <point x="393" y="376"/>
      <point x="335" y="376" type="curve" smooth="yes"/>
      <point x="265" y="376"/>
      <point x="211" y="422"/>
      <point x="211" y="535" type="curve" smooth="yes"/>
      <point x="211" y="656"/>
      <point x="273" y="691"/>
      <point x="322" y="691" type="curve" smooth="yes"/>
      <point x="382" y="691"/>
      <point x="445" y="639"/>
      <point x="427" y="371" type="curve"/>
      <point x="428" y="327" type="line"/>
      <point x="432" y="135"/>
      <point x="372" y="68"/>
    </contour>
  </outline>
</glyph>
<glyph name="greater" format="1">
  <advance width="578"/>
  <unicode hex="003E"/>
  <outline>
    <contour>
      <point x="494" y="410" type="line" name="hr00"/>
      <point x="181" y="679" type="line"/>
      <point x="156" y="670"/>
      <point x="119" y="628"/>
      <point x="109" y="604" type="curve"/>
      <point x="366" y="388" type="line"/>
      <point x="109" y="171" type="line"/>
      <point x="119" y="147"/>
      <point x="156" y="105"/>
      <point x="181" y="96" type="curve"/>
      <point x="494" y="366" type="line"/>
    </contour>
  </outline>
</glyph>
<glyph name="question" format="1">
  <advance width="1192"/>
  <unicode hex="003F"/>
  <outline>
    <contour>
      <point x="825" y="180" type="curve" smooth="yes" name="hr00"/>
      <point x="825" y="313"/>
      <point x="737" y="400"/>
      <point x="601" y="400" type="curve" smooth="yes"/>
      <point x="465" y="400"/>
      <point x="377" y="313"/>
      <point x="377" y="180" type="curve" smooth="yes"/>
      <point x="377" y="47"/>
      <point x="465" y="-41"/>
      <point x="601" y="-41" type="curve" smooth="yes"/>
      <point x="737" y="-41"/>
      <point x="825" y="47"/>
    </contour>
    <contour>
      <point x="615" y="1731" type="curve" smooth="yes"/>
      <point x="266" y="1731"/>
      <point x="52" y="1534"/>
      <point x="52" y="1320" type="curve" smooth="yes"/>
      <point x="52" y="1159"/>
      <point x="173" y="1077"/>
      <point x="279" y="1077" type="curve" smooth="yes"/>
      <point x="381" y="1077"/>
      <point x="478" y="1153"/>
      <point x="478" y="1261" type="curve" smooth="yes"/>
      <point x="478" y="1357"/>
      <point x="401" y="1420"/>
      <point x="328" y="1446" type="curve"/>
      <point x="373" y="1519"/>
      <point x="455" y="1561"/>
      <point x="546" y="1561" type="curve" smooth="yes"/>
      <point x="660" y="1561"/>
      <point x="749" y="1494"/>
      <point x="749" y="1331" type="curve" smooth="yes"/>
      <point x="749" y="1126"/>
      <point x="607" y="977"/>
      <point x="423" y="864" type="curve"/>
      <point x="482" y="580" type="line"/>
      <point x="695" y="580" type="line"/>
      <point x="654" y="813" type="line"/>
      <point x="927" y="913"/>
      <point x="1144" y="1086"/>
      <point x="1144" y="1327" type="curve" smooth="yes"/>
      <point x="1144" y="1565"/>
      <point x="936" y="1731"/>
    </contour>
  </outline>
</glyph>
<glyph name="at" format="1">
  <advance width="2052"/>
  <unicode hex="0040"/>
  <outline>
    <contour>
      <point x="1249" y="980" type="line" name="hr01"/>
      <point x="1180" y="1030"/>
      <point x="1082" y="1057"/>
      <point x="987" y="1057" type="curve" smooth="yes"/>
      <point x="704" y="1057"/>
      <point x="515" y="818"/>
      <point x="515" y="512" type="curve" smooth="yes"/>
      <point x="515" y="287"/>
      <point x="617" y="130"/>
      <point x="837" y="130" type="curve" smooth="yes" name="hr02"/>
      <point x="1008" y="130"/>
      <point x="1149" y="224"/>
      <point x="1201" y="294" type="curve"/>
    </contour>
    <contour>
      <point x="1124" y="376" type="line"/>
      <point x="1103" y="340"/>
      <point x="1064" y="310"/>
      <point x="1006" y="310" type="curve" smooth="yes"/>
      <point x="922" y="310"/>
      <point x="881" y="373"/>
      <point x="881" y="519" type="curve" smooth="yes"/>
      <point x="881" y="743"/>
      <point x="977" y="873"/>
      <point x="1082" y="873" type="curve" smooth="yes"/>
      <point x="1119" y="873"/>
      <point x="1167" y="857"/>
      <point x="1193" y="836" type="curve"/>
    </contour>
    <contour>
      <point x="1532" y="1030" type="line"/>
      <point x="1383" y="1030" type="line" smooth="yes"/>
      <point x="1323" y="1030"/>
      <point x="1219" y="1003"/>
      <point x="1183" y="953" type="curve"/>
      <point x="1086" y="270" type="line"/>
      <point x="1183" y="165"/>
      <point x="1284" y="119"/>
      <point x="1434" y="119" type="curve" smooth="yes" name="hr03"/>
      <point x="1812" y="119"/>
      <point x="1984" y="413"/>
      <point x="1984" y="776" type="curve" smooth="yes"/>
      <point x="1984" y="1284"/>
      <point x="1646" y="1586"/>
      <point x="1165" y="1586" type="curve" smooth="yes"/>
      <point x="564" y="1586"/>
      <point x="76" y="1114"/>
      <point x="76" y="489" type="curve" smooth="yes"/>
      <point x="76" y="-58"/>
      <point x="450" y="-358"/>
      <point x="942" y="-358" type="curve" smooth="yes"/>
      <point x="1183" y="-358"/>
      <point x="1383" y="-286"/>
      <point x="1496" y="-209" type="curve" smooth="yes"/>
      <point x="1515" y="-196"/>
      <point x="1522" y="-154"/>
      <point x="1496" y="-112" type="curve" smooth="yes"/>
      <point x="1473" y="-75" type="line"/>
      <point x="1377" y="-129"/>
      <point x="1215" y="-173"/>
      <point x="1015" y="-173" type="curve" smooth="yes"/>
      <point x="557" y="-173"/>
      <point x="292" y="59"/>
      <point x="292" y="500" type="curve" smooth="yes"/>
      <point x="292" y="1035"/>
      <point x="682" y="1401"/>
      <point x="1148" y="1401" type="curve" smooth="yes"/>
      <point x="1484" y="1401"/>
      <point x="1778" y="1210"/>
      <point x="1778" y="776" type="curve" smooth="yes"/>
      <point x="1778" y="518"/>
      <point x="1668" y="304"/>
      <point x="1525" y="304" type="curve" smooth="yes"/>
      <point x="1450" y="304"/>
      <point x="1424" y="361"/>
      <point x="1445" y="492" type="curve" smooth="yes"/>
    </contour>
  </outline>
</glyph>
<glyph name="A" format="1">
  <advance width="1536"/>
  <unicode hex="0041"/>
  <outline>
    <contour>
      <point x="318" y="574" type="line" name="hr00"/>
      <point x="310" y="401" type="line"/>
      <point x="1045" y="401" type="line"/>
      <point x="987" y="574" type="line"/>
    </contour>
    <contour>
      <point x="749" y="1384" type="line"/>
      <point x="562" y="1426" type="line"/>
      <point x="167" y="287" type="line" smooth="yes"/>
      <point x="133" y="189"/>
      <point x="58" y="142"/>
      <point x="-22" y="142" type="curve"/>
      <point x="-22" y="90"/>
      <point x="-3" y="37"/>
      <point x="29" y="1" type="curve"/>
      <point x="524" y="1" type="line"/>
      <point x="557" y="37"/>
      <point x="575" y="90"/>
      <point x="575" y="142" type="curve"/>
      <point x="455" y="142"/>
      <point x="403" y="207"/>
      <point x="453" y="353" type="curve" smooth="yes"/>
    </contour>
    <contour>
      <point x="971" y="1552" type="line"/>
      <point x="341" y="1552" type="line"/>
      <point x="309" y="1510"/>
      <point x="290" y="1451"/>
      <point x="290" y="1392" type="curve"/>
      <point x="546" y="1392"/>
      <point x="699" y="1314"/>
      <point x="752" y="1125" type="curve" smooth="yes"/>
      <point x="970" y="353" type="line" smooth="yes"/>
      <point x="1015" y="202"/>
      <point x="975" y="142"/>
      <point x="868" y="142" type="curve"/>
      <point x="868" y="90"/>
      <point x="886" y="37"/>
      <point x="919" y="1" type="curve"/>
      <point x="1523" y="1" type="line"/>
      <point x="1555" y="37"/>
      <point x="1574" y="90"/>
      <point x="1574" y="142" type="curve"/>
      <point x="1497" y="142"/>
      <point x="1415" y="189"/>
      <point x="1384" y="287" type="curve" smooth="yes"/>
    </contour>
    <contour>
      <point x="708" y="1050" type="move" name="top"/>
    </contour>
    <contour>
      <point x="735" y="-300" type="move" name="btm"/>
    </contour>
  </outline>
</glyph>
<glyph name="B" format="1">
  <advance width="705"/>
  <unicode hex="0042"/>
  <outline>
    <contour>
      <point x="286" y="346" type="line" name="hr00"/>
      <point x="295" y="347"/>
      <point x="311" y="347"/>
      <point x="322" y="347" type="curve" smooth="yes"/>
      <point x="438" y="347"/>
      <point x="484" y="298"/>
      <point x="484" y="215" type="curve" smooth="yes"/>
      <point x="484" y="129"/>
      <point x="435" y="83"/>
      <point x="333" y="83" type="curve" smooth="yes"/>
      <point x="314" y="83"/>
      <point x="296" y="85"/>
      <point x="286" y="87" type="curve"/>
    </contour>
    <contour>
      <point x="465" y="556" type="curve" smooth="yes"/>
      <point x="465" y="478"/>
      <point x="424" y="428"/>
      <point x="319" y="428" type="curve" smooth="yes"/>
      <point x="309" y="428"/>
      <point x="296" y="428"/>
      <point x="286" y="430" type="curve"/>
      <point x="286" y="680" type="line"/>
      <point x="297" y="683"/>
      <point x="315" y="684"/>
      <point x="330" y="684" type="curve" smooth="yes"/>
      <point x="424" y="684"/>
      <point x="465" y="634"/>
    </contour>
    <contour>
      <point x="296" y="770" type="curve" smooth="yes"/>
      <point x="230" y="770"/>
      <point x="141" y="766"/>
      <point x="64" y="758" type="curve"/>
      <point x="49" y="739"/>
      <point x="40" y="714"/>
      <point x="40" y="689" type="curve"/>
      <point x="88" y="689"/>
      <point x="107" y="674"/>
      <point x="107" y="634" type="curve" smooth="yes"/>
      <point x="107" y="137" type="line" smooth="yes"/>
      <point x="107" y="97"/>
      <point x="88" y="82"/>
      <point x="40" y="82" type="curve"/>
      <point x="40" y="56"/>
      <point x="49" y="31"/>
      <point x="64" y="13" type="curve"/>
      <point x="140" y="4"/>
      <point x="226" y="0"/>
      <point x="294" y="0" type="curve" smooth="yes"/>
      <point x="615" y="0"/>
      <point x="677" y="99"/>
      <point x="677" y="210" type="curve" smooth="yes"/>
      <point x="677" y="311"/>
      <point x="627" y="375"/>
      <point x="503" y="402" type="curve"/>
      <point x="603" y="442"/>
      <point x="636" y="498"/>
      <point x="636" y="580" type="curve" smooth="yes"/>
      <point x="636" y="665"/>
      <point x="594" y="770"/>
    </contour>
    <contour>
      <point x="358" y="-146" type="move" name="btm"/>
    </contour>
    <contour>
      <point x="312" y="513" type="move" name="top"/>
    </contour>
  </outline>
</glyph>
<glyph name="C" format="1">
  <advance width="630"/>
  <unicode hex="0043"/>
  <outline>
    <contour>
      <point x="601" y="525" type="line" name="hr00"/>
      <point x="601" y="591"/>
      <point x="597" y="702"/>
      <point x="570" y="771" type="curve"/>
      <point x="546" y="770"/>
      <point x="495" y="758"/>
      <point x="473" y="747" type="curve"/>
      <point x="442" y="762"/>
      <point x="406" y="771"/>
      <point x="359" y="771" type="curve" smooth="yes"/>
      <point x="179" y="771"/>
      <point x="29" y="650"/>
      <point x="29" y="380" type="curve" smooth="yes"/>
      <point x="29" y="123"/>
      <point x="173" y="-13"/>
      <point x="372" y="-13" type="curve" smooth="yes"/>
      <point x="519" y="-13"/>
      <point x="599" y="61"/>
      <point x="599" y="113" type="curve" smooth="yes"/>
      <point x="599" y="133"/>
      <point x="587" y="165"/>
      <point x="570" y="177" type="curve"/>
      <point x="551" y="149"/>
      <point x="502" y="120"/>
      <point x="436" y="120" type="curve" smooth="yes"/>
      <point x="319" y="120"/>
      <point x="209" y="208"/>
      <point x="209" y="432" type="curve" smooth="yes"/>
      <point x="209" y="614"/>
      <point x="283" y="677"/>
      <point x="363" y="677" type="curve" smooth="yes"/>
      <point x="436" y="677"/>
      <point x="488" y="620"/>
      <point x="500" y="525" type="curve"/>
    </contour>
    <contour>
      <point x="370" y="-146" type="move" name="btm"/>
    </contour>
    <contour>
      <point x="354" y="513" type="move" name="top"/>
    </contour>
  </outline>
</glyph>
<glyph name="D" format="1">
  <advance width="1482"/>
  <unicode hex="0044"/>
  <outline>
    <contour>
      <point x="1053" y="774" type="curve" smooth="yes" name="hr00"/>
      <point x="1053" y="352"/>
      <point x="897" y="182"/>
      <point x="657" y="182" type="curve" smooth="yes"/>
      <point x="633" y="182"/>
      <point x="607" y="183"/>
      <point x="585" y="188" type="curve"/>
      <point x="585" y="1394" type="line"/>
      <point x="601" y="1399"/>
      <point x="619" y="1400"/>
      <point x="637" y="1400" type="curve" smooth="yes"/>
      <point x="889" y="1400"/>
      <point x="1053" y="1206"/>
    </contour>
    <contour>
      <point x="220" y="280" type="line" smooth="yes"/>
      <point x="220" y="198"/>
      <point x="181" y="167"/>
      <point x="82" y="167" type="curve"/>
      <point x="82" y="115"/>
      <point x="100" y="64"/>
      <point x="131" y="26" type="curve"/>
      <point x="295" y="9"/>
      <point x="429" y="1"/>
      <point x="540" y="1" type="curve" smooth="yes"/>
      <point x="1242" y="1"/>
      <point x="1450" y="333"/>
      <point x="1450" y="807" type="curve" smooth="yes"/>
      <point x="1450" y="1249"/>
      <point x="1265" y="1578"/>
      <point x="614" y="1578" type="curve" smooth="yes"/>
      <point x="503" y="1578"/>
      <point x="304" y="1570"/>
      <point x="131" y="1552" type="curve"/>
      <point x="100" y="1514"/>
      <point x="82" y="1463"/>
      <point x="82" y="1411" type="curve"/>
      <point x="181" y="1411"/>
      <point x="220" y="1380"/>
      <point x="220" y="1298" type="curve" smooth="yes"/>
    </contour>
    <contour>
      <point x="639" y="1050" type="move" name="top"/>
    </contour>
    <contour>
      <point x="662" y="-300" type="move" name="btm"/>
    </contour>
  </outline>
</glyph>
<glyph name="E" format="1">
  <advance width="673"/>
  <unicode hex="0045"/>
  <outline>
    <contour>
      <point x="286" y="372" type="line" name="hr01"/>
      <point x="221" y="340" type="line"/>
      <point x="386" y="340" type="line" smooth="yes"/>
      <point x="426" y="340"/>
      <point x="456" y="327"/>
      <point x="456" y="269" type="curve"/>
      <point x="488" y="269"/>
      <point x="523" y="277"/>
      <point x="546" y="292" type="curve"/>
      <point x="546" y="482" type="line"/>
      <point x="523" y="497"/>
      <point x="487" y="506"/>
      <point x="456" y="506" type="curve"/>
      <point x="456" y="448"/>
      <point x="425" y="429"/>
      <point x="385" y="429" type="curve" smooth="yes"/>
      <point x="249" y="429" type="line" name="hr02"/>
      <point x="286" y="409" type="line"/>
      <point x="286" y="700" type="line"/>
      <point x="180" y="665" type="line"/>
      <point x="410" y="665" type="line" smooth="yes"/>
      <point x="467" y="665"/>
      <point x="498" y="614"/>
      <point x="513" y="567" type="curve"/>
      <point x="540" y="573"/>
      <point x="596" y="591"/>
      <point x="614" y="608" type="curve"/>
      <point x="614" y="645"/>
      <point x="589" y="741"/>
      <point x="571" y="775" type="curve"/>
      <point x="544" y="775"/>
      <point x="510" y="769"/>
      <point x="483" y="758" type="curve"/>
      <point x="66" y="758" type="line"/>
      <point x="51" y="740"/>
      <point x="42" y="714"/>
      <point x="42" y="689" type="curve" name="hr03"/>
      <point x="89" y="689"/>
      <point x="107" y="674"/>
      <point x="107" y="634" type="curve" smooth="yes"/>
      <point x="107" y="124" type="line" smooth="yes"/>
      <point x="107" y="83"/>
      <point x="89" y="69"/>
      <point x="42" y="69" type="curve"/>
      <point x="42" y="43"/>
      <point x="51" y="18"/>
      <point x="66" y="0" type="curve" name="hr04"/>
      <point x="538" y="0" type="line"/>
      <point x="564" y="-12"/>
      <point x="595" y="-18"/>
      <point x="620" y="-18" type="curve"/>
      <point x="641" y="22"/>
      <point x="659" y="175"/>
      <point x="659" y="217" type="curve"/>
      <point x="555" y="217" type="line"/>
      <point x="535" y="156"/>
      <point x="495" y="95"/>
      <point x="420" y="95" type="curve" smooth="yes"/>
      <point x="230" y="95" type="line"/>
      <point x="286" y="63" type="line" name="hr05"/>
    </contour>
    <contour>
      <point x="350" y="-146" type="move" name="btm"/>
    </contour>
    <contour>
      <point x="332" y="513" type="move" name="top"/>
    </contour>
  </outline>
</glyph>
<glyph name="F" format="1">
  <advance width="1235"/>
  <unicode hex="0046"/>
  <outline>
    <contour>
      <point x="369" y="1362" type="line" name="hr00"/>
      <point x="810" y="1362" type="line" smooth="yes"/>
      <point x="926" y="1362"/>
      <point x="989" y="1264"/>
      <point x="1021" y="1167" type="curve"/>
      <point x="1077" y="1179"/>
      <point x="1178" y="1217"/>
      <point x="1216" y="1251" type="curve"/>
      <point x="1216" y="1326"/>
      <point x="1185" y="1517"/>
      <point x="1148" y="1588" type="curve"/>
      <point x="1093" y="1588"/>
      <point x="1034" y="1575"/>
      <point x="978" y="1552" type="curve"/>
      <point x="136" y="1552" type="line"/>
      <point x="105" y="1515"/>
      <point x="86" y="1463"/>
      <point x="86" y="1411" type="curve"/>
      <point x="182" y="1411"/>
      <point x="220" y="1380"/>
      <point x="220" y="1298" type="curve" smooth="yes"/>
      <point x="220" y="254" type="line" smooth="yes"/>
      <point x="220" y="171"/>
      <point x="182" y="141"/>
      <point x="86" y="141" type="curve"/>
      <point x="86" y="89"/>
      <point x="105" y="36"/>
      <point x="136" y="0" type="curve"/>
      <point x="869" y="0" type="line"/>
      <point x="900" y="36"/>
      <point x="909" y="89"/>
      <point x="909" y="141" type="curve"/>
      <point x="848" y="141"/>
      <point x="779" y="141"/>
      <point x="731" y="141" type="curve" smooth="yes"/>
      <point x="606" y="141"/>
      <point x="585" y="191"/>
      <point x="585" y="274" type="curve" smooth="yes"/>
      <point x="585" y="728" type="line"/>
      <point x="508" y="678" type="line"/>
      <point x="770" y="678" type="line" smooth="yes"/>
      <point x="852" y="678"/>
      <point x="884" y="629"/>
      <point x="884" y="510" type="curve"/>
      <point x="949" y="510"/>
      <point x="1022" y="528"/>
      <point x="1069" y="558" type="curve"/>
      <point x="1068" y="969" type="line"/>
      <point x="1021" y="1000"/>
      <point x="948" y="1017"/>
      <point x="883" y="1017" type="curve"/>
      <point x="883" y="898"/>
      <point x="851" y="846"/>
      <point x="769" y="846" type="curve" smooth="yes"/>
      <point x="509" y="846" type="line"/>
      <point x="585" y="778" type="line"/>
      <point x="585" y="1475" type="line"/>
    </contour>
    <contour>
      <point x="651" y="1050" type="move" name="top"/>
    </contour>
    <contour>
      <point x="509" y="-300" type="move" name="btm"/>
    </contour>
  </outline>
</glyph>
<glyph name="G" format="1">
  <advance width="1495"/>
  <unicode hex="0047"/>
  <outline>
    <contour>
      <point x="819" y="-28" type="curve" smooth="yes" name="hr00"/>
      <point x="1120" y="-28"/>
      <point x="1364" y="98"/>
      <point x="1364" y="176" type="curve" smooth="yes"/>
      <point x="1364" y="229"/>
      <point x="1325" y="191"/>
      <point x="1325" y="284" type="curve" smooth="yes"/>
      <point x="1325" y="572" type="line"/>
      <point x="1357" y="584"/>
      <point x="1403" y="588"/>
      <point x="1448" y="588" type="curve"/>
      <point x="1454" y="600"/>
      <point x="1458" y="618"/>
      <point x="1458" y="629" type="curve" smooth="yes"/>
      <point x="1458" y="663"/>
      <point x="1440" y="779"/>
      <point x="1305" y="779" type="curve" smooth="yes"/>
      <point x="863" y="779" type="line"/>
      <point x="831" y="744"/>
      <point x="812" y="660"/>
      <point x="812" y="608" type="curve"/>
      <point x="918" y="608"/>
      <point x="973" y="577"/>
      <point x="973" y="497" type="curve" smooth="yes"/>
      <point x="973" y="231" type="line"/>
      <point x="933" y="199"/>
      <point x="860" y="199"/>
      <point x="816" y="199" type="curve" smooth="yes"/>
      <point x="600" y="199"/>
      <point x="430" y="391"/>
      <point x="430" y="838" type="curve" smooth="yes"/>
      <point x="430" y="1282"/>
      <point x="606" y="1396"/>
      <point x="784" y="1396" type="curve" smooth="yes"/>
      <point x="943" y="1396"/>
      <point x="1072" y="1271"/>
      <point x="1103" y="1075" type="curve"/>
      <point x="1319" y="1075" type="line"/>
      <point x="1319" y="1210"/>
      <point x="1312" y="1437"/>
      <point x="1256" y="1578" type="curve"/>
      <point x="1208" y="1576"/>
      <point x="1093" y="1551"/>
      <point x="1047" y="1529" type="curve"/>
      <point x="938" y="1572"/>
      <point x="858" y="1579"/>
      <point x="792" y="1579" type="curve" smooth="yes"/>
      <point x="390" y="1579"/>
      <point x="61" y="1324"/>
      <point x="61" y="775" type="curve" smooth="yes"/>
      <point x="61" y="276"/>
      <point x="366" y="-28"/>
    </contour>
    <contour>
      <point x="786" y="1050" type="move" name="top"/>
    </contour>
    <contour>
      <point x="795" y="-300" type="move" name="btm"/>
    </contour>
  </outline>
</glyph>
<glyph name="H" format="1">
  <advance width="815"/>
  <unicode hex="0048"/>
  <outline>
    <contour>
      <point x="244" y="431" type="line" name="hr00"/>
      <point x="240" y="342" type="line"/>
      <point x="633" y="342" type="line"/>
      <point x="604" y="431" type="line"/>
    </contour>
    <contour>
      <point x="327" y="0" type="line"/>
      <point x="342" y="18"/>
      <point x="351" y="43"/>
      <point x="351" y="69" type="curve"/>
      <point x="304" y="69"/>
      <point x="286" y="83"/>
      <point x="286" y="124" type="curve" smooth="yes"/>
      <point x="286" y="634" type="line" smooth="yes"/>
      <point x="286" y="674"/>
      <point x="304" y="689"/>
      <point x="351" y="689" type="curve"/>
      <point x="351" y="714"/>
      <point x="342" y="740"/>
      <point x="327" y="758" type="curve"/>
      <point x="66" y="758" type="line"/>
      <point x="51" y="740"/>
      <point x="42" y="714"/>
      <point x="42" y="689" type="curve"/>
      <point x="89" y="689"/>
      <point x="107" y="674"/>
      <point x="107" y="634" type="curve" smooth="yes"/>
      <point x="107" y="124" type="line" smooth="yes"/>
      <point x="107" y="83"/>
      <point x="89" y="69"/>
      <point x="42" y="69" type="curve"/>
      <point x="42" y="43"/>
      <point x="51" y="18"/>
      <point x="66" y="0" type="curve"/>
    </contour>
    <contour>
      <point x="749" y="0" type="line"/>
      <point x="764" y="18"/>
      <point x="772" y="43"/>
      <point x="772" y="69" type="curve"/>
      <point x="726" y="69"/>
      <point x="708" y="83"/>
      <point x="708" y="124" type="curve" smooth="yes"/>
      <point x="708" y="634" type="line" smooth="yes"/>
      <point x="708" y="674"/>
      <point x="726" y="689"/>
      <point x="772" y="689" type="curve"/>
      <point x="772" y="714"/>
      <point x="764" y="740"/>
      <point x="749" y="758" type="curve"/>
      <point x="488" y="758" type="line"/>
      <point x="473" y="740"/>
      <point x="464" y="714"/>
      <point x="464" y="689" type="curve"/>
      <point x="511" y="689"/>
      <point x="529" y="674"/>
      <point x="529" y="634" type="curve" smooth="yes"/>
      <point x="529" y="124" type="line" smooth="yes"/>
      <point x="529" y="83"/>
      <point x="511" y="69"/>
      <point x="464" y="69" type="curve"/>
      <point x="464" y="43"/>
      <point x="473" y="18"/>
      <point x="488" y="0" type="curve"/>
    </contour>
    <contour>
      <point x="407" y="-146" type="move" name="btm"/>
    </contour>
    <contour>
      <point x="407" y="513" type="move" name="top"/>
    </contour>
  </outline>
</glyph>
<glyph name="I" format="1">
  <advance width="393"/>
  <unicode hex="0049"/>
  <outline>
    <contour>
      <point x="328" y="0" type="line" name="hr00"/>
      <point x="344" y="18"/>
      <point x="353" y="43"/>
      <point x="353" y="69" type="curve"/>
      <point x="305" y="69"/>
      <point x="286" y="83"/>
      <point x="286" y="124" type="curve" smooth="yes"/>
      <point x="286" y="634" type="line" smooth="yes"/>
      <point x="286" y="674"/>
      <point x="305" y="689"/>
      <point x="353" y="689" type="curve"/>
      <point x="353" y="714"/>
      <point x="344" y="740"/>
      <point x="328" y="758" type="curve"/>
      <point x="64" y="758" type="line"/>
      <point x="49" y="740"/>
      <point x="40" y="714"/>
      <point x="40" y="689" type="curve"/>
      <point x="88" y="689"/>
      <point x="107" y="674"/>
      <point x="107" y="634" type="curve" smooth="yes"/>
      <point x="107" y="124" type="line" smooth="yes"/>
      <point x="107" y="83"/>
      <point x="88" y="69"/>
      <point x="40" y="69" type="curve"/>
      <point x="40" y="43"/>
      <point x="49" y="18"/>
      <point x="64" y="0" type="curve"/>
    </contour>
    <contour>
      <point x="196" y="-146" type="move" name="btm"/>
    </contour>
    <contour>
      <point x="196" y="513" type="move" name="top"/>
    </contour>
  </outline>
</glyph>
<glyph name="J" format="1">
  <advance width="580"/>
  <unicode hex="004A"/>
  <outline>
    <contour>
      <point x="489" y="634" type="line" name="hr00" smooth="yes"/>
      <point x="489" y="674"/>
      <point x="508" y="689"/>
      <point x="556" y="689" type="curve"/>
      <point x="556" y="714"/>
      <point x="547" y="740"/>
      <point x="532" y="758" type="curve"/>
      <point x="240" y="758" type="line"/>
      <point x="225" y="740"/>
      <point x="215" y="714"/>
      <point x="215" y="689" type="curve"/>
      <point x="297" y="689"/>
      <point x="311" y="666"/>
      <point x="311" y="612" type="curve" smooth="yes"/>
      <point x="311" y="153" type="line" smooth="yes"/>
      <point x="311" y="110"/>
      <point x="288" y="82"/>
      <point x="250" y="82" type="curve" smooth="yes"/>
      <point x="193" y="82"/>
      <point x="166" y="185"/>
      <point x="155" y="308" type="curve"/>
      <point x="27" y="308" type="line"/>
      <point x="27" y="139"/>
      <point x="61" y="34"/>
      <point x="88" y="-13" type="curve"/>
      <point x="148" y="12" type="line"/>
      <point x="178" y="-3"/>
      <point x="234" y="-13"/>
      <point x="270" y="-13" type="curve" smooth="yes"/>
      <point x="391" y="-13"/>
      <point x="488" y="46"/>
      <point x="489" y="248" type="curve" smooth="yes"/>
    </contour>
    <contour>
      <point x="281" y="-146" type="move" name="btm"/>
    </contour>
    <contour>
      <point x="391" y="513" type="move" name="top"/>
    </contour>
  </outline>
</glyph>
<glyph name="K" format="1">
  <advance width="1484"/>
  <unicode hex="004B"/>
  <outline>
    <contour>
      <point x="689" y="0" type="line" name="hr00"/>
      <point x="720" y="36"/>
      <point x="738" y="89"/>
      <point x="738" y="141" type="curve"/>
      <point x="642" y="141"/>
      <point x="585" y="171"/>
      <point x="585" y="254" type="curve" smooth="yes"/>
      <point x="585" y="1298" type="line" smooth="yes"/>
      <point x="585" y="1380"/>
      <point x="622" y="1411"/>
      <point x="718" y="1411" type="curve"/>
      <point x="718" y="1463"/>
      <point x="700" y="1515"/>
      <point x="669" y="1552" type="curve"/>
      <point x="135" y="1552" type="line"/>
      <point x="103" y="1515"/>
      <point x="86" y="1463"/>
      <point x="86" y="1411" type="curve"/>
      <point x="182" y="1411"/>
      <point x="220" y="1380"/>
      <point x="220" y="1298" type="curve" smooth="yes"/>
      <point x="220" y="254" type="line" smooth="yes"/>
      <point x="220" y="171"/>
      <point x="182" y="141"/>
      <point x="86" y="141" type="curve"/>
      <point x="86" y="89"/>
      <point x="103" y="36"/>
      <point x="135" y="0" type="curve"/>
    </contour>
    <contour>
      <point x="1477" y="1411" type="curve"/>
      <point x="1477" y="1463"/>
      <point x="1459" y="1515"/>
      <point x="1428" y="1552" type="curve"/>
      <point x="933" y="1552" type="line"/>
      <point x="902" y="1515"/>
      <point x="883" y="1463"/>
      <point x="883" y="1411" type="curve"/>
      <point x="973" y="1411"/>
      <point x="991" y="1339"/>
      <point x="936" y="1265" type="curve" smooth="yes"/>
      <point x="540" y="744" type="line"/>
      <point x="711" y="663" type="line"/>
      <point x="1222" y="1285" type="line" smooth="yes"/>
      <point x="1289" y="1368"/>
      <point x="1351" y="1411"/>
    </contour>
    <contour>
      <point x="553" y="708" type="line"/>
      <point x="854" y="585"/>
      <point x="780" y="-31"/>
      <point x="1274" y="-31" type="curve" smooth="yes"/>
      <point x="1392" y="-31"/>
      <point x="1452" y="4"/>
      <point x="1500" y="64" type="curve"/>
      <point x="1500" y="129" type="line"/>
      <point x="1330" y="200"/>
      <point x="1278" y="300"/>
      <point x="1150" y="510" type="curve" smooth="yes"/>
      <point x="992" y="769"/>
      <point x="909" y="814"/>
      <point x="700" y="814" type="curve"/>
      <point x="573" y="758" type="line"/>
    </contour>
    <contour>
      <point x="793" y="1050" type="move" name="top"/>
    </contour>
    <contour>
      <point x="793" y="-300" type="move" name="btm"/>
    </contour>
  </outline>
</glyph>
<glyph name="L" format="1">
  <advance width="604"/>
  <unicode hex="004C"/>
  <outline>
    <contour>
      <point x="496" y="0" type="line" name="hr01" smooth="yes"/>
      <point x="570" y="0"/>
      <point x="594" y="47"/>
      <point x="594" y="134" type="curve" smooth="yes"/>
      <point x="594" y="185"/>
      <point x="575" y="228"/>
      <point x="548" y="249" type="curve"/>
      <point x="471" y="249" type="line"/>
      <point x="471" y="145"/>
      <point x="428" y="92"/>
      <point x="318" y="92" type="curve" smooth="yes"/>
      <point x="286" y="92" type="line"/>
      <point x="286" y="634" type="line" smooth="yes"/>
      <point x="286" y="674"/>
      <point x="310" y="689"/>
      <point x="357" y="689" type="curve"/>
      <point x="357" y="714"/>
      <point x="349" y="740"/>
      <point x="333" y="758" type="curve"/>
      <point x="64" y="758" type="line"/>
      <point x="49" y="740"/>
      <point x="40" y="714"/>
      <point x="40" y="689" type="curve"/>
      <point x="88" y="689"/>
      <point x="107" y="674"/>
      <point x="107" y="634" type="curve" smooth="yes"/>
      <point x="107" y="124" type="line" smooth="yes"/>
      <point x="107" y="83"/>
      <point x="88" y="69"/>
      <point x="40" y="69" type="curve" name="hr02"/>
      <point x="40" y="43"/>
      <point x="49" y="18"/>
      <point x="64" y="0" type="curve" name="hr03"/>
    </contour>
    <contour>
      <point x="317" y="-146" type="move" name="btm"/>
    </contour>
    <contour>
      <point x="421" y="513" type="move" name="top"/>
    </contour>
  </outline>
</glyph>
<glyph name="M" format="1">
  <advance width="2008"/>
  <unicode hex="004D"/>
  <outline>
    <contour>
      <point x="1393" y="1552" type="line" name="hr00"/>
      <point x="1028" y="604" type="line"/>
      <point x="692" y="1402" type="line" smooth="yes"/>
      <point x="636" y="1530"/>
      <point x="552" y="1552"/>
      <point x="424" y="1552" type="curve" smooth="yes"/>
      <point x="122" y="1552" type="line"/>
      <point x="90" y="1515"/>
      <point x="72" y="1463"/>
      <point x="72" y="1411" type="curve"/>
      <point x="171" y="1411"/>
      <point x="210" y="1380"/>
      <point x="210" y="1298" type="curve" smooth="yes"/>
      <point x="210" y="254" type="line" smooth="yes"/>
      <point x="210" y="171"/>
      <point x="168" y="141"/>
      <point x="62" y="141" type="curve"/>
      <point x="62" y="89"/>
      <point x="80" y="36"/>
      <point x="112" y="0" type="curve"/>
      <point x="552" y="0" type="line"/>
      <point x="584" y="36"/>
      <point x="602" y="89"/>
      <point x="602" y="141" type="curve"/>
      <point x="489" y="141"/>
      <point x="444" y="171"/>
      <point x="444" y="254" type="curve" smooth="yes"/>
      <point x="444" y="1174" type="line"/>
      <point x="884" y="99" type="line"/>
      <point x="969" y="99"/>
      <point x="1033" y="122"/>
      <point x="1076" y="221" type="curve" smooth="yes"/>
      <point x="1453" y="1174" type="line"/>
      <point x="1453" y="254" type="line" smooth="yes"/>
      <point x="1453" y="171"/>
      <point x="1414" y="141"/>
      <point x="1315" y="141" type="curve"/>
      <point x="1315" y="89"/>
      <point x="1334" y="36"/>
      <point x="1366" y="0" type="curve"/>
      <point x="1916" y="0" type="line"/>
      <point x="1948" y="36"/>
      <point x="1966" y="89"/>
      <point x="1966" y="141" type="curve"/>
      <point x="1860" y="141"/>
      <point x="1818" y="171"/>
      <point x="1818" y="254" type="curve" smooth="yes"/>
      <point x="1818" y="1298" type="line" smooth="yes"/>
      <point x="1818" y="1380"/>
      <point x="1857" y="1411"/>
      <point x="1956" y="1411" type="curve"/>
      <point x="1956" y="1463"/>
      <point x="1938" y="1515"/>
      <point x="1906" y="1552" type="curve"/>
    </contour>
    <contour>
      <point x="1014" y="1050" type="move" name="top"/>
    </contour>
    <contour>
      <point x="1014" y="-300" type="move" name="btm"/>
    </contour>
  </outline>
</glyph>
<glyph name="N" format="1">
  <advance width="1625"/>
  <unicode hex="004E"/>
  <outline>
    <contour>
      <point x="467" y="1055" type="line" name="hr00"/>
      <point x="1129" y="81" type="line"/>
      <point x="1186" y="1"/>
      <point x="1213" y="-24"/>
      <point x="1376" y="-27" type="curve"/>
      <point x="1437" y="-27" type="line"/>
      <point x="1437" y="1298" type="line" smooth="yes"/>
      <point x="1437" y="1380"/>
      <point x="1477" y="1411"/>
      <point x="1576" y="1411" type="curve"/>
      <point x="1576" y="1463"/>
      <point x="1557" y="1515"/>
      <point x="1525" y="1552" type="curve"/>
      <point x="1083" y="1552" type="line"/>
      <point x="1050" y="1515"/>
      <point x="1031" y="1463"/>
      <point x="1031" y="1411" type="curve"/>
      <point x="1131" y="1411"/>
      <point x="1172" y="1380"/>
      <point x="1172" y="1298" type="curve" smooth="yes"/>
      <point x="1171" y="604" type="line"/>
      <point x="681" y="1364" type="line"/>
      <point x="606" y="1478"/>
      <point x="508" y="1552"/>
      <point x="412" y="1552" type="curve" smooth="yes"/>
      <point x="131" y="1552" type="line"/>
      <point x="99" y="1515"/>
      <point x="81" y="1463"/>
      <point x="81" y="1411" type="curve"/>
      <point x="181" y="1411"/>
      <point x="220" y="1380"/>
      <point x="220" y="1298" type="curve" smooth="yes"/>
      <point x="220" y="254" type="line" smooth="yes"/>
      <point x="220" y="171"/>
      <point x="181" y="141"/>
      <point x="81" y="141" type="curve"/>
      <point x="81" y="89"/>
      <point x="99" y="36"/>
      <point x="131" y="0" type="curve"/>
      <point x="555" y="0" type="line"/>
      <point x="587" y="36"/>
      <point x="606" y="89"/>
      <point x="606" y="141" type="curve"/>
      <point x="506" y="141"/>
      <point x="467" y="171"/>
      <point x="467" y="254" type="curve" smooth="yes"/>
    </contour>
    <contour>
      <point x="828" y="1050" type="move" name="top"/>
    </contour>
    <contour>
      <point x="828" y="-300" type="move" name="btm"/>
    </contour>
  </outline>
</glyph>
<glyph name="O" format="1">
  <advance width="732"/>
  <unicode hex="004F"/>
  <outline>
    <contour>
      <point x="365" y="66" type="curve" name="hr00" smooth="yes"/>
      <point x="291" y="66"/>
      <point x="233" y="130"/>
      <point x="233" y="375" type="curve" smooth="yes"/>
      <point x="233" y="638"/>
      <point x="300" y="691"/>
      <point x="368" y="691" type="curve" smooth="yes"/>
      <point x="443" y="691"/>
      <point x="499" y="628"/>
      <point x="499" y="383" type="curve" smooth="yes"/>
      <point x="499" y="120"/>
      <point x="433" y="66"/>
    </contour>
    <contour>
      <point x="365" y="-13" type="curve" smooth="yes"/>
      <point x="568" y="-13"/>
      <point x="703" y="130"/>
      <point x="703" y="379" type="curve" smooth="yes"/>
      <point x="703" y="616"/>
      <point x="575" y="771"/>
      <point x="364" y="771" type="curve" smooth="yes"/>
      <point x="162" y="771"/>
      <point x="29" y="627"/>
      <point x="29" y="379" type="curve" smooth="yes"/>
      <point x="29" y="142"/>
      <point x="154" y="-13"/>
    </contour>
    <contour>
      <point x="366" y="-146" type="move" name="btm"/>
    </contour>
    <contour>
      <point x="366" y="513" type="move" name="top"/>
    </contour>
  </outline>
</glyph>
<glyph name="P" format="1">
  <advance width="1355"/>
  <unicode hex="0050"/>
  <outline>
    <contour>
      <point x="658" y="1577" type="curve" smooth="yes" name="hr00"/>
      <point x="535" y="1577"/>
      <point x="288" y="1569"/>
      <point x="131" y="1552" type="curve"/>
      <point x="100" y="1514"/>
      <point x="82" y="1463"/>
      <point x="82" y="1411" type="curve"/>
      <point x="181" y="1411"/>
      <point x="220" y="1380"/>
      <point x="220" y="1298" type="curve" smooth="yes"/>
      <point x="220" y="254" type="line" smooth="yes"/>
      <point x="220" y="171"/>
      <point x="181" y="141"/>
      <point x="82" y="141" type="curve"/>
      <point x="82" y="89"/>
      <point x="100" y="36"/>
      <point x="132" y="0" type="curve"/>
      <point x="779" y="0" type="line"/>
      <point x="811" y="36"/>
      <point x="829" y="89"/>
      <point x="829" y="141" type="curve"/>
      <point x="629" y="141"/>
      <point x="585" y="180"/>
      <point x="585" y="353" type="curve" smooth="yes"/>
      <point x="585" y="549" type="line"/>
      <point x="687" y="549" type="line" smooth="yes"/>
      <point x="1135" y="549"/>
      <point x="1319" y="767"/>
      <point x="1319" y="1058" type="curve" smooth="yes"/>
      <point x="1319" y="1383"/>
      <point x="1202" y="1577"/>
    </contour>
    <contour>
      <point x="932" y="1065" type="curve" smooth="yes"/>
      <point x="932" y="914"/>
      <point x="919" y="726"/>
      <point x="644" y="726" type="curve" smooth="yes"/>
      <point x="623" y="726"/>
      <point x="606" y="727"/>
      <point x="585" y="730" type="curve"/>
      <point x="585" y="1392" type="line"/>
      <point x="609" y="1398"/>
      <point x="636" y="1400"/>
      <point x="668" y="1400" type="curve" smooth="yes"/>
      <point x="900" y="1400"/>
      <point x="932" y="1235"/>
    </contour>
    <contour>
      <point x="671" y="1050" type="move" name="top"/>
    </contour>
    <contour>
      <point x="395" y="-300" type="move" name="btm"/>
    </contour>
  </outline>
</glyph>
<glyph name="Q" format="1">
  <advance width="732"/>
  <unicode hex="0051"/>
  <outline>
    <contour>
      <point x="364" y="-78" type="curve" name="hr00" smooth="yes"/>
      <point x="469" y="-78"/>
      <point x="496" y="-181"/>
      <point x="625" y="-181" type="curve" smooth="yes"/>
      <point x="724" y="-181"/>
      <point x="764" y="-127"/>
      <point x="764" y="-92" type="curve" smooth="yes"/>
      <point x="764" y="-81"/>
      <point x="755" y="-59"/>
      <point x="750" y="-50" type="curve"/>
      <point x="698" y="-69"/>
      <point x="645" y="-66"/>
      <point x="609" y="-47" type="curve" smooth="yes"/>
      <point x="571" y="-27"/>
      <point x="505" y="28"/>
      <point x="436" y="28" type="curve" smooth="yes"/>
      <point x="328" y="28"/>
      <point x="242" y="-15"/>
      <point x="210" y="-71" type="curve"/>
      <point x="244" y="-110" type="line"/>
      <point x="300" y="-74"/>
      <point x="329" y="-78"/>
    </contour>
    <contour>
      <point x="365" y="66" type="curve" smooth="yes"/>
      <point x="291" y="66"/>
      <point x="233" y="130"/>
      <point x="233" y="375" type="curve" smooth="yes"/>
      <point x="233" y="638"/>
      <point x="300" y="691"/>
      <point x="368" y="691" type="curve" smooth="yes"/>
      <point x="443" y="691"/>
      <point x="499" y="628"/>
      <point x="499" y="383" type="curve" smooth="yes"/>
      <point x="499" y="120"/>
      <point x="433" y="66"/>
    </contour>
    <contour>
      <point x="365" y="-13" type="curve" smooth="yes"/>
      <point x="568" y="-13"/>
      <point x="703" y="130"/>
      <point x="703" y="379" type="curve" smooth="yes"/>
      <point x="703" y="616"/>
      <point x="575" y="771"/>
      <point x="364" y="771" type="curve" smooth="yes"/>
      <point x="162" y="771"/>
      <point x="29" y="627"/>
      <point x="29" y="379" type="curve" smooth="yes"/>
      <point x="29" y="142"/>
      <point x="154" y="-13"/>
    </contour>
    <contour>
      <point x="373" y="-146" type="move" name="btm"/>
    </contour>
    <contour>
      <point x="370" y="513" type="move" name="top"/>
    </contour>
  </outline>
</glyph>
<glyph name="R" format="1">
  <advance width="1475"/>
  <unicode hex="0052"/>
  <outline>
    <contour>
      <point x="1332" y="1141" type="curve" smooth="yes" name="hr00"/>
      <point x="1332" y="1377"/>
      <point x="1161" y="1578"/>
      <point x="696" y="1578" type="curve" smooth="yes"/>
      <point x="577" y="1578"/>
      <point x="292" y="1570"/>
      <point x="131" y="1552" type="curve"/>
      <point x="100" y="1514"/>
      <point x="82" y="1463"/>
      <point x="82" y="1411" type="curve"/>
      <point x="181" y="1411"/>
      <point x="220" y="1380"/>
      <point x="220" y="1298" type="curve" smooth="yes"/>
      <point x="220" y="254" type="line" smooth="yes"/>
      <point x="220" y="171"/>
      <point x="181" y="141"/>
      <point x="82" y="141" type="curve"/>
      <point x="82" y="89"/>
      <point x="100" y="36"/>
      <point x="132" y="0" type="curve"/>
      <point x="682" y="0" type="line"/>
      <point x="714" y="36"/>
      <point x="732" y="89"/>
      <point x="732" y="141" type="curve"/>
      <point x="646" y="141"/>
      <point x="585" y="171"/>
      <point x="585" y="254" type="curve" smooth="yes"/>
      <point x="585" y="660" type="line"/>
      <point x="793" y="686" type="line" smooth="yes"/>
      <point x="1162" y="686"/>
      <point x="1332" y="876"/>
    </contour>
    <contour>
      <point x="653" y="673" type="line"/>
      <point x="948" y="575"/>
      <point x="785" y="-31"/>
      <point x="1270" y="-31" type="curve" smooth="yes"/>
      <point x="1388" y="-31"/>
      <point x="1429" y="3"/>
      <point x="1477" y="60" type="curve"/>
      <point x="1477" y="143" type="line"/>
      <point x="1318" y="179"/>
      <point x="1333" y="280"/>
      <point x="1214" y="479" type="curve" smooth="yes"/>
      <point x="1056" y="729"/>
      <point x="1018" y="713"/>
      <point x="811" y="713" type="curve"/>
    </contour>
    <contour>
      <point x="972" y="1118" type="curve" smooth="yes"/>
      <point x="972" y="937"/>
      <point x="889" y="819"/>
      <point x="674" y="819" type="curve" smooth="yes"/>
      <point x="653" y="819"/>
      <point x="606" y="820"/>
      <point x="585" y="823" type="curve"/>
      <point x="585" y="1392" type="line"/>
      <point x="609" y="1398"/>
      <point x="656" y="1400"/>
      <point x="686" y="1400" type="curve" smooth="yes"/>
      <point x="878" y="1400"/>
      <point x="972" y="1302"/>
    </contour>
    <contour>
      <point x="697" y="1050" type="move" name="top"/>
    </contour>
    <contour>
      <point x="779" y="-300" type="move" name="btm"/>
    </contour>
  </outline>
</glyph>
<glyph name="S" format="1">
  <advance width="1327"/>
  <unicode hex="0053"/>
  <outline>
    <contour>
      <point x="96" y="551" type="line" name="hr01"/>
      <point x="96" y="376"/>
      <point x="144" y="87"/>
      <point x="201" y="-27" type="curve"/>
      <point x="372" y="47" type="line"/>
      <point x="507" y="-8"/>
      <point x="628" y="-27"/>
      <point x="730" y="-27" type="curve" smooth="yes"/>
      <point x="1057" y="-27"/>
      <point x="1249" y="138"/>
      <point x="1249" y="384" type="curve" smooth="yes" name="hr02"/>
      <point x="1249" y="680"/>
      <point x="984" y="837"/>
      <point x="783" y="939" type="curve" smooth="yes"/>
      <point x="644" y="1006"/>
      <point x="511" y="1076"/>
      <point x="511" y="1219" type="curve" smooth="yes"/>
      <point x="511" y="1323"/>
      <point x="558" y="1401"/>
      <point x="682" y="1401" type="curve" smooth="yes"/>
      <point x="813" y="1401"/>
      <point x="942" y="1329"/>
      <point x="1004" y="1076" type="curve"/>
      <point x="1189" y="1076" type="line"/>
      <point x="1189" y="1215"/>
      <point x="1192" y="1467"/>
      <point x="1125" y="1580" type="curve"/>
      <point x="938" y="1522" type="line"/>
      <point x="863" y="1562"/>
      <point x="727" y="1580"/>
      <point x="640" y="1580" type="curve" smooth="yes"/>
      <point x="360" y="1580"/>
      <point x="143" y="1450"/>
      <point x="143" y="1181" type="curve" smooth="yes"/>
      <point x="143" y="929"/>
      <point x="310" y="768"/>
      <point x="563" y="631" type="curve" smooth="yes"/>
      <point x="720" y="552"/>
      <point x="888" y="467"/>
      <point x="888" y="322" type="curve" smooth="yes"/>
      <point x="888" y="250"/>
      <point x="863" y="150"/>
      <point x="727" y="150" type="curve" smooth="yes"/>
      <point x="541" y="150"/>
      <point x="364" y="300"/>
      <point x="318" y="551" type="curve"/>
    </contour>
    <contour>
      <point x="672" y="1050" type="move" name="top"/>
    </contour>
    <contour>
      <point x="717" y="-300" type="move" name="btm"/>
    </contour>
  </outline>
</glyph>
<glyph name="T" format="1">
  <advance width="1373"/>
  <unicode hex="0054"/>
  <outline>
    <contour>
      <point x="877" y="1376" type="line" name="hr01"/>
      <point x="1088" y="1376"/>
      <point x="1166" y="1297"/>
      <point x="1196" y="1039" type="curve"/>
      <point x="1253" y="1046"/>
      <point x="1343" y="1047"/>
      <point x="1382" y="1064" type="curve"/>
      <point x="1382" y="1187"/>
      <point x="1365" y="1471"/>
      <point x="1310" y="1589" type="curve"/>
      <point x="1256" y="1589"/>
      <point x="1184" y="1575"/>
      <point x="1129" y="1552" type="curve"/>
      <point x="244" y="1552" type="line"/>
      <point x="190" y="1575"/>
      <point x="116" y="1589"/>
      <point x="62" y="1589" type="curve"/>
      <point x="7" y="1471"/>
      <point x="-10" y="1187"/>
      <point x="-10" y="1064" type="curve"/>
      <point x="29" y="1047"/>
      <point x="121" y="1046"/>
      <point x="177" y="1039" type="curve"/>
      <point x="207" y="1297"/>
      <point x="306" y="1376"/>
      <point x="497" y="1376" type="curve" smooth="yes"/>
    </contour>
    <contour>
      <point x="1017" y="0" type="line"/>
      <point x="1049" y="36"/>
      <point x="1067" y="89"/>
      <point x="1067" y="141" type="curve"/>
      <point x="950" y="141"/>
      <point x="869" y="181"/>
      <point x="869" y="264" type="curve" smooth="yes"/>
      <point x="869" y="1417" type="line" name="hr02"/>
      <point x="504" y="1417" type="line"/>
      <point x="504" y="264" type="line" smooth="yes"/>
      <point x="504" y="181"/>
      <point x="423" y="141"/>
      <point x="307" y="141" type="curve"/>
      <point x="307" y="89"/>
      <point x="325" y="36"/>
      <point x="357" y="0" type="curve"/>
    </contour>
    <contour>
      <point x="686" y="1050" type="move" name="top"/>
    </contour>
    <contour>
      <point x="686" y="-300" type="move" name="btm"/>
    </contour>
  </outline>
</glyph>
<glyph name="U" format="1">
  <advance width="1507"/>
  <unicode hex="0055"/>
  <outline>
    <contour>
      <point x="1349" y="1298" type="line" smooth="yes" name="hr00"/>
      <point x="1349" y="1380"/>
      <point x="1392" y="1411"/>
      <point x="1505" y="1411" type="curve"/>
      <point x="1505" y="1463"/>
      <point x="1487" y="1515"/>
      <point x="1455" y="1552" type="curve"/>
      <point x="967" y="1552" type="line"/>
      <point x="934" y="1515"/>
      <point x="917" y="1463"/>
      <point x="917" y="1411" type="curve"/>
      <point x="1030" y="1411"/>
      <point x="1076" y="1380"/>
      <point x="1076" y="1298" type="curve" smooth="yes"/>
      <point x="1076" y="484" type="line" smooth="yes"/>
      <point x="1076" y="312"/>
      <point x="984" y="188"/>
      <point x="807" y="188" type="curve" smooth="yes"/>
      <point x="637" y="188"/>
      <point x="534" y="341"/>
      <point x="534" y="542" type="curve" smooth="yes"/>
      <point x="534" y="1298" type="line" smooth="yes"/>
      <point x="534" y="1380"/>
      <point x="573" y="1411"/>
      <point x="672" y="1411" type="curve"/>
      <point x="672" y="1463"/>
      <point x="653" y="1515"/>
      <point x="621" y="1552" type="curve"/>
      <point x="63" y="1552" type="line"/>
      <point x="31" y="1515"/>
      <point x="13" y="1463"/>
      <point x="13" y="1411" type="curve"/>
      <point x="112" y="1411"/>
      <point x="150" y="1380"/>
      <point x="150" y="1298" type="curve" smooth="yes"/>
      <point x="150" y="587" type="line" smooth="yes"/>
      <point x="150" y="185"/>
      <point x="385" y="-25"/>
      <point x="767" y="-25" type="curve" smooth="yes"/>
      <point x="1155" y="-25"/>
      <point x="1349" y="180"/>
      <point x="1349" y="587" type="curve" smooth="yes"/>
    </contour>
    <contour>
      <point x="759" y="1050" type="move" name="top"/>
    </contour>
    <contour>
      <point x="759" y="-300" type="move" name="btm"/>
    </contour>
  </outline>
</glyph>
<glyph name="V" format="1">
  <advance width="1322"/>
  <unicode hex="0056"/>
  <outline>
    <contour>
      <point x="887" y="1552" type="line" name="hr00"/>
      <point x="860" y="1507"/>
      <point x="853" y="1463"/>
      <point x="853" y="1411" type="curve"/>
      <point x="961" y="1411"/>
      <point x="1003" y="1349"/>
      <point x="976" y="1264" type="curve" smooth="yes"/>
      <point x="716" y="400" type="line"/>
      <point x="475" y="1259" type="line" smooth="yes"/>
      <point x="444" y="1349"/>
      <point x="487" y="1411"/>
      <point x="595" y="1411" type="curve"/>
      <point x="595" y="1463"/>
      <point x="574" y="1515"/>
      <point x="555" y="1552" type="curve"/>
      <point x="-105" y="1552" type="line"/>
      <point x="-132" y="1507"/>
      <point x="-139" y="1463"/>
      <point x="-139" y="1411" type="curve"/>
      <point x="-36" y="1411"/>
      <point x="15" y="1383"/>
      <point x="46" y="1306" type="curve" smooth="yes"/>
      <point x="554" y="-27" type="line"/>
      <point x="624" y="-27" type="line" smooth="yes"/>
      <point x="756" y="-27"/>
      <point x="811" y="35"/>
      <point x="865" y="186" type="curve" smooth="yes"/>
      <point x="1254" y="1306" type="line" smooth="yes"/>
      <point x="1283" y="1386"/>
      <point x="1340" y="1411"/>
      <point x="1439" y="1411" type="curve"/>
      <point x="1439" y="1463"/>
      <point x="1429" y="1509"/>
      <point x="1405" y="1552" type="curve"/>
    </contour>
    <contour>
      <point x="650" y="1050" type="move" name="top"/>
    </contour>
    <contour>
      <point x="650" y="-300" type="move" name="btm"/>
    </contour>
  </outline>
</glyph>
<glyph name="W" format="1">
  <advance width="1028"/>
  <unicode hex="0057"/>
  <outline>
    <contour>
      <point x="512" y="455" type="line" name="hr00"/>
      <point x="668" y="0" type="line"/>
      <point x="710" y="0" type="line" smooth="yes"/>
      <point x="782" y="0"/>
      <point x="828" y="43"/>
      <point x="858" y="146" type="curve" smooth="yes"/>
      <point x="995" y="638" type="line" smooth="yes"/>
      <point x="1007" y="676"/>
      <point x="1034" y="689"/>
      <point x="1083" y="689" type="curve"/>
      <point x="1083" y="714"/>
      <point x="1079" y="737"/>
      <point x="1067" y="758" type="curve"/>
      <point x="812" y="758" type="line"/>
      <point x="799" y="736"/>
      <point x="796" y="714"/>
      <point x="796" y="689" type="curve"/>
      <point x="853" y="689"/>
      <point x="883" y="654"/>
      <point x="869" y="606" type="curve" smooth="yes"/>
      <point x="762" y="195" type="line"/>
      <point x="635" y="604" type="line" smooth="yes"/>
      <point x="620" y="655"/>
      <point x="638" y="689"/>
      <point x="698" y="689" type="curve"/>
      <point x="698" y="714"/>
      <point x="688" y="740"/>
      <point x="679" y="758" type="curve"/>
      <point x="390" y="758" type="line"/>
      <point x="376" y="736"/>
      <point x="373" y="714"/>
      <point x="373" y="689" type="curve"/>
      <point x="422" y="689"/>
      <point x="458" y="660"/>
      <point x="444" y="611" type="curve" smooth="yes"/>
      <point x="333" y="195" type="line"/>
      <point x="209" y="625" type="line" smooth="yes"/>
      <point x="200" y="655"/>
      <point x="214" y="689"/>
      <point x="261" y="689" type="curve"/>
      <point x="261" y="714"/>
      <point x="250" y="740"/>
      <point x="242" y="758" type="curve"/>
      <point x="-41" y="758" type="line"/>
      <point x="-54" y="736"/>
      <point x="-57" y="714"/>
      <point x="-57" y="689" type="curve"/>
      <point x="-8" y="689"/>
      <point x="9" y="676"/>
      <point x="22" y="638" type="curve" smooth="yes"/>
      <point x="232" y="0" type="line"/>
      <point x="274" y="0" type="line" smooth="yes"/>
      <point x="346" y="0"/>
      <point x="392" y="43"/>
      <point x="422" y="146" type="curve" smooth="yes"/>
    </contour>
    <contour>
      <point x="513" y="-146" type="move" name="btm"/>
    </contour>
    <contour>
      <point x="513" y="513" type="move" name="top"/>
    </contour>
  </outline>
</glyph>
<glyph name="X" format="1">
  <advance width="1488"/>
  <unicode hex="0058"/>
  <outline>
    <contour>
      <point x="684" y="602" type="line" name="hr00"/>
      <point x="690" y="984" type="line"/>
      <point x="174" y="251" type="line" smooth="yes"/>
      <point x="121" y="171"/>
      <point x="77" y="141"/>
      <point x="-44" y="141" type="curve"/>
      <point x="-44" y="89"/>
      <point x="-25" y="36"/>
      <point x="8" y="0" type="curve"/>
      <point x="515" y="0" type="line"/>
      <point x="548" y="36"/>
      <point x="567" y="89"/>
      <point x="567" y="141" type="curve"/>
      <point x="469" y="141"/>
      <point x="430" y="212"/>
      <point x="476" y="282" type="curve" smooth="yes"/>
    </contour>
    <contour>
      <point x="733" y="904" type="line"/>
      <point x="727" y="569" type="line"/>
      <point x="1232" y="1301" type="line" smooth="yes"/>
      <point x="1286" y="1379"/>
      <point x="1329" y="1411"/>
      <point x="1450" y="1411" type="curve"/>
      <point x="1450" y="1463"/>
      <point x="1431" y="1515"/>
      <point x="1398" y="1552" type="curve"/>
      <point x="891" y="1552" type="line"/>
      <point x="858" y="1515"/>
      <point x="839" y="1463"/>
      <point x="839" y="1411" type="curve"/>
      <point x="937" y="1411"/>
      <point x="974" y="1341"/>
      <point x="930" y="1270" type="curve" smooth="yes"/>
    </contour>
    <contour>
      <point x="859" y="282" type="line" smooth="yes"/>
      <point x="904" y="212"/>
      <point x="919" y="141"/>
      <point x="769" y="141" type="curve"/>
      <point x="769" y="89"/>
      <point x="788" y="36"/>
      <point x="821" y="0" type="curve"/>
      <point x="1456" y="0" type="line"/>
      <point x="1489" y="36"/>
      <point x="1508" y="89"/>
      <point x="1508" y="141" type="curve"/>
      <point x="1412" y="141"/>
      <point x="1316" y="198"/>
      <point x="1263" y="279" type="curve" smooth="yes"/>
      <point x="597" y="1270" type="line" smooth="yes"/>
      <point x="552" y="1341"/>
      <point x="528" y="1411"/>
      <point x="687" y="1411" type="curve"/>
      <point x="687" y="1463"/>
      <point x="668" y="1515"/>
      <point x="635" y="1552" type="curve"/>
      <point x="3" y="1552" type="line"/>
      <point x="-30" y="1515"/>
      <point x="-49" y="1463"/>
      <point x="-49" y="1411" type="curve"/>
      <point x="39" y="1411"/>
      <point x="123" y="1371"/>
      <point x="184" y="1276" type="curve" smooth="yes"/>
    </contour>
    <contour>
      <point x="729" y="1050" type="move" name="top"/>
    </contour>
    <contour>
      <point x="729" y="-300" type="move" name="btm"/>
    </contour>
  </outline>
</glyph>
<glyph name="Y" format="1">
  <advance width="1383"/>
  <unicode hex="0059"/>
  <outline>
    <contour>
      <point x="1281" y="1301" type="line" smooth="yes" name="hr00"/>
      <point x="1329" y="1386"/>
      <point x="1333" y="1411"/>
      <point x="1454" y="1411" type="curve"/>
      <point x="1454" y="1463"/>
      <point x="1435" y="1515"/>
      <point x="1402" y="1552" type="curve"/>
      <point x="935" y="1552" type="line"/>
      <point x="902" y="1515"/>
      <point x="883" y="1463"/>
      <point x="883" y="1411" type="curve"/>
      <point x="970" y="1411"/>
      <point x="1046" y="1344"/>
      <point x="1004" y="1270" type="curve" smooth="yes"/>
      <point x="593" y="531" type="line"/>
      <point x="856" y="526" type="line"/>
    </contour>
    <contour>
      <point x="582" y="1213" type="line" smooth="yes"/>
      <point x="515" y="1340"/>
      <point x="542" y="1411"/>
      <point x="681" y="1411" type="curve"/>
      <point x="681" y="1463"/>
      <point x="662" y="1515"/>
      <point x="629" y="1552" type="curve"/>
      <point x="-8" y="1552" type="line"/>
      <point x="-41" y="1515"/>
      <point x="-60" y="1463"/>
      <point x="-60" y="1411" type="curve"/>
      <point x="-1" y="1411"/>
      <point x="70" y="1369"/>
      <point x="103" y="1312" type="curve" smooth="yes"/>
      <point x="665" y="343" type="line"/>
      <point x="887" y="614" type="line"/>
    </contour>
    <contour>
      <point x="1047" y="0" type="line"/>
      <point x="1079" y="36"/>
      <point x="1097" y="89"/>
      <point x="1097" y="141" type="curve"/>
      <point x="992" y="141"/>
      <point x="882" y="171"/>
      <point x="882" y="254" type="curve" smooth="yes"/>
      <point x="882" y="666" type="line"/>
      <point x="537" y="666" type="line"/>
      <point x="537" y="254" type="line" smooth="yes"/>
      <point x="537" y="171"/>
      <point x="431" y="141"/>
      <point x="333" y="141" type="curve"/>
      <point x="333" y="89"/>
      <point x="351" y="36"/>
      <point x="383" y="0" type="curve"/>
    </contour>
    <contour>
      <point x="744" y="1050" type="move" name="top"/>
    </contour>
    <contour>
      <point x="731" y="-300" type="move" name="btm"/>
    </contour>
  </outline>
</glyph>
<glyph name="Z" format="1">
  <advance width="1373"/>
  <unicode hex="005A"/>
  <outline>
    <contour>
      <point x="543" y="175" type="line" name="hr00"/>
      <point x="1325" y="1470" type="line"/>
      <point x="1270" y="1552" type="line"/>
      <point x="184" y="1552" type="line"/>
      <point x="137" y="1454"/>
      <point x="100" y="1251"/>
      <point x="100" y="1052" type="curve"/>
      <point x="300" y="1052" type="line"/>
      <point x="330" y="1272"/>
      <point x="453" y="1376"/>
      <point x="648" y="1376" type="curve" smooth="yes"/>
      <point x="867" y="1376" type="line"/>
      <point x="54" y="84" type="line"/>
      <point x="109" y="0" type="line"/>
      <point x="1065" y="0" type="line"/>
      <point x="1117" y="-24"/>
      <point x="1179" y="-36"/>
      <point x="1231" y="-36" type="curve"/>
      <point x="1272" y="45"/>
      <point x="1325" y="444"/>
      <point x="1325" y="530" type="curve"/>
      <point x="1124" y="531" type="line"/>
      <point x="1083" y="406"/>
      <point x="976" y="175"/>
      <point x="825" y="175" type="curve"/>
    </contour>
    <contour>
      <point x="703" y="1050" type="move" name="top"/>
    </contour>
    <contour>
      <point x="689" y="-300" type="move" name="btm"/>
    </contour>
  </outline>
</glyph>
<glyph name="bracketleft" format="1">
  <advance width="449"/>
  <unicode hex="005B"/>
  <outline>
    <contour>
      <point x="272" y="825" type="line" name="hr00"/>
      <point x="379" y="825" type="line"/>
      <point x="391" y="849"/>
      <point x="396" y="871"/>
      <point x="396" y="898" type="curve"/>
      <point x="107" y="898" type="line"/>
      <point x="107" y="-87" type="line"/>
      <point x="396" y="-87" type="line"/>
      <point x="396" y="-61"/>
      <point x="391" y="-38"/>
      <point x="379" y="-14" type="curve"/>
      <point x="272" y="-14" type="line"/>
    </contour>
  </outline>
</glyph>
<glyph name="asciicircum" format="1">
  <advance width="1368"/>
  <unicode hex="005E"/>
  <outline>
    <contour>
      <point x="770" y="1730" type="line" name="hr00"/>
      <point x="1208" y="709" type="line"/>
      <point x="1184" y="656"/>
      <point x="1096" y="624"/>
      <point x="1028" y="614" type="curve"/>
      <point x="684" y="1456" type="line"/>
      <point x="340" y="614" type="line"/>
      <point x="272" y="624"/>
      <point x="184" y="656"/>
      <point x="160" y="709" type="curve"/>
      <point x="598" y="1730" type="line"/>
    </contour>
  </outline>
</glyph>
<glyph name="underscore" format="1">
  <advance width="668"/>
  <unicode hex="005F"/>
  <outline>
    <contour>
      <point x="-21" y="-180" type="line" name="hr00"/>
      <point x="689" y="-180" type="line"/>
      <point x="689" y="-94" type="line"/>
      <point x="-21" y="-94" type="line"/>
    </contour>
  </outline>
</glyph>
<glyph name="grave" format="1">
  <advance width="0"/>
  <unicode hex="0060"/>
  <outline>
    <contour>
      <point x="-98" y="944" type="curve" name="hr00"/>
      <point x="-155" y="944"/>
      <point x="-192" y="893"/>
      <point x="-192" y="857" type="curve" smooth="yes"/>
      <point x="-192" y="779"/>
      <point x="-21" y="676"/>
      <point x="54" y="676" type="curve" smooth="yes"/>
      <point x="82" y="676"/>
      <point x="107" y="690"/>
      <point x="111" y="725" type="curve"/>
      <point x="41" y="771"/>
      <point x="-49" y="854"/>
    </contour>
    <contour>
      <point x="-41" y="513" type="move" name="_top"/>
    </contour>
  </outline>
</glyph>
<glyph name="a" format="1">
  <advance width="588"/>
  <unicode hex="0061"/>
  <outline>
    <contour>
      <point x="30" y="149" type="curve" name="hr00" smooth="yes"/>
      <point x="30" y="55"/>
      <point x="102" y="-15"/>
      <point x="211" y="-15" type="curve" smooth="yes"/>
      <point x="276" y="-15"/>
      <point x="324" y="10"/>
      <point x="353" y="36" type="curve"/>
      <point x="373" y="3"/>
      <point x="408" y="-15"/>
      <point x="457" y="-15" type="curve" smooth="yes"/>
      <point x="500" y="-15"/>
      <point x="550" y="-1"/>
      <point x="571" y="26" type="curve"/>
      <point x="571" y="61" type="line"/>
      <point x="537" y="68"/>
      <point x="518" y="89"/>
      <point x="518" y="124" type="curve" smooth="yes"/>
      <point x="518" y="418" type="line" smooth="yes"/>
      <point x="518" y="532"/>
      <point x="446" y="590"/>
      <point x="302" y="590" type="curve" smooth="yes"/>
      <point x="140" y="590"/>
      <point x="68" y="516"/>
      <point x="68" y="445" type="curve" smooth="yes"/>
      <point x="68" y="395"/>
      <point x="104" y="356"/>
      <point x="158" y="356" type="curve" smooth="yes"/>
      <point x="208" y="356"/>
      <point x="247" y="389"/>
      <point x="247" y="436" type="curve" smooth="yes"/>
      <point x="247" y="462"/>
      <point x="235" y="487"/>
      <point x="206" y="496" type="curve"/>
      <point x="220" y="507"/>
      <point x="242" y="513"/>
      <point x="264" y="513" type="curve" smooth="yes"/>
      <point x="309" y="513"/>
      <point x="340" y="490"/>
      <point x="340" y="430" type="curve" smooth="yes"/>
      <point x="340" y="286" type="line"/>
      <point x="312" y="302"/>
      <point x="260" y="311"/>
      <point x="218" y="311" type="curve" smooth="yes"/>
      <point x="88" y="311"/>
      <point x="30" y="242"/>
    </contour>
    <contour>
      <point x="340" y="90" type="line"/>
      <point x="326" y="79"/>
      <point x="302" y="73"/>
      <point x="281" y="73" type="curve" smooth="yes"/>
      <point x="238" y="73"/>
      <point x="209" y="101"/>
      <point x="209" y="148" type="curve" smooth="yes"/>
      <point x="209" y="197"/>
      <point x="241" y="221"/>
      <point x="279" y="221" type="curve" smooth="yes"/>
      <point x="301" y="221"/>
      <point x="325" y="213"/>
      <point x="340" y="203" type="curve"/>
    </contour>
    <contour>
      <point x="281" y="-146" type="move" name="btm"/>
    </contour>
    <contour>
      <point x="303" y="513" type="move" name="top"/>
    </contour>
  </outline>
</glyph>
<glyph name="b" format="1">
  <advance width="1262"/>
  <unicode hex="0062"/>
  <outline>
    <contour>
      <point x="501" y="1020" type="line" name="hr00"/>
      <point x="490" y="1020" type="line"/>
      <point x="501" y="1335" type="line"/>
      <point x="501" y="1628" type="line"/>
      <point x="501" y="1700"/>
      <point x="473" y="1730"/>
      <point x="404" y="1730" type="curve" smooth="yes"/>
      <point x="307" y="1730"/>
      <point x="108" y="1672"/>
      <point x="8" y="1603" type="curve"/>
      <point x="8" y="1533" type="line"/>
      <point x="105" y="1533"/>
      <point x="143" y="1491"/>
      <point x="143" y="1422" type="curve" smooth="yes"/>
      <point x="143" y="57" type="line"/>
      <point x="501" y="110" type="line"/>
    </contour>
    <contour>
      <point x="143" y="57" type="line"/>
      <point x="247" y="7"/>
      <point x="470" y="-31"/>
      <point x="601" y="-31" type="curve" smooth="yes"/>
      <point x="932" y="-31"/>
      <point x="1196" y="212"/>
      <point x="1196" y="638" type="curve" smooth="yes"/>
      <point x="1196" y="1027"/>
      <point x="984" y="1209"/>
      <point x="739" y="1209" type="curve" smooth="yes"/>
      <point x="606" y="1209"/>
      <point x="506" y="1167"/>
      <point x="444" y="1054" type="curve"/>
      <point x="456" y="937" type="line"/>
      <point x="472" y="983"/>
      <point x="517" y="1020"/>
      <point x="586" y="1020" type="curve" smooth="yes"/>
      <point x="720" y="1020"/>
      <point x="824" y="886"/>
      <point x="824" y="561" type="curve" smooth="yes"/>
      <point x="824" y="243"/>
      <point x="728" y="131"/>
      <point x="607" y="131" type="curve" smooth="yes"/>
      <point x="538" y="131"/>
      <point x="489" y="165"/>
      <point x="457" y="242" type="curve"/>
      <point x="247" y="166" type="line"/>
    </contour>
    <contour>
      <point x="898" y="1050" type="move" name="top"/>
    </contour>
    <contour>
      <point x="602" y="-300" type="move" name="btm"/>
    </contour>
  </outline>
</glyph>
<glyph name="c" format="1">
  <advance width="1046"/>
  <unicode hex="0063"/>
  <outline>
    <contour>
      <point x="945" y="283" type="curve" name="hr00"/>
      <point x="889" y="241"/>
      <point x="801" y="216"/>
      <point x="721" y="216" type="curve" smooth="yes"/>
      <point x="550" y="216"/>
      <point x="442" y="320"/>
      <point x="442" y="658" type="curve" smooth="yes"/>
      <point x="442" y="960"/>
      <point x="548" y="1051"/>
      <point x="634" y="1051" type="curve" smooth="yes"/>
      <point x="653" y="1051"/>
      <point x="669" y="1050"/>
      <point x="699" y="1031" type="curve"/>
      <point x="660" y="1004"/>
      <point x="631" y="962"/>
      <point x="631" y="896" type="curve" smooth="yes"/>
      <point x="631" y="802"/>
      <point x="700" y="727"/>
      <point x="800" y="727" type="curve" smooth="yes"/>
      <point x="912" y="727"/>
      <point x="992" y="803"/>
      <point x="992" y="941" type="curve" smooth="yes"/>
      <point x="992" y="1092"/>
      <point x="874" y="1209"/>
      <point x="647" y="1209" type="curve" smooth="yes"/>
      <point x="317" y="1209"/>
      <point x="66" y="973"/>
      <point x="66" y="577" type="curve" smooth="yes"/>
      <point x="66" y="196"/>
      <point x="288" y="-31"/>
      <point x="614" y="-31" type="curve" smooth="yes"/>
      <point x="822" y="-31"/>
      <point x="988" y="78"/>
      <point x="988" y="173" type="curve" smooth="yes"/>
      <point x="988" y="204"/>
      <point x="970" y="255"/>
    </contour>
    <contour>
      <point x="629" y="1050" type="move" name="top"/>
    </contour>
    <contour>
      <point x="597" y="-300" type="move" name="btm"/>
    </contour>
  </outline>
</glyph>
<glyph name="d" format="1">
  <advance width="1287"/>
  <unicode hex="0064"/>
  <outline>
    <contour>
      <point x="1118" y="1121" type="line" name="hr00"/>
      <point x="1014" y="1171"/>
      <point x="782" y="1209"/>
      <point x="651" y="1209" type="curve" smooth="yes"/>
      <point x="320" y="1209"/>
      <point x="66" y="966"/>
      <point x="66" y="540" type="curve" smooth="yes"/>
      <point x="66" y="151"/>
      <point x="278" y="-31"/>
      <point x="523" y="-31" type="curve" smooth="yes"/>
      <point x="656" y="-31"/>
      <point x="756" y="-3"/>
      <point x="818" y="108" type="curve"/>
      <point x="806" y="240" type="line"/>
      <point x="790" y="194"/>
      <point x="745" y="157"/>
      <point x="676" y="157" type="curve" smooth="yes"/>
      <point x="542" y="157"/>
      <point x="438" y="299"/>
      <point x="438" y="617" type="curve" smooth="yes"/>
      <point x="438" y="943"/>
      <point x="534" y="1051"/>
      <point x="655" y="1051" type="curve" smooth="yes"/>
      <point x="724" y="1051"/>
      <point x="773" y="1016"/>
      <point x="805" y="939" type="curve"/>
      <point x="1015" y="1012" type="line"/>
    </contour>
    <contour>
      <point x="1013" y="-31" type="curve" smooth="yes"/>
      <point x="1102" y="-31"/>
      <point x="1204" y="-2"/>
      <point x="1246" y="53" type="curve"/>
      <point x="1244" y="115" type="line"/>
      <point x="1175" y="129"/>
      <point x="1138" y="173"/>
      <point x="1138" y="244" type="curve" smooth="yes"/>
      <point x="1138" y="1629" type="line" smooth="yes"/>
      <point x="1138" y="1703"/>
      <point x="1109" y="1731"/>
      <point x="1040" y="1731" type="curve" smooth="yes"/>
      <point x="943" y="1731"/>
      <point x="740" y="1683"/>
      <point x="631" y="1624" type="curve"/>
      <point x="631" y="1533" type="line"/>
      <point x="754" y="1533"/>
      <point x="780" y="1491"/>
      <point x="780" y="1422" type="curve" smooth="yes"/>
      <point x="780" y="1335" type="line"/>
      <point x="791" y="1051" type="line"/>
      <point x="780" y="1051" type="line"/>
      <point x="780" y="140" type="line" smooth="yes"/>
      <point x="780" y="21"/>
      <point x="906" y="-31"/>
    </contour>
    <contour>
      <point x="453" y="1050" type="move" name="top"/>
    </contour>
    <contour>
      <point x="569" y="-300" type="move" name="btm"/>
    </contour>
  </outline>
</glyph>
<glyph name="e" format="1">
  <advance width="542"/>
  <unicode hex="0065"/>
  <outline>
    <contour>
      <point x="478" y="149" type="curve" name="hr00"/>
      <point x="440" y="122"/>
      <point x="399" y="105"/>
      <point x="351" y="105" type="curve" smooth="yes"/>
      <point x="269" y="105"/>
      <point x="215" y="153"/>
      <point x="215" y="288" type="curve" smooth="yes"/>
      <point x="215" y="334" type="line" smooth="yes"/>
      <point x="215" y="477"/>
      <point x="256" y="515"/>
      <point x="296" y="515" type="curve" smooth="yes"/>
      <point x="328" y="515"/>
      <point x="354" y="494"/>
      <point x="354" y="402" type="curve" smooth="yes"/>
      <point x="354" y="374"/>
      <point x="351" y="353"/>
      <point x="327" y="353" type="curve" smooth="yes"/>
      <point x="157" y="353" type="line"/>
      <point x="153" y="270" type="line"/>
      <point x="443" y="270" type="line" smooth="yes"/>
      <point x="500" y="270"/>
      <point x="513" y="318"/>
      <point x="513" y="374" type="curve" smooth="yes"/>
      <point x="513" y="512"/>
      <point x="434" y="590"/>
      <point x="304" y="590" type="curve" smooth="yes"/>
      <point x="147" y="590"/>
      <point x="32" y="475"/>
      <point x="32" y="284" type="curve" smooth="yes"/>
      <point x="32" y="100"/>
      <point x="135" y="-15"/>
      <point x="297" y="-15" type="curve" smooth="yes"/>
      <point x="422" y="-15"/>
      <point x="499" y="57"/>
      <point x="499" y="92" type="curve" smooth="yes"/>
      <point x="499" y="107"/>
      <point x="490" y="137"/>
    </contour>
    <contour>
      <point x="296" y="-146" type="move" name="btm"/>
    </contour>
    <contour>
      <point x="305" y="513" type="move" name="top"/>
    </contour>
  </outline>
</glyph>
<glyph name="f" format="1">
  <advance width="806"/>
  <unicode hex="0066"/>
  <outline>
    <contour>
      <point x="555" y="978" type="line" name="hr01"/>
      <point x="736" y="978" type="line"/>
      <point x="771" y="1031"/>
      <point x="774" y="1111"/>
      <point x="774" y="1177" type="curve"/>
      <point x="569" y="1177" type="line" smooth="yes"/>
      <point x="469" y="1177"/>
      <point x="451" y="1264"/>
      <point x="451" y="1399" type="curve" smooth="yes"/>
      <point x="451" y="1524"/>
      <point x="516" y="1604"/>
      <point x="571" y="1604" type="curve" smooth="yes" name="hr02"/>
      <point x="590" y="1604"/>
      <point x="598" y="1601"/>
      <point x="614" y="1589" type="curve"/>
      <point x="580" y="1566"/>
      <point x="567" y="1518"/>
      <point x="567" y="1478" type="curve" smooth="yes"/>
      <point x="567" y="1385"/>
      <point x="661" y="1326"/>
      <point x="750" y="1326" type="curve" smooth="yes"/>
      <point x="858" y="1326"/>
      <point x="932" y="1417"/>
      <point x="932" y="1536" type="curve" smooth="yes"/>
      <point x="932" y="1656"/>
      <point x="821" y="1761"/>
      <point x="617" y="1761" type="curve" smooth="yes"/>
      <point x="306" y="1761"/>
      <point x="95" y="1489"/>
      <point x="198" y="1103" type="curve"/>
      <point x="219" y="1200" type="line"/>
      <point x="171" y="1162"/>
      <point x="142" y="1136"/>
      <point x="58" y="1115" type="curve"/>
      <point x="58" y="978" type="line" name="hr03"/>
      <point x="194" y="978" type="line"/>
      <point x="194" y="242" type="line" smooth="yes"/>
      <point x="194" y="154"/>
      <point x="160" y="120"/>
      <point x="72" y="120" type="curve"/>
      <point x="72" y="71"/>
      <point x="90" y="34"/>
      <point x="124" y="0" type="curve"/>
      <point x="712" y="0" type="line"/>
      <point x="745" y="34"/>
      <point x="764" y="71"/>
      <point x="764" y="120" type="curve"/>
      <point x="586" y="120"/>
      <point x="555" y="162"/>
      <point x="555" y="262" type="curve" smooth="yes"/>
    </contour>
    <contour>
      <point x="446" y="1633" type="move" name="top"/>
    </contour>
    <contour>
      <point x="384" y="-300" type="move" name="btm"/>
    </contour>
  </outline>
</glyph>
<glyph name="g" format="1">
  <advance width="1184"/>
  <unicode hex="0067"/>
  <outline>
    <contour>
      <point x="468" y="792" type="curve" smooth="yes" name="hr00"/>
      <point x="468" y="964"/>
      <point x="505" y="1051"/>
      <point x="588" y="1051" type="curve" smooth="yes"/>
      <point x="658" y="1051"/>
      <point x="709" y="987"/>
      <point x="709" y="830" type="curve" smooth="yes"/>
      <point x="709" y="639"/>
      <point x="658" y="573"/>
      <point x="586" y="573" type="curve" smooth="yes"/>
      <point x="515" y="573"/>
      <point x="468" y="639"/>
    </contour>
    <contour>
      <point x="417" y="383" type="curve" smooth="yes"/>
      <point x="417" y="441"/>
      <point x="470" y="489"/>
      <point x="568" y="489" type="curve"/>
      <point x="536" y="568" type="line"/>
      <point x="325" y="539"/>
      <point x="176" y="436"/>
      <point x="176" y="309" type="curve" smooth="yes"/>
      <point x="176" y="87"/>
      <point x="434" y="41"/>
      <point x="645" y="-2" type="curve"/>
      <point x="738" y="-27"/>
      <point x="840" y="-68"/>
      <point x="843" y="-156" type="curve" smooth="yes"/>
      <point x="846" y="-239"/>
      <point x="757" y="-306"/>
      <point x="642" y="-306" type="curve" smooth="yes"/>
      <point x="460" y="-306"/>
      <point x="365" y="-215"/>
      <point x="365" y="-99" type="curve" smooth="yes"/>
      <point x="365" y="-33"/>
      <point x="378" y="46"/>
      <point x="485" y="78" type="curve"/>
      <point x="362" y="133" type="line"/>
      <point x="153" y="105"/>
      <point x="59" y="-15"/>
      <point x="59" y="-148" type="curve" smooth="yes"/>
      <point x="59" y="-332"/>
      <point x="222" y="-475"/>
      <point x="626" y="-475" type="curve" smooth="yes"/>
      <point x="952" y="-475"/>
      <point x="1187" y="-316"/>
      <point x="1187" y="-97" type="curve" smooth="yes"/>
      <point x="1187" y="150"/>
      <point x="972" y="217"/>
      <point x="623" y="277" type="curve"/>
      <point x="489" y="298"/>
      <point x="417" y="314"/>
    </contour>
    <contour>
      <point x="870" y="1315" type="line"/>
      <point x="907" y="1241"/>
      <point x="966" y="1239"/>
      <point x="1021" y="1239" type="curve" smooth="yes"/>
      <point x="1118" y="1239"/>
      <point x="1176" y="1304"/>
      <point x="1176" y="1385" type="curve" smooth="yes"/>
      <point x="1176" y="1449"/>
      <point x="1109" y="1516"/>
      <point x="1008" y="1516" type="curve" smooth="yes"/>
      <point x="840" y="1516"/>
      <point x="704" y="1447"/>
      <point x="704" y="1303" type="curve" smooth="yes"/>
      <point x="704" y="1270"/>
      <point x="721" y="1206"/>
      <point x="733" y="1186" type="curve"/>
      <point x="703" y="1196"/>
      <point x="653" y="1209"/>
      <point x="568" y="1209" type="curve" smooth="yes"/>
      <point x="264" y="1209"/>
      <point x="72" y="1042"/>
      <point x="72" y="817" type="curve" smooth="yes"/>
      <point x="72" y="578"/>
      <point x="288" y="415"/>
      <point x="579" y="415" type="curve" smooth="yes"/>
      <point x="883" y="415"/>
      <point x="1103" y="593"/>
      <point x="1103" y="832" type="curve" smooth="yes"/>
      <point x="1103" y="999"/>
      <point x="1010" y="1102"/>
      <point x="868" y="1160" type="curve"/>
      <point x="868" y="1266"/>
      <point x="871" y="1312"/>
      <point x="1014" y="1342" type="curve"/>
    </contour>
    <contour>
      <point x="598" y="1050" type="move" name="top"/>
    </contour>
    <contour>
      <point x="617" y="-300" type="move" name="btm"/>
    </contour>
  </outline>
</glyph>
<glyph name="h" format="1">
  <advance width="1296"/>
  <unicode hex="0068"/>
  <outline>
    <contour>
      <point x="1172" y="906" type="line" smooth="yes" name="hr00"/>
      <point x="1172" y="1103"/>
      <point x="1066" y="1209"/>
      <point x="858" y="1209" type="curve" smooth="yes"/>
      <point x="685" y="1209"/>
      <point x="556" y="1143"/>
      <point x="484" y="1033" type="curve"/>
      <point x="489" y="871" type="line"/>
      <point x="526" y="945"/>
      <point x="594" y="992"/>
      <point x="662" y="992" type="curve" smooth="yes"/>
      <point x="747" y="992"/>
      <point x="808" y="939"/>
      <point x="808" y="844" type="curve" smooth="yes"/>
      <point x="808" y="85" type="line" smooth="yes"/>
      <point x="808" y="-14"/>
      <point x="898" y="-31"/>
      <point x="1007" y="-31" type="curve" smooth="yes"/>
      <point x="1116" y="-31"/>
      <point x="1228" y="-5"/>
      <point x="1280" y="43" type="curve"/>
      <point x="1278" y="105" type="line"/>
      <point x="1209" y="119"/>
      <point x="1172" y="163"/>
      <point x="1172" y="234" type="curve" smooth="yes"/>
    </contour>
    <contour>
      <point x="150" y="241" type="line" smooth="yes"/>
      <point x="150" y="153"/>
      <point x="116" y="119"/>
      <point x="28" y="119" type="curve"/>
      <point x="28" y="70"/>
      <point x="46" y="34"/>
      <point x="80" y="0" type="curve"/>
      <point x="581" y="0" type="line"/>
      <point x="615" y="34"/>
      <point x="633" y="70"/>
      <point x="633" y="119" type="curve"/>
      <point x="545" y="119"/>
      <point x="511" y="152"/>
      <point x="511" y="240" type="curve" smooth="yes"/>
      <point x="511" y="964" type="line"/>
      <point x="505" y="999" type="line"/>
      <point x="511" y="1212" type="line"/>
      <point x="511" y="1628" type="line" smooth="yes"/>
      <point x="511" y="1702"/>
      <point x="482" y="1730"/>
      <point x="413" y="1730" type="curve" smooth="yes"/>
      <point x="316" y="1730"/>
      <point x="110" y="1682"/>
      <point x="1" y="1623" type="curve"/>
      <point x="1" y="1533" type="line"/>
      <point x="124" y="1533"/>
      <point x="150" y="1491"/>
      <point x="150" y="1422" type="curve" smooth="yes"/>
    </contour>
    <contour>
      <point x="851" y="1050" type="move" name="top"/>
    </contour>
    <contour>
      <point x="640" y="-300" type="move" name="btm"/>
    </contour>
  </outline>
</glyph>
<glyph name="i" format="1">
  <advance width="725"/>
  <unicode hex="0069"/>
  <outline>
    <contour>
      <point x="563" y="1106" type="line" smooth="yes" name="hr00"/>
      <point x="563" y="1180"/>
      <point x="533" y="1209"/>
      <point x="464" y="1209" type="curve" smooth="yes"/>
      <point x="367" y="1209"/>
      <point x="184" y="1160"/>
      <point x="75" y="1101" type="curve"/>
      <point x="75" y="1002" type="line"/>
      <point x="198" y="1002"/>
      <point x="205" y="960"/>
      <point x="205" y="891" type="curve" smooth="yes"/>
      <point x="205" y="241" type="line" smooth="yes"/>
      <point x="205" y="153"/>
      <point x="171" y="119"/>
      <point x="83" y="119" type="curve"/>
      <point x="83" y="70"/>
      <point x="101" y="34"/>
      <point x="135" y="0" type="curve"/>
      <point x="633" y="0" type="line"/>
      <point x="667" y="34"/>
      <point x="685" y="70"/>
      <point x="685" y="119" type="curve"/>
      <point x="597" y="119"/>
      <point x="563" y="152"/>
      <point x="563" y="240" type="curve" smooth="yes"/>
    </contour>
    <contour>
      <point x="582" y="1551" type="curve" smooth="yes"/>
      <point x="582" y="1671"/>
      <point x="503" y="1750"/>
      <point x="380" y="1750" type="curve" smooth="yes"/>
      <point x="257" y="1750"/>
      <point x="178" y="1671"/>
      <point x="178" y="1551" type="curve" smooth="yes"/>
      <point x="178" y="1431"/>
      <point x="257" y="1352"/>
      <point x="380" y="1352" type="curve" smooth="yes"/>
      <point x="503" y="1352"/>
      <point x="582" y="1431"/>
    </contour>
    <contour>
      <point x="380" y="1050" type="move" name="top"/>
    </contour>
    <contour>
      <point x="380" y="-300" type="move" name="btm"/>
    </contour>
  </outline>
</glyph>
<glyph name="j" format="1">
  <advance width="335"/>
  <unicode hex="006A"/>
  <outline>
    <contour>
      <point x="283" y="757" type="curve" name="hr00" smooth="yes"/>
      <point x="283" y="816"/>
      <point x="244" y="854"/>
      <point x="184" y="854" type="curve" smooth="yes"/>
      <point x="124" y="854"/>
      <point x="85" y="816"/>
      <point x="85" y="757" type="curve" smooth="yes"/>
      <point x="85" y="699"/>
      <point x="124" y="660"/>
      <point x="184" y="660" type="curve" smooth="yes"/>
      <point x="244" y="660"/>
      <point x="283" y="699"/>
    </contour>
    <contour>
      <point x="97" y="-213" type="curve" smooth="yes"/>
      <point x="192" y="-213"/>
      <point x="273" y="-149"/>
      <point x="273" y="-10" type="curve" smooth="yes"/>
      <point x="273" y="540" type="line" smooth="yes"/>
      <point x="273" y="577"/>
      <point x="261" y="590"/>
      <point x="226" y="590" type="curve" smooth="yes"/>
      <point x="180" y="590"/>
      <point x="80" y="566"/>
      <point x="26" y="538" type="curve"/>
      <point x="26" y="489" type="line"/>
      <point x="86" y="489"/>
      <point x="99" y="469"/>
      <point x="99" y="435" type="curve" smooth="yes"/>
      <point x="99" y="-2" type="line" smooth="yes"/>
      <point x="99" y="-93"/>
      <point x="66" y="-122"/>
      <point x="9" y="-122" type="curve"/>
      <point x="3" y="-129"/>
      <point x="-1" y="-144"/>
      <point x="-1" y="-154" type="curve" smooth="yes"/>
      <point x="-1" y="-181"/>
      <point x="29" y="-213"/>
    </contour>
    <contour>
      <point x="141" y="-146" type="move" name="btm"/>
    </contour>
    <contour>
      <point x="141" y="513" type="move" name="top"/>
    </contour>
  </outline>
</glyph>
<glyph name="k" format="1">
  <advance width="1243"/>
  <unicode hex="006B"/>
  <outline>
    <contour>
      <point x="494" y="565" type="line" name="hr00"/>
      <point x="732" y="486"/>
      <point x="641" y="-31"/>
      <point x="1061" y="-31" type="curve" smooth="yes"/>
      <point x="1169" y="-31"/>
      <point x="1271" y="3"/>
      <point x="1280" y="65" type="curve"/>
      <point x="1280" y="118" type="line"/>
      <point x="1164" y="161"/>
      <point x="1156" y="216"/>
      <point x="1005" y="454" type="curve" smooth="yes"/>
      <point x="909" y="606"/>
      <point x="819" y="642"/>
      <point x="630" y="642" type="curve"/>
    </contour>
    <contour>
      <point x="150" y="241" type="line" smooth="yes"/>
      <point x="150" y="153"/>
      <point x="116" y="119"/>
      <point x="28" y="119" type="curve"/>
      <point x="28" y="70"/>
      <point x="46" y="34"/>
      <point x="80" y="0" type="curve"/>
      <point x="581" y="0" type="line"/>
      <point x="615" y="34"/>
      <point x="633" y="70"/>
      <point x="633" y="119" type="curve"/>
      <point x="545" y="119"/>
      <point x="511" y="152"/>
      <point x="511" y="240" type="curve" smooth="yes"/>
      <point x="511" y="1628" type="line" smooth="yes"/>
      <point x="511" y="1703"/>
      <point x="482" y="1730"/>
      <point x="411" y="1730" type="curve" smooth="yes"/>
      <point x="317" y="1730"/>
      <point x="110" y="1682"/>
      <point x="1" y="1623" type="curve"/>
      <point x="1" y="1533" type="line"/>
      <point x="124" y="1533"/>
      <point x="150" y="1491"/>
      <point x="150" y="1422" type="curve" smooth="yes"/>
    </contour>
    <contour>
      <point x="1105" y="980" type="line" smooth="yes"/>
      <point x="1136" y="1008"/>
      <point x="1167" y="1042"/>
      <point x="1247" y="1042" type="curve"/>
      <point x="1247" y="1091"/>
      <point x="1239" y="1143"/>
      <point x="1205" y="1177" type="curve"/>
      <point x="733" y="1177" type="line"/>
      <point x="699" y="1143"/>
      <point x="681" y="1091"/>
      <point x="681" y="1042" type="curve"/>
      <point x="768" y="1042"/>
      <point x="813" y="952"/>
      <point x="749" y="890" type="curve" smooth="yes"/>
      <point x="503" y="640" type="line"/>
      <point x="503" y="567" type="line"/>
      <point x="733" y="618" type="line"/>
    </contour>
    <contour>
      <point x="827" y="1050" type="move" name="top"/>
    </contour>
    <contour>
      <point x="645" y="-300" type="move" name="btm"/>
    </contour>
  </outline>
</glyph>
<glyph name="l" format="1">
  <advance width="689"/>
  <unicode hex="006C"/>
  <outline>
    <contour>
      <point x="179" y="241" type="line" smooth="yes" name="hr00"/>
      <point x="179" y="153"/>
      <point x="145" y="119"/>
      <point x="57" y="119" type="curve"/>
      <point x="57" y="70"/>
      <point x="75" y="34"/>
      <point x="109" y="0" type="curve"/>
      <point x="607" y="0" type="line"/>
      <point x="641" y="34"/>
      <point x="659" y="70"/>
      <point x="659" y="119" type="curve"/>
      <point x="571" y="119"/>
      <point x="537" y="152"/>
      <point x="537" y="240" type="curve" smooth="yes"/>
      <point x="537" y="1628" type="line" smooth="yes"/>
      <point x="537" y="1702"/>
      <point x="508" y="1730"/>
      <point x="439" y="1730" type="curve" smooth="yes"/>
      <point x="342" y="1730"/>
      <point x="139" y="1682"/>
      <point x="30" y="1623" type="curve"/>
      <point x="30" y="1533" type="line"/>
      <point x="153" y="1533"/>
      <point x="179" y="1491"/>
      <point x="179" y="1422" type="curve" smooth="yes"/>
    </contour>
    <contour>
      <point x="353" y="1552" type="move" name="top"/>
    </contour>
    <contour>
      <point x="344" y="-300" type="move" name="btm"/>
    </contour>
  </outline>
</glyph>
<glyph name="m" format="1">
  <advance width="1982"/>
  <unicode hex="006D"/>
  <outline>
    <contour>
      <point x="1848" y="906" type="line" smooth="yes" name="hr01"/>
      <point x="1848" y="1103"/>
      <point x="1743" y="1209"/>
      <point x="1530" y="1209" type="curve" smooth="yes"/>
      <point x="1362" y="1209"/>
      <point x="1236" y="1143"/>
      <point x="1164" y="1033" type="curve"/>
      <point x="1167" y="871" type="line"/>
      <point x="1206" y="947"/>
      <point x="1273" y="992"/>
      <point x="1346" y="992" type="curve" smooth="yes" name="hr02"/>
      <point x="1425" y="992"/>
      <point x="1484" y="939"/>
      <point x="1484" y="844" type="curve" smooth="yes"/>
      <point x="1484" y="85" type="line" smooth="yes"/>
      <point x="1484" y="-8"/>
      <point x="1574" y="-31"/>
      <point x="1683" y="-31" type="curve" smooth="yes"/>
      <point x="1822" y="-31"/>
      <point x="1904" y="-5"/>
      <point x="1956" y="43" type="curve"/>
      <point x="1956" y="105" type="line"/>
      <point x="1887" y="119"/>
      <point x="1848" y="153"/>
      <point x="1848" y="224" type="curve" smooth="yes"/>
    </contour>
    <contour>
      <point x="1208" y="906" type="line" smooth="yes"/>
      <point x="1208" y="1103"/>
      <point x="1100" y="1209"/>
      <point x="887" y="1209" type="curve" smooth="yes"/>
      <point x="719" y="1209"/>
      <point x="589" y="1139"/>
      <point x="517" y="1029" type="curve"/>
      <point x="522" y="871" type="line"/>
      <point x="561" y="947"/>
      <point x="631" y="992"/>
      <point x="704" y="992" type="curve" smooth="yes"/>
      <point x="783" y="992"/>
      <point x="844" y="939"/>
      <point x="844" y="844" type="curve" smooth="yes"/>
      <point x="844" y="241" type="line" smooth="yes"/>
      <point x="844" y="153"/>
      <point x="815" y="119"/>
      <point x="741" y="119" type="curve" name="hr03"/>
      <point x="741" y="70"/>
      <point x="760" y="34"/>
      <point x="793" y="0" type="curve"/>
      <point x="1266" y="0" type="line"/>
      <point x="1300" y="34"/>
      <point x="1318" y="70"/>
      <point x="1318" y="119" type="curve"/>
      <point x="1241" y="119"/>
      <point x="1207" y="153"/>
      <point x="1207" y="241" type="curve" smooth="yes"/>
    </contour>
    <contour>
      <point x="597" y="0" type="line"/>
      <point x="631" y="34"/>
      <point x="649" y="70"/>
      <point x="649" y="119" type="curve"/>
      <point x="575" y="119"/>
      <point x="547" y="152"/>
      <point x="547" y="240" type="curve" smooth="yes"/>
      <point x="549" y="1013" type="line" smooth="yes"/>
      <point x="549" y="1174"/>
      <point x="503" y="1209"/>
      <point x="434" y="1209" type="curve" smooth="yes"/>
      <point x="352" y="1209"/>
      <point x="139" y="1160"/>
      <point x="35" y="1101" type="curve"/>
      <point x="35" y="1002" type="line"/>
      <point x="149" y="1002"/>
      <point x="183" y="969"/>
      <point x="183" y="891" type="curve" smooth="yes"/>
      <point x="183" y="241" type="line" smooth="yes"/>
      <point x="183" y="153"/>
      <point x="149" y="119"/>
      <point x="61" y="119" type="curve"/>
      <point x="61" y="70"/>
      <point x="79" y="34"/>
      <point x="113" y="0" type="curve"/>
    </contour>
    <contour>
      <point x="1025" y="1050" type="move" name="top"/>
    </contour>
    <contour>
      <point x="995" y="-300" type="move" name="btm"/>
    </contour>
  </outline>
</glyph>
<glyph name="n" format="1">
  <advance width="1332"/>
  <unicode hex="006E"/>
  <outline>
    <contour>
      <point x="1195" y="906" type="line" smooth="yes" name="hr00"/>
      <point x="1195" y="1103"/>
      <point x="1090" y="1209"/>
      <point x="880" y="1209" type="curve" smooth="yes"/>
      <point x="714" y="1209"/>
      <point x="587" y="1143"/>
      <point x="517" y="1033" type="curve"/>
      <point x="522" y="891" type="line"/>
      <point x="558" y="951"/>
      <point x="624" y="992"/>
      <point x="697" y="992" type="curve" smooth="yes"/>
      <point x="773" y="992"/>
      <point x="831" y="939"/>
      <point x="831" y="844" type="curve" smooth="yes"/>
      <point x="831" y="65" type="line" smooth="yes"/>
      <point x="831" y="-22"/>
      <point x="903" y="-31"/>
      <point x="1030" y="-31" type="curve" smooth="yes"/>
      <point x="1127" y="-31"/>
      <point x="1257" y="-5"/>
      <point x="1303" y="43" type="curve"/>
      <point x="1301" y="105" type="line"/>
      <point x="1232" y="119"/>
      <point x="1195" y="163"/>
      <point x="1195" y="234" type="curve" smooth="yes"/>
    </contour>
    <contour>
      <point x="614" y="0" type="line"/>
      <point x="648" y="34"/>
      <point x="666" y="71"/>
      <point x="666" y="120" type="curve"/>
      <point x="578" y="120"/>
      <point x="544" y="153"/>
      <point x="544" y="241" type="curve" smooth="yes"/>
      <point x="544" y="1013" type="line" smooth="yes"/>
      <point x="544" y="1174"/>
      <point x="500" y="1209"/>
      <point x="431" y="1209" type="curve" smooth="yes"/>
      <point x="349" y="1209"/>
      <point x="136" y="1160"/>
      <point x="32" y="1101" type="curve"/>
      <point x="32" y="1002" type="line"/>
      <point x="146" y="1002"/>
      <point x="180" y="969"/>
      <point x="180" y="891" type="curve" smooth="yes"/>
      <point x="180" y="242" type="line" smooth="yes"/>
      <point x="180" y="154"/>
      <point x="146" y="120"/>
      <point x="58" y="120" type="curve"/>
      <point x="58" y="71"/>
      <point x="76" y="34"/>
      <point x="110" y="0" type="curve"/>
    </contour>
    <contour>
      <point x="721" y="1050" type="move" name="top"/>
    </contour>
    <contour>
      <point x="667" y="-300" type="move" name="btm"/>
    </contour>
  </outline>
</glyph>
<glyph name="o" format="1">
  <advance width="600"/>
  <unicode hex="006F"/>
  <outline>
    <contour>
      <point x="223" y="307" type="curve" name="hr00" smooth="yes"/>
      <point x="223" y="477"/>
      <point x="251" y="513"/>
      <point x="296" y="513" type="curve" smooth="yes"/>
      <point x="347" y="513"/>
      <point x="378" y="473"/>
      <point x="378" y="269" type="curve" smooth="yes"/>
      <point x="378" y="100"/>
      <point x="350" y="63"/>
      <point x="304" y="63" type="curve" smooth="yes"/>
      <point x="254" y="63"/>
      <point x="223" y="103"/>
    </contour>
    <contour>
      <point x="294" y="-15" type="curve" smooth="yes"/>
      <point x="456" y="-15"/>
      <point x="570" y="93"/>
      <point x="570" y="295" type="curve" smooth="yes"/>
      <point x="570" y="488"/>
      <point x="461" y="590"/>
      <point x="306" y="590" type="curve" smooth="yes"/>
      <point x="147" y="590"/>
      <point x="34" y="485"/>
      <point x="31" y="288" type="curve" smooth="yes"/>
      <point x="27" y="90"/>
      <point x="136" y="-15"/>
    </contour>
    <contour>
      <point x="300" y="-146" type="move" name="btm"/>
    </contour>
    <contour>
      <point x="300" y="513" type="move" name="top"/>
    </contour>
  </outline>
</glyph>
<glyph name="p" format="1">
  <advance width="1262"/>
  <unicode hex="0070"/>
  <outline>
    <contour>
      <point x="244" y="166" type="line" name="hr00"/>
      <point x="183" y="37"/>
      <point x="246" y="18"/>
      <point x="315" y="4" type="curve" smooth="yes"/>
      <point x="419" y="-18"/>
      <point x="532" y="-31"/>
      <point x="611" y="-31" type="curve" smooth="yes"/>
      <point x="942" y="-31"/>
      <point x="1196" y="212"/>
      <point x="1196" y="638" type="curve" smooth="yes"/>
      <point x="1196" y="1027"/>
      <point x="994" y="1209"/>
      <point x="759" y="1209" type="curve" smooth="yes"/>
      <point x="626" y="1209"/>
      <point x="510" y="1167"/>
      <point x="444" y="1054" type="curve"/>
      <point x="456" y="927" type="line"/>
      <point x="472" y="973"/>
      <point x="517" y="1010"/>
      <point x="586" y="1010" type="curve" smooth="yes"/>
      <point x="720" y="1010"/>
      <point x="824" y="886"/>
      <point x="824" y="561" type="curve" smooth="yes"/>
      <point x="824" y="243"/>
      <point x="728" y="130"/>
      <point x="607" y="130" type="curve" smooth="yes"/>
      <point x="538" y="130"/>
      <point x="489" y="164"/>
      <point x="457" y="241" type="curve"/>
    </contour>
    <contour>
      <point x="614" y="-430" type="line"/>
      <point x="648" y="-396"/>
      <point x="666" y="-360"/>
      <point x="666" y="-311" type="curve"/>
      <point x="599" y="-311"/>
      <point x="525" y="-277"/>
      <point x="525" y="-189" type="curve" smooth="yes"/>
      <point x="525" y="1005" type="line"/>
      <point x="505" y="1013" type="line" smooth="yes"/>
      <point x="505" y="1174"/>
      <point x="457" y="1209"/>
      <point x="376" y="1209" type="curve" smooth="yes"/>
      <point x="298" y="1209"/>
      <point x="114" y="1160"/>
      <point x="16" y="1101" type="curve"/>
      <point x="16" y="1002" type="line"/>
      <point x="130" y="1002"/>
      <point x="164" y="969"/>
      <point x="164" y="891" type="curve" smooth="yes"/>
      <point x="164" y="-189" type="line" smooth="yes"/>
      <point x="164" y="-277"/>
      <point x="150" y="-311"/>
      <point x="62" y="-311" type="curve"/>
      <point x="62" y="-360"/>
      <point x="80" y="-396"/>
      <point x="114" y="-430" type="curve"/>
    </contour>
    <contour>
      <point x="662" y="1050" type="move" name="top"/>
    </contour>
    <contour>
      <point x="606" y="-300" type="move" name="btm"/>
    </contour>
  </outline>
</glyph>
<glyph name="q" format="1">
  <advance width="1261"/>
  <unicode hex="0071"/>
  <outline>
    <contour>
      <point x="1119" y="920" type="line" smooth="yes" name="hr00"/>
      <point x="1119" y="1008"/>
      <point x="1123" y="1042"/>
      <point x="1211" y="1042" type="curve"/>
      <point x="1211" y="1091"/>
      <point x="1193" y="1143"/>
      <point x="1159" y="1177" type="curve"/>
      <point x="1013" y="1177" type="line" smooth="yes"/>
      <point x="876" y="1177"/>
      <point x="758" y="1113"/>
      <point x="758" y="1039" type="curve" smooth="yes"/>
      <point x="758" y="-359" type="line" smooth="yes"/>
      <point x="758" y="-452"/>
      <point x="845" y="-475"/>
      <point x="954" y="-475" type="curve" smooth="yes"/>
      <point x="1093" y="-475"/>
      <point x="1175" y="-449"/>
      <point x="1227" y="-401" type="curve"/>
      <point x="1227" y="-339" type="line"/>
      <point x="1158" y="-325"/>
      <point x="1119" y="-291"/>
      <point x="1119" y="-220" type="curve"/>
    </contour>
    <contour>
      <point x="1026" y="1121" type="line"/>
      <point x="922" y="1171"/>
      <point x="782" y="1209"/>
      <point x="651" y="1209" type="curve" smooth="yes"/>
      <point x="320" y="1209"/>
      <point x="66" y="966"/>
      <point x="66" y="540" type="curve" smooth="yes"/>
      <point x="66" y="151"/>
      <point x="278" y="-31"/>
      <point x="523" y="-31" type="curve" smooth="yes"/>
      <point x="656" y="-31"/>
      <point x="756" y="17"/>
      <point x="818" y="128" type="curve"/>
      <point x="806" y="245" type="line"/>
      <point x="790" y="199"/>
      <point x="745" y="162"/>
      <point x="676" y="162" type="curve" smooth="yes"/>
      <point x="542" y="162"/>
      <point x="438" y="299"/>
      <point x="438" y="617" type="curve" smooth="yes"/>
      <point x="438" y="943"/>
      <point x="534" y="1051"/>
      <point x="655" y="1051" type="curve" smooth="yes"/>
      <point x="724" y="1051"/>
      <point x="793" y="1016"/>
      <point x="825" y="939" type="curve"/>
      <point x="1018" y="1012" type="line"/>
    </contour>
    <contour>
      <point x="646" y="1050" type="move" name="top"/>
    </contour>
    <contour>
      <point x="646" y="-300" type="move" name="btm"/>
    </contour>
  </outline>
</glyph>
<glyph name="r" format="1">
  <advance width="468"/>
  <unicode hex="0072"/>
  <outline>
    <contour>
      <point x="346" y="512" type="line" name="hr00"/>
      <point x="333" y="504"/>
      <point x="319" y="494"/>
      <point x="319" y="466" type="curve" smooth="yes"/>
      <point x="319" y="432"/>
      <point x="344" y="399"/>
      <point x="393" y="399" type="curve" smooth="yes"/>
      <point x="447" y="399"/>
      <point x="486" y="436"/>
      <point x="486" y="496" type="curve" smooth="yes"/>
      <point x="486" y="548"/>
      <point x="454" y="590"/>
      <point x="395" y="590" type="curve" smooth="yes"/>
      <point x="322" y="590"/>
      <point x="258" y="542"/>
      <point x="240" y="496" type="curve"/>
      <point x="222" y="402" type="line"/>
      <point x="271" y="484"/>
      <point x="313" y="492"/>
      <point x="364" y="496" type="curve"/>
    </contour>
    <contour>
      <point x="267" y="478" type="line"/>
      <point x="257" y="495" type="line"/>
      <point x="257" y="573"/>
      <point x="243" y="590"/>
      <point x="209" y="590" type="curve" smooth="yes"/>
      <point x="169" y="590"/>
      <point x="68" y="566"/>
      <point x="17" y="538" type="curve"/>
      <point x="17" y="489" type="line"/>
      <point x="73" y="489"/>
      <point x="89" y="473"/>
      <point x="89" y="435" type="curve" smooth="yes"/>
      <point x="89" y="118" type="line" smooth="yes"/>
      <point x="89" y="75"/>
      <point x="73" y="58"/>
      <point x="30" y="58" type="curve"/>
      <point x="30" y="34"/>
      <point x="39" y="17"/>
      <point x="55" y="0" type="curve"/>
      <point x="347" y="0" type="line"/>
      <point x="363" y="17"/>
      <point x="373" y="34"/>
      <point x="373" y="58" type="curve"/>
      <point x="286" y="58"/>
      <point x="267" y="79"/>
      <point x="267" y="127" type="curve" smooth="yes"/>
    </contour>
    <contour>
      <point x="188" y="-146" type="move" name="btm"/>
    </contour>
    <contour>
      <point x="271" y="513" type="move" name="top"/>
    </contour>
  </outline>
</glyph>
<glyph name="s" format="1">
  <advance width="524"/>
  <unicode hex="0073"/>
  <outline>
    <contour>
      <point x="255" y="-15" type="curve" name="hr00" smooth="yes"/>
      <point x="377" y="-15"/>
      <point x="497" y="34"/>
      <point x="497" y="156" type="curve" smooth="yes"/>
      <point x="497" y="354"/>
      <point x="214" y="345"/>
      <point x="214" y="460" type="curve" smooth="yes"/>
      <point x="214" y="493"/>
      <point x="238" y="521"/>
      <point x="286" y="521" type="curve" smooth="yes"/>
      <point x="314" y="521"/>
      <point x="335" y="514"/>
      <point x="352" y="501" type="curve"/>
      <point x="341" y="488"/>
      <point x="334" y="464"/>
      <point x="334" y="448" type="curve" smooth="yes"/>
      <point x="334" y="411"/>
      <point x="368" y="386"/>
      <point x="404" y="386" type="curve" smooth="yes"/>
      <point x="444" y="386"/>
      <point x="477" y="416"/>
      <point x="477" y="461" type="curve" smooth="yes"/>
      <point x="477" y="522"/>
      <point x="420" y="590"/>
      <point x="272" y="590" type="curve" smooth="yes"/>
      <point x="125" y="590"/>
      <point x="42" y="516"/>
      <point x="42" y="420" type="curve" smooth="yes"/>
      <point x="42" y="233"/>
      <point x="327" y="216"/>
      <point x="327" y="118" type="curve" smooth="yes"/>
      <point x="327" y="89"/>
      <point x="300" y="64"/>
      <point x="250" y="64" type="curve" smooth="yes"/>
      <point x="218" y="64"/>
      <point x="181" y="75"/>
      <point x="168" y="87" type="curve"/>
      <point x="180" y="102"/>
      <point x="186" y="116"/>
      <point x="186" y="134" type="curve" smooth="yes"/>
      <point x="186" y="177"/>
      <point x="153" y="205"/>
      <point x="113" y="205" type="curve" smooth="yes"/>
      <point x="69" y="205"/>
      <point x="35" y="172"/>
      <point x="35" y="120" type="curve" smooth="yes"/>
      <point x="35" y="37"/>
      <point x="133" y="-15"/>
    </contour>
    <contour>
      <point x="266" y="-146" type="move" name="btm"/>
    </contour>
    <contour>
      <point x="274" y="513" type="move" name="top"/>
    </contour>
  </outline>
</glyph>
<glyph name="t" format="1">
  <advance width="399"/>
  <unicode hex="0074"/>
  <outline>
    <contour>
      <point x="343" y="478" type="line" name="hr00"/>
      <point x="367" y="502"/>
      <point x="374" y="540"/>
      <point x="374" y="575" type="curve"/>
      <point x="233" y="575" type="line"/>
      <point x="234" y="700" type="line" smooth="yes"/>
      <point x="234" y="735"/>
      <point x="203" y="747"/>
      <point x="161" y="747" type="curve"/>
      <point x="126" y="640"/>
      <point x="92" y="586"/>
      <point x="15" y="551" type="curve"/>
      <point x="15" y="484" type="line"/>
      <point x="65" y="484" type="line"/>
      <point x="65" y="146" type="line" smooth="yes"/>
      <point x="65" y="27"/>
      <point x="140" y="-15"/>
      <point x="237" y="-15" type="curve" smooth="yes"/>
      <point x="351" y="-15"/>
      <point x="397" y="27"/>
      <point x="397" y="74" type="curve" smooth="yes"/>
      <point x="397" y="87"/>
      <point x="392" y="119"/>
      <point x="376" y="131" type="curve"/>
      <point x="364" y="119"/>
      <point x="338" y="106"/>
      <point x="311" y="106" type="curve" smooth="yes"/>
      <point x="266" y="106"/>
      <point x="235" y="116"/>
      <point x="235" y="177" type="curve" smooth="yes"/>
      <point x="235" y="478" type="line"/>
    </contour>
    <contour>
      <point x="206" y="-146" type="move" name="btm"/>
    </contour>
    <contour>
      <point x="157" y="652" type="move" name="top"/>
    </contour>
  </outline>
</glyph>
<glyph name="u" format="1">
  <advance width="1281"/>
  <unicode hex="0075"/>
  <outline>
    <contour>
      <point x="772" y="192" type="line" smooth="yes" name="hr01"/>
      <point x="772" y="49"/>
      <point x="862" y="-31"/>
      <point x="983" y="-31" type="curve" smooth="yes"/>
      <point x="1079" y="-31"/>
      <point x="1194" y="-2"/>
      <point x="1242" y="53" type="curve"/>
      <point x="1242" y="115" type="line"/>
      <point x="1173" y="122"/>
      <point x="1134" y="173"/>
      <point x="1134" y="244" type="curve" smooth="yes"/>
      <point x="1134" y="1062" type="line" smooth="yes"/>
      <point x="1133" y="1167"/>
      <point x="1103" y="1189"/>
      <point x="988" y="1189" type="curve" smooth="yes"/>
      <point x="820" y="1189"/>
      <point x="687" y="1131"/>
      <point x="648" y="1101" type="curve"/>
      <point x="648" y="1002" type="line"/>
      <point x="728" y="1002"/>
      <point x="772" y="985"/>
      <point x="772" y="933" type="curve"/>
    </contour>
    <contour>
      <point x="151" y="322" type="line"/>
      <point x="151" y="106"/>
      <point x="270" y="-31"/>
      <point x="478" y="-31" type="curve" smooth="yes"/>
      <point x="614" y="-31"/>
      <point x="725" y="27"/>
      <point x="798" y="144" type="curve"/>
      <point x="793" y="306" type="line"/>
      <point x="757" y="240"/>
      <point x="685" y="178"/>
      <point x="612" y="178" type="curve" smooth="yes" name="hr02"/>
      <point x="536" y="178"/>
      <point x="513" y="227"/>
      <point x="513" y="316" type="curve" smooth="yes"/>
      <point x="513" y="1062" type="line" smooth="yes"/>
      <point x="513" y="1167"/>
      <point x="487" y="1189"/>
      <point x="372" y="1189" type="curve" smooth="yes"/>
      <point x="214" y="1189"/>
      <point x="79" y="1131"/>
      <point x="42" y="1101" type="curve"/>
      <point x="42" y="1002" type="line"/>
      <point x="110" y="1002"/>
      <point x="151" y="985"/>
      <point x="151" y="933" type="curve"/>
    </contour>
    <contour>
      <point x="642" y="1050" type="move" name="top"/>
    </contour>
    <contour>
      <point x="642" y="-300" type="move" name="btm"/>
    </contour>
  </outline>
</glyph>
<glyph name="v" format="1">
  <advance width="1238"/>
  <unicode hex="0076"/>
  <outline>
    <contour>
      <point x="478" y="896" type="line" smooth="yes" name="hr00"/>
      <point x="456" y="996"/>
      <point x="501" y="1042"/>
      <point x="575" y="1042" type="curve"/>
      <point x="575" y="1091"/>
      <point x="556" y="1143"/>
      <point x="523" y="1177" type="curve"/>
      <point x="17" y="1177" type="line"/>
      <point x="-17" y="1143"/>
      <point x="-30" y="1091"/>
      <point x="-30" y="1042" type="curve"/>
      <point x="49" y="1042"/>
      <point x="75" y="1009"/>
      <point x="98" y="928" type="curve" smooth="yes"/>
      <point x="458" y="-31" type="line"/>
      <point x="675" y="-31" type="line" smooth="yes"/>
      <point x="808" y="-31"/>
      <point x="849" y="43"/>
      <point x="895" y="208" type="curve"/>
      <point x="1129" y="928" type="line" smooth="yes"/>
      <point x="1153" y="1009"/>
      <point x="1184" y="1042"/>
      <point x="1263" y="1042" type="curve"/>
      <point x="1263" y="1091"/>
      <point x="1251" y="1143"/>
      <point x="1217" y="1177" type="curve"/>
      <point x="797" y="1177" type="line"/>
      <point x="763" y="1143"/>
      <point x="755" y="1091"/>
      <point x="755" y="1042" type="curve"/>
      <point x="844" y="1042"/>
      <point x="881" y="995"/>
      <point x="857" y="895" type="curve" smooth="yes"/>
      <point x="697" y="195" type="line"/>
    </contour>
    <contour>
      <point x="616" y="1050" type="move" name="top"/>
    </contour>
    <contour>
      <point x="616" y="-300" type="move" name="btm"/>
    </contour>
  </outline>
</glyph>
<glyph name="w" format="1">
  <advance width="932"/>
  <unicode hex="0077"/>
  <outline>
    <contour>
      <point x="204" y="-15" type="line" name="hr00"/>
      <point x="321" y="-15" type="line" smooth="yes"/>
      <point x="389" y="-15"/>
      <point x="405" y="19"/>
      <point x="425" y="102" type="curve" smooth="yes"/>
      <point x="538" y="556" type="line"/>
      <point x="431" y="556" type="line"/>
      <point x="318" y="105" type="line"/>
      <point x="227" y="444" type="line" smooth="yes"/>
      <point x="215" y="493"/>
      <point x="228" y="509"/>
      <point x="266" y="509" type="curve"/>
      <point x="266" y="533"/>
      <point x="262" y="558"/>
      <point x="244" y="575" type="curve"/>
      <point x="-1" y="575" type="line"/>
      <point x="-18" y="558"/>
      <point x="-22" y="533"/>
      <point x="-22" y="509" type="curve"/>
      <point x="18" y="509"/>
      <point x="39" y="499"/>
      <point x="50" y="459" type="curve" smooth="yes"/>
    </contour>
    <contour>
      <point x="583" y="444" type="line" smooth="yes"/>
      <point x="572" y="493"/>
      <point x="585" y="509"/>
      <point x="623" y="509" type="curve"/>
      <point x="623" y="533"/>
      <point x="619" y="558"/>
      <point x="602" y="575" type="curve"/>
      <point x="362" y="575" type="line"/>
      <point x="344" y="558"/>
      <point x="340" y="533"/>
      <point x="340" y="509" type="curve"/>
      <point x="380" y="509"/>
      <point x="402" y="500"/>
      <point x="414" y="459" type="curve" smooth="yes"/>
      <point x="558" y="-15" type="line"/>
      <point x="670" y="-15" type="line" smooth="yes"/>
      <point x="741" y="-15"/>
      <point x="756" y="21"/>
      <point x="779" y="103" type="curve" smooth="yes"/>
      <point x="879" y="459" type="line" smooth="yes"/>
      <point x="891" y="499"/>
      <point x="912" y="509"/>
      <point x="952" y="509" type="curve"/>
      <point x="952" y="533"/>
      <point x="948" y="558"/>
      <point x="930" y="575" type="curve"/>
      <point x="734" y="575" type="line"/>
      <point x="717" y="558"/>
      <point x="713" y="533"/>
      <point x="713" y="509" type="curve"/>
      <point x="750" y="509"/>
      <point x="764" y="493"/>
      <point x="752" y="444" type="curve" smooth="yes"/>
      <point x="673" y="105" type="line"/>
    </contour>
    <contour>
      <point x="465" y="-146" type="move" name="btm"/>
    </contour>
    <contour>
      <point x="465" y="513" type="move" name="top"/>
    </contour>
  </outline>
</glyph>
<glyph name="x" format="1">
  <advance width="600"/>
  <unicode hex="0078"/>
  <outline>
    <contour>
      <point x="278" y="447" type="line" name="hr00"/>
      <point x="250" y="489"/>
      <point x="261" y="509"/>
      <point x="298" y="509" type="curve"/>
      <point x="298" y="533"/>
      <point x="294" y="558"/>
      <point x="276" y="575" type="curve"/>
      <point x="12" y="575" type="line"/>
      <point x="-6" y="558"/>
      <point x="-10" y="533"/>
      <point x="-10" y="509" type="curve"/>
      <point x="30" y="509"/>
      <point x="55" y="477"/>
      <point x="79" y="442" type="curve"/>
      <point x="201" y="276" type="line"/>
      <point x="234" y="243" type="line"/>
      <point x="316" y="128" type="line"/>
      <point x="341" y="92"/>
      <point x="330" y="63"/>
      <point x="285" y="63" type="curve"/>
      <point x="285" y="40"/>
      <point x="290" y="17"/>
      <point x="307" y="0" type="curve"/>
      <point x="584" y="0" type="line"/>
      <point x="601" y="17"/>
      <point x="611" y="40"/>
      <point x="611" y="63" type="curve"/>
      <point x="580" y="63"/>
      <point x="545" y="89"/>
      <point x="516" y="133" type="curve"/>
      <point x="367" y="325" type="line"/>
      <point x="335" y="358" type="line"/>
    </contour>
    <contour>
      <point x="498" y="453" type="line"/>
      <point x="529" y="494"/>
      <point x="556" y="509"/>
      <point x="592" y="509" type="curve"/>
      <point x="592" y="533"/>
      <point x="588" y="558"/>
      <point x="570" y="575" type="curve"/>
      <point x="382" y="575" type="line"/>
      <point x="364" y="558"/>
      <point x="359" y="533"/>
      <point x="359" y="509" type="curve"/>
      <point x="383" y="509"/>
      <point x="412" y="490"/>
      <point x="378" y="442" type="curve"/>
      <point x="283" y="307" type="line"/>
      <point x="327" y="243" type="line"/>
    </contour>
    <contour>
      <point x="78" y="123" type="line"/>
      <point x="57" y="94"/>
      <point x="20" y="68"/>
      <point x="-11" y="63" type="curve"/>
      <point x="-11" y="40"/>
      <point x="-1" y="17"/>
      <point x="16" y="0" type="curve"/>
      <point x="213" y="0" type="line"/>
      <point x="229" y="17"/>
      <point x="235" y="40"/>
      <point x="235" y="63" type="curve"/>
      <point x="189" y="63"/>
      <point x="172" y="99"/>
      <point x="197" y="134" type="curve" smooth="yes"/>
      <point x="321" y="308" type="line"/>
      <point x="257" y="349" type="line"/>
    </contour>
    <contour>
      <point x="300" y="-146" type="move" name="btm"/>
    </contour>
    <contour>
      <point x="300" y="513" type="move" name="top"/>
    </contour>
  </outline>
</glyph>
<glyph name="y" format="1">
  <advance width="603"/>
  <unicode hex="0079"/>
  <outline>
    <contour>
      <point x="246" y="423" type="line" name="hr00"/>
      <point x="232" y="468"/>
      <point x="239" y="509"/>
      <point x="290" y="509" type="curve"/>
      <point x="290" y="533"/>
      <point x="281" y="558"/>
      <point x="264" y="575" type="curve"/>
      <point x="8" y="575" type="line"/>
      <point x="-8" y="558"/>
      <point x="-15" y="533"/>
      <point x="-15" y="509" type="curve"/>
      <point x="30" y="509"/>
      <point x="35" y="486"/>
      <point x="51" y="444" type="curve" smooth="yes"/>
      <point x="219" y="29" type="line"/>
      <point x="377" y="29" type="line"/>
    </contour>
    <contour>
      <point x="554" y="453" type="line"/>
      <point x="566" y="492"/>
      <point x="584" y="509"/>
      <point x="620" y="509" type="curve"/>
      <point x="620" y="533"/>
      <point x="615" y="558"/>
      <point x="599" y="575" type="curve"/>
      <point x="389" y="575" type="line"/>
      <point x="373" y="558"/>
      <point x="369" y="533"/>
      <point x="369" y="509" type="curve"/>
      <point x="414" y="509"/>
      <point x="430" y="483"/>
      <point x="418" y="437" type="curve"/>
      <point x="333" y="59" type="line"/>
      <point x="313" y="48" type="line"/>
      <point x="283" y="-57"/>
      <point x="231" y="-83"/>
      <point x="183" y="-83" type="curve" smooth="yes"/>
      <point x="146" y="-83"/>
      <point x="117" y="-70"/>
      <point x="96" y="-48" type="curve"/>
      <point x="71" y="-60"/>
      <point x="52" y="-89"/>
      <point x="52" y="-124" type="curve" smooth="yes"/>
      <point x="52" y="-177"/>
      <point x="97" y="-220"/>
      <point x="188" y="-220" type="curve" smooth="yes"/>
      <point x="295" y="-220"/>
      <point x="366" y="-148"/>
      <point x="430" y="58" type="curve"/>
    </contour>
    <contour>
      <point x="302" y="-146" type="move" name="btm"/>
    </contour>
    <contour>
      <point x="302" y="513" type="move" name="top"/>
    </contour>
  </outline>
</glyph>
<glyph name="z" format="1">
  <advance width="1140"/>
  <unicode hex="007A"/>
  <outline>
    <contour>
      <point x="78" y="0" type="line" name="hr01"/>
      <point x="165" y="0" type="line"/>
      <point x="418" y="67" type="line"/>
      <point x="1069" y="1090" type="line" name="hr02"/>
      <point x="1000" y="1177" type="line" name="hr03"/>
      <point x="708" y="1127" type="line"/>
      <point x="12" y="84" type="line"/>
    </contour>
    <contour>
      <point x="942" y="1028" type="line"/>
      <point x="1000" y="1177" type="line"/>
      <point x="76" y="1177" type="line"/>
      <point x="77" y="1033"/>
      <point x="86" y="864"/>
      <point x="124" y="758" type="curve"/>
      <point x="302" y="758" type="line"/>
      <point x="302" y="935"/>
      <point x="364" y="1028"/>
      <point x="503" y="1028" type="curve" smooth="yes"/>
    </contour>
    <contour>
      <point x="166" y="149" type="line"/>
      <point x="165" y="0" type="line"/>
      <point x="1029" y="0" type="line"/>
      <point x="1095" y="132"/>
      <point x="1087" y="311"/>
      <point x="1087" y="435" type="curve"/>
      <point x="919" y="435" type="line"/>
      <point x="874" y="262"/>
      <point x="823" y="149"/>
      <point x="597" y="149" type="curve" smooth="yes"/>
    </contour>
    <contour>
      <point x="550" y="1050" type="move" name="top"/>
    </contour>
    <contour>
      <point x="550" y="-300" type="move" name="btm"/>
    </contour>
  </outline>
</glyph>
<glyph name="braceleft" format="1">
  <advance width="1152"/>
  <unicode hex="007B"/>
  <outline>
    <contour>
      <point x="420" y="824" type="curve" name="hr00"/>
      <point x="603" y="892"/>
      <point x="697" y="994"/>
      <point x="697" y="1144" type="curve" smooth="yes"/>
      <point x="697" y="1400" type="line" smooth="yes"/>
      <point x="697" y="1621"/>
      <point x="793" y="1687"/>
      <point x="945" y="1687" type="curve" smooth="yes"/>
      <point x="1026" y="1687" type="line"/>
      <point x="1051" y="1730"/>
      <point x="1062" y="1770"/>
      <point x="1062" y="1817" type="curve"/>
      <point x="939" y="1817" type="line" smooth="yes"/>
      <point x="521" y="1817"/>
      <point x="330" y="1610"/>
      <point x="330" y="1270" type="curve" smooth="yes"/>
      <point x="330" y="1073" type="line" smooth="yes"/>
      <point x="330" y="958"/>
      <point x="245" y="873"/>
      <point x="160" y="873" type="curve"/>
      <point x="160" y="775" type="line"/>
      <point x="245" y="775"/>
      <point x="330" y="690"/>
      <point x="330" y="575" type="curve" smooth="yes"/>
      <point x="330" y="378" type="line" smooth="yes"/>
      <point x="330" y="38"/>
      <point x="521" y="-169"/>
      <point x="939" y="-169" type="curve" smooth="yes"/>
      <point x="1062" y="-169" type="line"/>
      <point x="1062" y="-122"/>
      <point x="1051" y="-82"/>
      <point x="1026" y="-39" type="curve"/>
      <point x="945" y="-39" type="line" smooth="yes"/>
      <point x="793" y="-39"/>
      <point x="697" y="27"/>
      <point x="697" y="248" type="curve" smooth="yes"/>
      <point x="697" y="504" type="line" smooth="yes"/>
      <point x="697" y="654"/>
      <point x="603" y="756"/>
    </contour>
  </outline>
</glyph>
<glyph name="bar" format="1">
  <advance width="555"/>
  <unicode hex="007C"/>
  <outline>
    <contour>
      <point x="366" y="1841" type="line" name="hr00"/>
      <point x="319" y="1864"/>
      <point x="230" y="1869"/>
      <point x="189" y="1850" type="curve"/>
      <point x="189" y="-293" type="line"/>
      <point x="236" y="-314"/>
      <point x="325" y="-319"/>
      <point x="366" y="-302" type="curve"/>
    </contour>
  </outline>
</glyph>
<glyph name="asciitilde" format="1">
  <advance width="1613"/>
  <unicode hex="007E"/>
  <outline>
    <contour>
      <point x="1430" y="945" type="curve" name="hr00"/>
      <point x="1416" y="991"/>
      <point x="1374" y="1028"/>
      <point x="1331" y="1041" type="curve"/>
      <point x="1231" y="930"/>
      <point x="1170" y="897"/>
      <point x="1086" y="897" type="curve" smooth="yes"/>
      <point x="885" y="897"/>
      <point x="805" y="1085"/>
      <point x="574" y="1085" type="curve" smooth="yes"/>
      <point x="372" y="1085"/>
      <point x="234" y="940"/>
      <point x="183" y="811" type="curve"/>
      <point x="197" y="765"/>
      <point x="239" y="728"/>
      <point x="282" y="715" type="curve"/>
      <point x="382" y="826"/>
      <point x="443" y="859"/>
      <point x="527" y="859" type="curve" smooth="yes"/>
      <point x="728" y="859"/>
      <point x="808" y="671"/>
      <point x="1039" y="671" type="curve" smooth="yes"/>
      <point x="1241" y="671"/>
      <point x="1379" y="816"/>
    </contour>
  </outline>
</glyph>
<glyph name="cent" format="1">
  <advance width="514"/>
  <unicode hex="00A2"/>
  <outline>
    <contour>
      <point x="462" y="137" type="curve" name="hr01"/>
      <point x="435" y="117"/>
      <point x="398" y="105"/>
      <point x="359" y="105" type="curve" smooth="yes"/>
      <point x="275" y="105"/>
      <point x="223" y="156"/>
      <point x="223" y="321" type="curve" smooth="yes"/>
      <point x="223" y="469"/>
      <point x="274" y="513"/>
      <point x="316" y="513" type="curve" name="hr02" smooth="yes"/>
      <point x="326" y="513"/>
      <point x="334" y="514"/>
      <point x="349" y="504" type="curve"/>
      <point x="330" y="492"/>
      <point x="313" y="472"/>
      <point x="313" y="442" type="curve" smooth="yes"/>
      <point x="313" y="400"/>
      <point x="347" y="365"/>
      <point x="396" y="365" type="curve" smooth="yes"/>
      <point x="451" y="365"/>
      <point x="490" y="402"/>
      <point x="490" y="469" type="curve" smooth="yes"/>
      <point x="490" y="542"/>
      <point x="434" y="590"/>
      <point x="323" y="590" type="curve" name="hr03" smooth="yes"/>
      <point x="162" y="590"/>
      <point x="39" y="475"/>
      <point x="39" y="282" type="curve" smooth="yes"/>
      <point x="39" y="96"/>
      <point x="147" y="-15"/>
      <point x="307" y="-15" type="curve" smooth="yes"/>
      <point x="418" y="-15"/>
      <point x="483" y="42"/>
      <point x="483" y="83" type="curve" smooth="yes"/>
      <point x="483" y="99"/>
      <point x="475" y="124"/>
    </contour>
    <contour>
      <point x="325" y="728" type="line"/>
      <point x="303" y="738"/>
      <point x="274" y="741"/>
      <point x="255" y="732" type="curve"/>
      <point x="255" y="560" type="line" name="hr04"/>
      <point x="277" y="550"/>
      <point x="306" y="547"/>
      <point x="325" y="556" type="curve" name="hr05"/>
    </contour>
    <contour>
      <point x="325" y="30" type="line"/>
      <point x="303" y="41"/>
      <point x="274" y="43"/>
      <point x="255" y="35" type="curve"/>
      <point x="255" y="-137" type="line"/>
      <point x="277" y="-147"/>
      <point x="306" y="-150"/>
      <point x="325" y="-142" type="curve"/>
    </contour>
  </outline>
</glyph>
<glyph name="sterling" format="1">
  <advance width="1290"/>
  <unicode hex="00A3"/>
  <outline>
    <contour>
      <point x="133" y="-27" type="line" name="hr00"/>
      <point x="216" y="6"/>
      <point x="296" y="36"/>
      <point x="406" y="36" type="curve" smooth="yes"/>
      <point x="564" y="36"/>
      <point x="701" y="-26"/>
      <point x="868" y="-26" type="curve" smooth="yes"/>
      <point x="1146" y="-26"/>
      <point x="1250" y="145"/>
      <point x="1250" y="287" type="curve" smooth="yes"/>
      <point x="1250" y="370"/>
      <point x="1215" y="454"/>
      <point x="1170" y="494" type="curve"/>
      <point x="1107" y="494" type="line"/>
      <point x="1076" y="340"/>
      <point x="952" y="306"/>
      <point x="807" y="306" type="curve" smooth="yes"/>
      <point x="706" y="306" type="line" smooth="yes"/>
      <point x="583" y="306"/>
      <point x="450" y="277"/>
      <point x="333" y="216" type="curve"/>
      <point x="216" y="162" type="line"/>
    </contour>
    <contour>
      <point x="829" y="678" type="line"/>
      <point x="868" y="719"/>
      <point x="869" y="771"/>
      <point x="869" y="830" type="curve"/>
      <point x="82" y="830" type="line"/>
      <point x="82" y="678" type="line"/>
    </contour>
    <contour>
      <point x="945" y="1342" type="curve"/>
      <point x="889" y="1317"/>
      <point x="842" y="1264"/>
      <point x="842" y="1186" type="curve" smooth="yes"/>
      <point x="842" y="1082"/>
      <point x="927" y="1018"/>
      <point x="1027" y="1018" type="curve" smooth="yes"/>
      <point x="1152" y="1018"/>
      <point x="1229" y="1118"/>
      <point x="1229" y="1236" type="curve" smooth="yes"/>
      <point x="1229" y="1400"/>
      <point x="1082" y="1580"/>
      <point x="703" y="1580" type="curve" smooth="yes"/>
      <point x="315" y="1580"/>
      <point x="138" y="1391"/>
      <point x="138" y="1144" type="curve" smooth="yes"/>
      <point x="138" y="930"/>
      <point x="271" y="766"/>
      <point x="271" y="530" type="curve" smooth="yes"/>
      <point x="271" y="361"/>
      <point x="203" y="203"/>
      <point x="67" y="82" type="curve"/>
      <point x="67" y="30"/>
      <point x="101" y="5"/>
      <point x="133" y="-27" type="curve"/>
      <point x="279" y="170" type="line"/>
      <point x="478" y="277"/>
      <point x="578" y="485"/>
      <point x="578" y="695" type="curve" smooth="yes"/>
      <point x="578" y="847"/>
      <point x="526" y="1044"/>
      <point x="526" y="1179" type="curve" smooth="yes"/>
      <point x="526" y="1349"/>
      <point x="609" y="1422"/>
      <point x="746" y="1422" type="curve" smooth="yes"/>
      <point x="826" y="1422"/>
      <point x="902" y="1397"/>
    </contour>
  </outline>
</glyph>
<glyph name="currency" format="1">
  <advance width="746"/>
  <unicode hex="00A4"/>
  <outline>
    <contour>
      <point x="215" y="346" type="curve" name="hr00" smooth="yes"/>
      <point x="215" y="433"/>
      <point x="286" y="504"/>
      <point x="373" y="504" type="curve" smooth="yes"/>
      <point x="460" y="504"/>
      <point x="531" y="433"/>
      <point x="531" y="346" type="curve" smooth="yes"/>
      <point x="531" y="259"/>
      <point x="460" y="188"/>
      <point x="373" y="188" type="curve" smooth="yes"/>
      <point x="286" y="188"/>
      <point x="215" y="259"/>
    </contour>
    <contour>
      <point x="620" y="346" type="curve" smooth="yes"/>
      <point x="620" y="481"/>
      <point x="510" y="592"/>
      <point x="373" y="592" type="curve" smooth="yes"/>
      <point x="236" y="592"/>
      <point x="126" y="481"/>
      <point x="126" y="346" type="curve" smooth="yes"/>
      <point x="126" y="210"/>
      <point x="236" y="100"/>
      <point x="373" y="100" type="curve" smooth="yes"/>
      <point x="510" y="100"/>
      <point x="620" y="210"/>
    </contour>
    <contour>
      <point x="475" y="188" type="line"/>
      <point x="618" y="39" type="line"/>
      <point x="642" y="54"/>
      <point x="667" y="80"/>
      <point x="680" y="101" type="curve"/>
      <point x="532" y="243" type="line"/>
    </contour>
    <contour>
      <point x="279" y="496" type="line"/>
      <point x="128" y="653" type="line"/>
      <point x="108" y="642"/>
      <point x="80" y="614"/>
      <point x="66" y="590" type="curve"/>
      <point x="219" y="443" type="line"/>
    </contour>
    <contour>
      <point x="525" y="441" type="line"/>
      <point x="680" y="591" type="line"/>
      <point x="665" y="614"/>
      <point x="639" y="640"/>
      <point x="618" y="653" type="curve"/>
      <point x="462" y="491" type="line"/>
    </contour>
    <contour>
      <point x="218" y="247" type="line"/>
      <point x="65" y="101" type="line"/>
      <point x="78" y="81"/>
      <point x="105" y="53"/>
      <point x="129" y="39" type="curve"/>
      <point x="278" y="194" type="line"/>
    </contour>
  </outline>
</glyph>
<glyph name="yen" format="1">
  <advance width="657"/>
  <unicode hex="00A5"/>
  <outline>
    <contour>
      <point x="613" y="635" type="line" name="hr01" smooth="yes"/>
      <point x="634" y="676"/>
      <point x="646" y="689"/>
      <point x="705" y="689" type="curve"/>
      <point x="705" y="714"/>
      <point x="695" y="740"/>
      <point x="679" y="758" type="curve"/>
      <point x="454" y="758" type="line"/>
      <point x="438" y="740"/>
      <point x="428" y="714"/>
      <point x="428" y="689" type="curve"/>
      <point x="471" y="689"/>
      <point x="495" y="656"/>
      <point x="478" y="620" type="curve" smooth="yes"/>
      <point x="321" y="337" type="line" name="hr02"/>
      <point x="400" y="276" type="line"/>
    </contour>
    <contour>
      <point x="276" y="592" type="line" smooth="yes"/>
      <point x="244" y="654"/>
      <point x="267" y="689"/>
      <point x="334" y="689" type="curve"/>
      <point x="334" y="714"/>
      <point x="325" y="740"/>
      <point x="309" y="758" type="curve"/>
      <point x="-17" y="758" type="line"/>
      <point x="-33" y="740"/>
      <point x="-42" y="714"/>
      <point x="-42" y="689" type="curve"/>
      <point x="-13" y="689"/>
      <point x="21" y="668"/>
      <point x="38" y="641" type="curve" smooth="yes"/>
      <point x="307" y="246" type="line"/>
      <point x="411" y="237" type="line"/>
      <point x="430" y="344" type="line"/>
    </contour>
    <contour>
      <point x="492" y="0" type="line"/>
      <point x="507" y="18"/>
      <point x="516" y="43"/>
      <point x="516" y="69" type="curve"/>
      <point x="468" y="69"/>
      <point x="434" y="83"/>
      <point x="434" y="124" type="curve" smooth="yes"/>
      <point x="434" y="369" type="line" name="hr03"/>
      <point x="256" y="369" type="line"/>
      <point x="256" y="124" type="line" smooth="yes"/>
      <point x="256" y="83"/>
      <point x="222" y="69"/>
      <point x="174" y="69" type="curve"/>
      <point x="174" y="43"/>
      <point x="183" y="18"/>
      <point x="199" y="0" type="curve"/>
    </contour>
    <contour>
      <point x="610" y="320" type="line"/>
      <point x="629" y="340"/>
      <point x="639" y="366"/>
      <point x="639" y="395" type="curve"/>
      <point x="84" y="395" type="line"/>
      <point x="84" y="320" type="line"/>
    </contour>
    <contour>
      <point x="610" y="159" type="line"/>
      <point x="629" y="179"/>
      <point x="639" y="204"/>
      <point x="639" y="233" type="curve"/>
      <point x="84" y="233" type="line"/>
      <point x="84" y="159" type="line"/>
    </contour>
  </outline>
</glyph>
<glyph name="brokenbar" format="1">
  <advance width="555"/>
  <unicode hex="00A6"/>
  <outline>
    <contour>
      <point x="366" y="620" type="line" name="hr00"/>
      <point x="189" y="620" type="line"/>
      <point x="189" y="-292" type="line"/>
      <point x="236" y="-313"/>
      <point x="325" y="-318"/>
      <point x="366" y="-301" type="curve"/>
    </contour>
    <contour>
      <point x="189" y="931" type="line"/>
      <point x="366" y="931" type="line"/>
      <point x="366" y="1843" type="line"/>
      <point x="319" y="1865"/>
      <point x="230" y="1870"/>
      <point x="189" y="1852" type="curve"/>
    </contour>
  </outline>
</glyph>
<glyph name="section" format="1">
  <advance width="1363"/>
  <unicode hex="00A7"/>
  <outline>
    <contour>
      <point x="733" y="497" type="curve" name="hr01"/>
      <point x="733" y="497"/>
      <point x="746" y="410"/>
      <point x="746" y="410" type="curve"/>
      <point x="1092" y="410"/>
      <point x="1270" y="517"/>
      <point x="1270" y="764" type="curve" smooth="yes"/>
      <point x="1270" y="1059"/>
      <point x="1015" y="1176"/>
      <point x="801" y="1291" type="curve" smooth="yes"/>
      <point x="652" y="1371"/>
      <point x="503" y="1460"/>
      <point x="503" y="1604" type="curve" smooth="yes"/>
      <point x="503" y="1708"/>
      <point x="582" y="1778"/>
      <point x="700" y="1778" type="curve" smooth="yes"/>
      <point x="852" y="1778"/>
      <point x="940" y="1662"/>
      <point x="997" y="1433" type="curve"/>
      <point x="1198" y="1433" type="line" name="hr02"/>
      <point x="1206" y="1585"/>
      <point x="1186" y="1821"/>
      <point x="1145" y="1937" type="curve"/>
      <point x="998" y="1859" type="line"/>
      <point x="929" y="1894"/>
      <point x="850" y="1937"/>
      <point x="688" y="1937" type="curve" smooth="yes"/>
      <point x="414" y="1937"/>
      <point x="168" y="1815"/>
      <point x="168" y="1525" type="curve" smooth="yes"/>
      <point x="168" y="1284"/>
      <point x="338" y="1142"/>
      <point x="600" y="1001" type="curve" smooth="yes"/>
      <point x="756" y="917"/>
      <point x="932" y="822"/>
      <point x="932" y="672" type="curve" smooth="yes" name="hr03"/>
      <point x="932" y="592"/>
      <point x="881" y="497"/>
    </contour>
    <contour>
      <point x="645" y="1039" type="curve" name="hr05"/>
      <point x="645" y="1039"/>
      <point x="632" y="1136"/>
      <point x="632" y="1136" type="curve"/>
      <point x="286" y="1136"/>
      <point x="108" y="1019"/>
      <point x="108" y="772" type="curve" smooth="yes"/>
      <point x="108" y="477"/>
      <point x="363" y="360"/>
      <point x="577" y="245" type="curve" smooth="yes"/>
      <point x="724" y="166"/>
      <point x="875" y="77"/>
      <point x="875" y="-68" type="curve" smooth="yes"/>
      <point x="875" y="-180"/>
      <point x="784" y="-242"/>
      <point x="676" y="-242" type="curve" smooth="yes"/>
      <point x="542" y="-242"/>
      <point x="424" y="-146"/>
      <point x="361" y="103" type="curve"/>
      <point x="160" y="103" type="line" name="hr06"/>
      <point x="160" y="-36"/>
      <point x="182" y="-275"/>
      <point x="213" y="-401" type="curve"/>
      <point x="360" y="-323" type="line"/>
      <point x="444" y="-366"/>
      <point x="538" y="-401"/>
      <point x="683" y="-401" type="curve" smooth="yes"/>
      <point x="953" y="-401"/>
      <point x="1210" y="-280"/>
      <point x="1210" y="13" type="curve" smooth="yes"/>
      <point x="1210" y="251"/>
      <point x="1040" y="394"/>
      <point x="778" y="535" type="curve" smooth="yes"/>
      <point x="622" y="619"/>
      <point x="446" y="714"/>
      <point x="446" y="864" type="curve" smooth="yes" name="hr07"/>
      <point x="446" y="944"/>
      <point x="497" y="1039"/>
    </contour>
  </outline>
</glyph>
<glyph name="dieresis" format="1">
  <advance width="0"/>
  <unicode hex="00A8"/>
  <outline>
    <contour>
      <point x="-36" y="760" type="curve" name="hr00" smooth="yes"/>
      <point x="-36" y="817"/>
      <point x="-74" y="854"/>
      <point x="-132" y="854" type="curve" smooth="yes"/>
      <point x="-191" y="854"/>
      <point x="-229" y="817"/>
      <point x="-229" y="760" type="curve" smooth="yes"/>
      <point x="-229" y="702"/>
      <point x="-191" y="664"/>
      <point x="-132" y="664" type="curve" smooth="yes"/>
      <point x="-74" y="664"/>
      <point x="-36" y="702"/>
    </contour>
    <contour>
      <point x="229" y="760" type="curve" smooth="yes"/>
      <point x="229" y="817"/>
      <point x="191" y="854"/>
      <point x="132" y="854" type="curve" smooth="yes"/>
      <point x="74" y="854"/>
      <point x="36" y="817"/>
      <point x="36" y="760" type="curve" smooth="yes"/>
      <point x="36" y="702"/>
      <point x="74" y="664"/>
      <point x="132" y="664" type="curve" smooth="yes"/>
      <point x="191" y="664"/>
      <point x="229" y="702"/>
    </contour>
    <contour>
      <point x="0" y="513" type="move" name="_top"/>
    </contour>
  </outline>
</glyph>
<glyph name="copyright" format="1">
  <advance width="982"/>
  <unicode hex="00A9"/>
  <outline>
    <contour>
      <point x="635" y="446" type="line" name="hr00"/>
      <point x="635" y="489"/>
      <point x="633" y="561"/>
      <point x="616" y="604" type="curve"/>
      <point x="603" y="604"/>
      <point x="576" y="596"/>
      <point x="563" y="591" type="curve"/>
      <point x="545" y="599"/>
      <point x="524" y="605"/>
      <point x="496" y="605" type="curve" smooth="yes"/>
      <point x="398" y="605"/>
      <point x="304" y="533"/>
      <point x="304" y="377" type="curve" smooth="yes"/>
      <point x="304" y="228"/>
      <point x="392" y="147"/>
      <point x="505" y="147" type="curve" smooth="yes"/>
      <point x="589" y="147"/>
      <point x="637" y="192"/>
      <point x="637" y="227" type="curve" smooth="yes"/>
      <point x="637" y="240"/>
      <point x="629" y="264"/>
      <point x="620" y="273" type="curve"/>
      <point x="609" y="256"/>
      <point x="581" y="239"/>
      <point x="543" y="239" type="curve" smooth="yes"/>
      <point x="480" y="239"/>
      <point x="425" y="287"/>
      <point x="425" y="407" type="curve" smooth="yes"/>
      <point x="425" y="500"/>
      <point x="458" y="532"/>
      <point x="500" y="532" type="curve" smooth="yes"/>
      <point x="539" y="532"/>
      <point x="572" y="504"/>
      <point x="579" y="446" type="curve"/>
    </contour>
    <contour>
      <point x="491" y="-14" type="curve" smooth="yes"/>
      <point x="721" y="-14"/>
      <point x="885" y="151"/>
      <point x="885" y="378" type="curve" smooth="yes"/>
      <point x="885" y="605"/>
      <point x="721" y="771"/>
      <point x="491" y="771" type="curve" smooth="yes"/>
      <point x="261" y="771"/>
      <point x="98" y="605"/>
      <point x="98" y="378" type="curve" smooth="yes"/>
      <point x="98" y="151"/>
      <point x="261" y="-14"/>
    </contour>
    <contour>
      <point x="491" y="702" type="curve" smooth="yes"/>
      <point x="683" y="702"/>
      <point x="814" y="563"/>
      <point x="814" y="378" type="curve" smooth="yes"/>
      <point x="814" y="194"/>
      <point x="683" y="55"/>
      <point x="491" y="55" type="curve" smooth="yes"/>
      <point x="300" y="55"/>
      <point x="168" y="194"/>
      <point x="168" y="378" type="curve" smooth="yes"/>
      <point x="168" y="563"/>
      <point x="300" y="702"/>
    </contour>
  </outline>
</glyph>
<glyph name="ordfeminine" format="1">
  <advance width="1133"/>
  <unicode hex="00AA"/>
  <outline>
    <contour>
      <point x="159" y="950" type="curve" smooth="yes" name="hr00"/>
      <point x="159" y="806"/>
      <point x="274" y="699"/>
      <point x="443" y="699" type="curve" smooth="yes"/>
      <point x="539" y="699"/>
      <point x="606" y="733"/>
      <point x="654" y="777" type="curve"/>
      <point x="685" y="726"/>
      <point x="743" y="699"/>
      <point x="822" y="699" type="curve" smooth="yes"/>
      <point x="894" y="699"/>
      <point x="974" y="721"/>
      <point x="1007" y="762" type="curve"/>
      <point x="1006" y="816" type="line"/>
      <point x="954" y="826"/>
      <point x="926" y="859"/>
      <point x="926" y="912" type="curve" smooth="yes"/>
      <point x="926" y="1362" type="line" smooth="yes"/>
      <point x="926" y="1535"/>
      <point x="814" y="1625"/>
      <point x="585" y="1625" type="curve" smooth="yes"/>
      <point x="330" y="1625"/>
      <point x="217" y="1512"/>
      <point x="217" y="1404" type="curve" smooth="yes"/>
      <point x="217" y="1326"/>
      <point x="276" y="1267"/>
      <point x="365" y="1267" type="curve" smooth="yes"/>
      <point x="442" y="1267"/>
      <point x="501" y="1312"/>
      <point x="501" y="1380" type="curve" smooth="yes"/>
      <point x="501" y="1419"/>
      <point x="481" y="1452"/>
      <point x="438" y="1471" type="curve"/>
      <point x="461" y="1489"/>
      <point x="494" y="1497"/>
      <point x="527" y="1497" type="curve" smooth="yes"/>
      <point x="591" y="1497"/>
      <point x="631" y="1465"/>
      <point x="631" y="1380" type="curve" smooth="yes"/>
      <point x="631" y="1160" type="line"/>
      <point x="590" y="1184"/>
      <point x="519" y="1197"/>
      <point x="455" y="1197" type="curve" smooth="yes"/>
      <point x="272" y="1197"/>
      <point x="159" y="1092"/>
    </contour>
    <contour>
      <point x="631" y="870" type="line"/>
      <point x="612" y="854"/>
      <point x="582" y="844"/>
      <point x="553" y="844" type="curve" smooth="yes"/>
      <point x="495" y="844"/>
      <point x="453" y="882"/>
      <point x="453" y="949" type="curve" smooth="yes"/>
      <point x="453" y="1017"/>
      <point x="498" y="1050"/>
      <point x="549" y="1050" type="curve" smooth="yes"/>
      <point x="581" y="1050"/>
      <point x="611" y="1036"/>
      <point x="631" y="1022" type="curve"/>
    </contour>
  </outline>
</glyph>
<glyph name="logicalnot" format="1">
  <advance width="1389"/>
  <unicode hex="00AC"/>
  <outline>
    <contour>
      <point x="220" y="959" type="line" name="hr00"/>
      <point x="201" y="916"/>
      <point x="199" y="811"/>
      <point x="219" y="759" type="curve"/>
      <point x="1176" y="759" type="line"/>
      <point x="1194" y="802"/>
      <point x="1192" y="910"/>
      <point x="1205" y="959" type="curve"/>
    </contour>
    <contour>
      <point x="1205" y="959" type="line"/>
      <point x="994" y="919" type="line"/>
      <point x="994" y="422" type="line"/>
      <point x="1040" y="404"/>
      <point x="1150" y="402"/>
      <point x="1205" y="422" type="curve"/>
    </contour>
  </outline>
</glyph>
<glyph name="softhyphen" format="1">
  <advance width="599"/>
  <unicode hex="00AD"/>
  <outline>
    <contour>
      <point x="86" y="388" type="line" name="hr00"/>
      <point x="77" y="367"/>
      <point x="76" y="314"/>
      <point x="85" y="290" type="curve"/>
      <point x="514" y="290" type="line"/>
      <point x="523" y="310"/>
      <point x="523" y="363"/>
      <point x="514" y="388" type="curve"/>
    </contour>
  </outline>
</glyph>
<glyph name="uni00AD" format="1">
  <advance width="1227"/>
  <unicode hex="00AD"/>
  <outline>
    <contour>
      <point x="176" y="794" type="line" name="hr00"/>
      <point x="157" y="752"/>
      <point x="155" y="644"/>
      <point x="175" y="593" type="curve"/>
      <point x="1053" y="593" type="line"/>
      <point x="1071" y="635"/>
      <point x="1072" y="743"/>
      <point x="1052" y="794" type="curve"/>
    </contour>
  </outline>
</glyph>
<glyph name="registered" format="1">
  <advance width="982"/>
  <unicode hex="00AE"/>
  <outline>
    <contour>
      <point x="536" y="467" type="curve" name="hr00" smooth="yes"/>
      <point x="536" y="424"/>
      <point x="516" y="400"/>
      <point x="470" y="400" type="curve" smooth="yes"/>
      <point x="466" y="400"/>
      <point x="462" y="400"/>
      <point x="458" y="402" type="curve"/>
      <point x="458" y="526" type="line"/>
      <point x="461" y="526"/>
      <point x="463" y="526"/>
      <point x="466" y="526" type="curve" smooth="yes"/>
      <point x="522" y="526"/>
      <point x="536" y="502"/>
    </contour>
    <contour>
      <point x="655" y="474" type="curve" smooth="yes"/>
      <point x="655" y="546"/>
      <point x="611" y="589"/>
      <point x="453" y="589" type="curve" smooth="yes"/>
      <point x="399" y="589"/>
      <point x="354" y="584"/>
      <point x="319" y="582" type="curve"/>
      <point x="312" y="569"/>
      <point x="307" y="553"/>
      <point x="307" y="536" type="curve"/>
      <point x="333" y="536"/>
      <point x="343" y="527"/>
      <point x="343" y="506" type="curve" smooth="yes"/>
      <point x="343" y="251" type="line" smooth="yes"/>
      <point x="343" y="229"/>
      <point x="333" y="221"/>
      <point x="307" y="221" type="curve"/>
      <point x="307" y="204"/>
      <point x="311" y="186"/>
      <point x="320" y="174" type="curve"/>
      <point x="489" y="174" type="line"/>
      <point x="498" y="186"/>
      <point x="502" y="204"/>
      <point x="502" y="221" type="curve"/>
      <point x="477" y="221"/>
      <point x="458" y="229"/>
      <point x="458" y="251" type="curve" smooth="yes"/>
      <point x="458" y="342" type="line"/>
      <point x="490" y="342" type="line"/>
      <point x="501" y="343"/>
      <point x="519" y="345"/>
      <point x="532" y="348" type="curve" smooth="yes"/>
      <point x="626" y="365"/>
      <point x="655" y="415"/>
    </contour>
    <contour>
      <point x="446" y="353" type="line"/>
      <point x="528" y="322"/>
      <point x="510" y="166"/>
      <point x="646" y="166" type="curve" smooth="yes"/>
      <point x="678" y="166"/>
      <point x="698" y="175"/>
      <point x="712" y="190" type="curve"/>
      <point x="712" y="211" type="line"/>
      <point x="665" y="230"/>
      <point x="653" y="258"/>
      <point x="618" y="307" type="curve" smooth="yes"/>
      <point x="576" y="367"/>
      <point x="560" y="375"/>
      <point x="495" y="375" type="curve"/>
    </contour>
    <contour>
      <point x="491" y="-14" type="curve" smooth="yes"/>
      <point x="721" y="-14"/>
      <point x="885" y="151"/>
      <point x="885" y="378" type="curve" smooth="yes"/>
      <point x="885" y="605"/>
      <point x="721" y="771"/>
      <point x="491" y="771" type="curve" smooth="yes"/>
      <point x="261" y="771"/>
      <point x="98" y="605"/>
      <point x="98" y="378" type="curve" smooth="yes"/>
      <point x="98" y="151"/>
      <point x="261" y="-14"/>
    </contour>
    <contour>
      <point x="491" y="702" type="curve" smooth="yes"/>
      <point x="683" y="702"/>
      <point x="814" y="563"/>
      <point x="814" y="378" type="curve" smooth="yes"/>
      <point x="814" y="194"/>
      <point x="683" y="55"/>
      <point x="491" y="55" type="curve" smooth="yes"/>
      <point x="300" y="55"/>
      <point x="168" y="194"/>
      <point x="168" y="378" type="curve" smooth="yes"/>
      <point x="168" y="563"/>
      <point x="300" y="702"/>
    </contour>
  </outline>
</glyph>
<glyph name="macron" format="1">
  <advance width="0"/>
  <unicode hex="00AF"/>
  <outline>
    <contour>
      <point x="183" y="713" type="line" name="hr00"/>
      <point x="193" y="738"/>
      <point x="194" y="792"/>
      <point x="183" y="814" type="curve"/>
      <point x="-183" y="814" type="line"/>
      <point x="-194" y="792"/>
      <point x="-193" y="738"/>
      <point x="-183" y="713" type="curve"/>
    </contour>
    <contour>
      <point x="0" y="513" type="move" name="_top"/>
    </contour>
  </outline>
</glyph>
<glyph name="degree" format="1">
  <advance width="505"/>
  <unicode hex="00B0"/>
  <outline>
    <contour>
      <point x="302" y="648" type="curve" name="hr00" smooth="yes"/>
      <point x="302" y="555"/>
      <point x="279" y="533"/>
      <point x="253" y="533" type="curve" smooth="yes"/>
      <point x="225" y="533"/>
      <point x="204" y="558"/>
      <point x="204" y="648" type="curve" smooth="yes"/>
      <point x="204" y="742"/>
      <point x="226" y="764"/>
      <point x="252" y="764" type="curve" smooth="yes"/>
      <point x="281" y="764"/>
      <point x="302" y="738"/>
    </contour>
    <contour>
      <point x="437" y="648" type="curve" smooth="yes"/>
      <point x="437" y="746"/>
      <point x="368" y="821"/>
      <point x="253" y="821" type="curve" smooth="yes"/>
      <point x="143" y="821"/>
      <point x="69" y="750"/>
      <point x="69" y="647" type="curve" smooth="yes"/>
      <point x="69" y="549"/>
      <point x="138" y="476"/>
      <point x="251" y="476" type="curve" smooth="yes"/>
      <point x="364" y="476"/>
      <point x="437" y="547"/>
    </contour>
  </outline>
</glyph>
<glyph name="twosuperior" format="1">
  <advance width="1118"/>
  <unicode hex="00B2"/>
  <outline>
    <contour>
      <point x="203" y="753" type="line" name="hr01"/>
      <point x="314" y="814" type="line"/>
      <point x="357" y="1090"/>
      <point x="902" y="1122"/>
      <point x="902" y="1466" type="curve" smooth="yes" name="hr02"/>
      <point x="902" y="1659"/>
      <point x="732" y="1754"/>
      <point x="532" y="1754" type="curve" smooth="yes"/>
      <point x="300" y="1754"/>
      <point x="160" y="1626"/>
      <point x="160" y="1488" type="curve" smooth="yes"/>
      <point x="160" y="1389"/>
      <point x="234" y="1339"/>
      <point x="305" y="1339" type="curve" smooth="yes"/>
      <point x="378" y="1339"/>
      <point x="444" y="1390"/>
      <point x="444" y="1457" type="curve" smooth="yes"/>
      <point x="444" y="1514"/>
      <point x="397" y="1553"/>
      <point x="356" y="1566" type="curve"/>
      <point x="382" y="1598"/>
      <point x="425" y="1614"/>
      <point x="465" y="1614" type="curve" smooth="yes"/>
      <point x="533" y="1614"/>
      <point x="581" y="1570"/>
      <point x="581" y="1482" type="curve" smooth="yes"/>
      <point x="581" y="1242"/>
      <point x="217" y="1103"/>
      <point x="159" y="786" type="curve"/>
    </contour>
    <contour>
      <point x="203" y="753" type="line"/>
      <point x="264" y="773"/>
      <point x="337" y="782"/>
      <point x="405" y="782" type="curve" smooth="yes"/>
      <point x="529" y="782"/>
      <point x="595" y="753"/>
      <point x="698" y="753" type="curve" smooth="yes"/>
      <point x="894" y="753"/>
      <point x="950" y="857"/>
      <point x="950" y="951" type="curve" smooth="yes"/>
      <point x="950" y="1016"/>
      <point x="924" y="1088"/>
      <point x="889" y="1122" type="curve"/>
      <point x="834" y="1122" type="line"/>
      <point x="816" y="1047"/>
      <point x="749" y="1004"/>
      <point x="669" y="1004" type="curve" smooth="yes"/>
      <point x="610" y="1004" type="line" smooth="yes"/>
      <point x="510" y="1004"/>
      <point x="355" y="957"/>
      <point x="291" y="881" type="curve"/>
    </contour>
  </outline>
</glyph>
<glyph name="threesuperior" format="1">
  <advance width="546"/>
  <unicode hex="00B3"/>
  <outline>
    <contour>
      <point x="437" y="740" type="curve" name="hr00" smooth="yes"/>
      <point x="437" y="804"/>
      <point x="385" y="857"/>
      <point x="263" y="857" type="curve" smooth="yes"/>
      <point x="142" y="857"/>
      <point x="81" y="805"/>
      <point x="81" y="743" type="curve" smooth="yes"/>
      <point x="81" y="701"/>
      <point x="108" y="674"/>
      <point x="147" y="674" type="curve" smooth="yes"/>
      <point x="176" y="674"/>
      <point x="205" y="689"/>
      <point x="205" y="722" type="curve" smooth="yes"/>
      <point x="205" y="747"/>
      <point x="187" y="761"/>
      <point x="170" y="765" type="curve"/>
      <point x="184" y="781"/>
      <point x="204" y="789"/>
      <point x="223" y="789" type="curve" smooth="yes"/>
      <point x="253" y="789"/>
      <point x="280" y="771"/>
      <point x="280" y="727" type="curve" smooth="yes"/>
      <point x="280" y="686"/>
      <point x="256" y="655"/>
      <point x="202" y="625" type="curve"/>
      <point x="273" y="606" type="line"/>
      <point x="368" y="625"/>
      <point x="437" y="667"/>
    </contour>
    <contour>
      <point x="468" y="514" type="curve" smooth="yes"/>
      <point x="468" y="580"/>
      <point x="420" y="634"/>
      <point x="310" y="634" type="curve"/>
      <point x="202" y="625" type="line"/>
      <point x="214" y="590" type="line"/>
      <point x="229" y="590" type="line" smooth="yes"/>
      <point x="281" y="590"/>
      <point x="309" y="560"/>
      <point x="309" y="517" type="curve" smooth="yes"/>
      <point x="309" y="473"/>
      <point x="278" y="445"/>
      <point x="231" y="445" type="curve" smooth="yes"/>
      <point x="213" y="445"/>
      <point x="184" y="449"/>
      <point x="163" y="463" type="curve"/>
      <point x="181" y="478"/>
      <point x="188" y="490"/>
      <point x="188" y="505" type="curve" smooth="yes"/>
      <point x="188" y="532"/>
      <point x="167" y="553"/>
      <point x="132" y="553" type="curve" smooth="yes"/>
      <point x="94" y="553"/>
      <point x="63" y="528"/>
      <point x="63" y="483" type="curve" smooth="yes"/>
      <point x="63" y="413"/>
      <point x="146" y="367"/>
      <point x="260" y="367" type="curve" smooth="yes"/>
      <point x="383" y="367"/>
      <point x="468" y="425"/>
    </contour>
  </outline>
</glyph>
<glyph name="acute" format="1">
  <advance width="0"/>
  <unicode hex="00B4"/>
  <outline>
    <contour>
      <point x="98" y="944" type="curve" name="hr00"/>
      <point x="49" y="854"/>
      <point x="-41" y="771"/>
      <point x="-111" y="725" type="curve"/>
      <point x="-107" y="690"/>
      <point x="-82" y="676"/>
      <point x="-54" y="676" type="curve" smooth="yes"/>
      <point x="21" y="676"/>
      <point x="192" y="779"/>
      <point x="192" y="857" type="curve" smooth="yes"/>
      <point x="192" y="893"/>
      <point x="155" y="944"/>
    </contour>
    <contour>
      <point x="41" y="513" type="move" name="_top"/>
    </contour>
  </outline>
</glyph>
<glyph name="micro" format="1">
  <advance width="665"/>
  <unicode hex="00B5"/>
  <outline>
    <contour>
      <point x="388" y="94" type="line" name="hr01" smooth="yes"/>
      <point x="388" y="24"/>
      <point x="451" y="-15"/>
      <point x="516" y="-15" type="curve" smooth="yes"/>
      <point x="555" y="-15"/>
      <point x="604" y="-1"/>
      <point x="646" y="58" type="curve"/>
      <point x="617" y="93" type="line" name="hr02"/>
      <point x="587" y="78"/>
      <point x="565" y="86"/>
      <point x="565" y="124" type="curve" smooth="yes"/>
      <point x="565" y="544" type="line" smooth="yes"/>
      <point x="565" y="610"/>
      <point x="388" y="610"/>
      <point x="388" y="545" type="curve" smooth="yes"/>
    </contour>
    <contour>
      <point x="146" y="47" type="line"/>
      <point x="168" y="19"/>
      <point x="204" y="-15"/>
      <point x="259" y="-15" type="curve" smooth="yes"/>
      <point x="309" y="-15"/>
      <point x="363" y="12"/>
      <point x="401" y="70" type="curve"/>
      <point x="398" y="149" type="line"/>
      <point x="379" y="115"/>
      <point x="346" y="87"/>
      <point x="308" y="87" type="curve" smooth="yes"/>
      <point x="274" y="87"/>
      <point x="247" y="111"/>
      <point x="247" y="154" type="curve" smooth="yes"/>
      <point x="247" y="544" type="line" smooth="yes"/>
      <point x="247" y="610"/>
      <point x="70" y="610"/>
      <point x="70" y="545" type="curve" smooth="yes"/>
      <point x="70" y="167" type="line"/>
      <point x="67" y="-210" type="line"/>
      <point x="127" y="-210" type="line" smooth="yes"/>
      <point x="176" y="-210"/>
      <point x="202" y="-179"/>
      <point x="196" y="-132" type="curve" smooth="yes"/>
      <point x="167" y="115" type="line"/>
    </contour>
  </outline>
</glyph>
<glyph name="mu" format="1">
  <advance width="1361"/>
  <unicode hex="00B5"/>
  <outline>
    <contour>
      <point x="795" y="192" type="line" smooth="yes" name="hr01"/>
      <point x="795" y="49"/>
      <point x="923" y="-31"/>
      <point x="1057" y="-31" type="curve" smooth="yes"/>
      <point x="1137" y="-31"/>
      <point x="1236" y="-3"/>
      <point x="1323" y="119" type="curve"/>
      <point x="1263" y="190" type="line" name="hr02"/>
      <point x="1202" y="160"/>
      <point x="1157" y="177"/>
      <point x="1157" y="254" type="curve" smooth="yes"/>
      <point x="1157" y="1114" type="line" smooth="yes"/>
      <point x="1157" y="1250"/>
      <point x="795" y="1250"/>
      <point x="795" y="1116" type="curve" smooth="yes"/>
    </contour>
    <contour>
      <point x="298" y="96" type="line"/>
      <point x="345" y="38"/>
      <point x="417" y="-31"/>
      <point x="531" y="-31" type="curve" smooth="yes"/>
      <point x="632" y="-31"/>
      <point x="744" y="24"/>
      <point x="821" y="144" type="curve"/>
      <point x="816" y="306" type="line"/>
      <point x="777" y="236"/>
      <point x="708" y="178"/>
      <point x="631" y="178" type="curve" smooth="yes"/>
      <point x="561" y="178"/>
      <point x="506" y="227"/>
      <point x="506" y="316" type="curve" smooth="yes"/>
      <point x="506" y="1114" type="line" smooth="yes"/>
      <point x="506" y="1250"/>
      <point x="144" y="1250"/>
      <point x="144" y="1116" type="curve" smooth="yes"/>
      <point x="144" y="341" type="line"/>
      <point x="138" y="-430" type="line"/>
      <point x="261" y="-430" type="line" smooth="yes"/>
      <point x="360" y="-430"/>
      <point x="414" y="-367"/>
      <point x="402" y="-271" type="curve" smooth="yes"/>
      <point x="341" y="236" type="line"/>
    </contour>
  </outline>
</glyph>
<glyph name="paragraph" format="1">
  <advance width="1740"/>
  <unicode hex="00B6"/>
  <outline>
    <contour>
      <point x="1602" y="0" type="line" name="hr01"/>
      <point x="1634" y="36"/>
      <point x="1653" y="89"/>
      <point x="1653" y="141" type="curve"/>
      <point x="1554" y="141"/>
      <point x="1515" y="171"/>
      <point x="1515" y="254" type="curve" smooth="yes"/>
      <point x="1515" y="1470" type="line" smooth="yes"/>
      <point x="1515" y="1552"/>
      <point x="1554" y="1583"/>
      <point x="1653" y="1583" type="curve" name="hr02"/>
      <point x="1653" y="1635"/>
      <point x="1634" y="1687"/>
      <point x="1602" y="1724" type="curve"/>
      <point x="1122" y="1724" type="line" smooth="yes"/>
      <point x="996" y="1724"/>
      <point x="819" y="1750"/>
      <point x="728" y="1750" type="curve" smooth="yes"/>
      <point x="240" y="1750"/>
      <point x="188" y="1503"/>
      <point x="188" y="1259" type="curve" smooth="yes" name="hr03"/>
      <point x="188" y="973"/>
      <point x="309" y="767"/>
      <point x="548" y="767" type="curve" smooth="yes"/>
      <point x="581" y="767"/>
      <point x="647" y="772"/>
      <point x="683" y="786" type="curve"/>
      <point x="682" y="353" type="line" smooth="yes"/>
      <point x="682" y="180"/>
      <point x="638" y="141"/>
      <point x="438" y="141" type="curve"/>
      <point x="438" y="89"/>
      <point x="455" y="36"/>
      <point x="488" y="0" type="curve"/>
      <point x="987" y="0" type="line"/>
      <point x="987" y="1450" type="line" smooth="yes"/>
      <point x="987" y="1532"/>
      <point x="1005" y="1563"/>
      <point x="1104" y="1563" type="curve" smooth="yes" name="hr04"/>
      <point x="1203" y="1563"/>
      <point x="1210" y="1532"/>
      <point x="1210" y="1450" type="curve" smooth="yes"/>
      <point x="1210" y="0" type="line"/>
    </contour>
  </outline>
</glyph>
<glyph name="periodcentered" format="1">
  <advance width="393"/>
  <unicode hex="00B7"/>
  <outline>
    <contour>
      <point x="306" y="389" type="curve" name="hr00" smooth="yes"/>
      <point x="306" y="454"/>
      <point x="263" y="497"/>
      <point x="196" y="497" type="curve" smooth="yes"/>
      <point x="130" y="497"/>
      <point x="87" y="454"/>
      <point x="87" y="389" type="curve" smooth="yes"/>
      <point x="87" y="324"/>
      <point x="130" y="281"/>
      <point x="196" y="281" type="curve" smooth="yes"/>
      <point x="263" y="281"/>
      <point x="306" y="324"/>
    </contour>
  </outline>
</glyph>
<glyph name="cedilla" format="1">
  <advance width="0"/>
  <unicode hex="00B8"/>
  <outline>
    <contour>
      <point x="-32" y="-109" type="line" name="hr00"/>
      <point x="-15" y="-104"/>
      <point x="-4" y="-103"/>
      <point x="6" y="-103" type="curve" smooth="yes"/>
      <point x="39" y="-103"/>
      <point x="52" y="-117"/>
      <point x="52" y="-134" type="curve" smooth="yes"/>
      <point x="52" y="-152"/>
      <point x="37" y="-168"/>
      <point x="-2" y="-168" type="curve" smooth="yes"/>
      <point x="-36" y="-168"/>
      <point x="-68" y="-156"/>
      <point x="-98" y="-135" type="curve"/>
      <point x="-109" y="-146"/>
      <point x="-122" y="-167"/>
      <point x="-122" y="-186" type="curve"/>
      <point x="-101" y="-206"/>
      <point x="-52" y="-227"/>
      <point x="16" y="-227" type="curve" smooth="yes"/>
      <point x="121" y="-227"/>
      <point x="176" y="-177"/>
      <point x="176" y="-121" type="curve" smooth="yes"/>
      <point x="176" y="-77"/>
      <point x="141" y="-43"/>
      <point x="74" y="-43" type="curve" smooth="yes"/>
      <point x="54" y="-43"/>
      <point x="35" y="-46"/>
      <point x="21" y="-50" type="curve"/>
      <point x="57" y="29" type="line"/>
      <point x="-24" y="29" type="line"/>
      <point x="-68" y="-88" type="line"/>
    </contour>
    <contour>
      <point x="27" y="-146" type="move" name="_btm"/>
    </contour>
  </outline>
</glyph>
<glyph name="onesuperior" format="1">
  <advance width="452"/>
  <unicode hex="00B9"/>
  <outline>
    <contour>
      <point x="302" y="807" type="line" name="hr00" smooth="yes"/>
      <point x="302" y="837"/>
      <point x="290" y="855"/>
      <point x="260" y="855" type="curve" smooth="yes"/>
      <point x="242" y="855"/>
      <point x="225" y="850"/>
      <point x="196" y="836" type="curve" smooth="yes"/>
      <point x="70" y="773" type="line"/>
      <point x="94" y="724" type="line"/>
      <point x="107" y="729"/>
      <point x="121" y="732"/>
      <point x="132" y="732" type="curve" smooth="yes"/>
      <point x="150" y="732"/>
      <point x="161" y="721"/>
      <point x="161" y="697" type="curve" smooth="yes"/>
      <point x="161" y="499" type="line" smooth="yes"/>
      <point x="161" y="451"/>
      <point x="131" y="432"/>
      <point x="87" y="432" type="curve"/>
      <point x="87" y="412"/>
      <point x="93" y="391"/>
      <point x="103" y="379" type="curve"/>
      <point x="356" y="379" type="line"/>
      <point x="366" y="391"/>
      <point x="372" y="412"/>
      <point x="372" y="432" type="curve"/>
      <point x="325" y="432"/>
      <point x="302" y="451"/>
      <point x="302" y="499" type="curve" smooth="yes"/>
    </contour>
  </outline>
</glyph>
